<?xml version="1.0" encoding="UTF-8" standalone="no"?>
<svg
   xmlns:dc="http://purl.org/dc/elements/1.1/"
   xmlns:cc="http://creativecommons.org/ns#"
   xmlns:rdf="http://www.w3.org/1999/02/22-rdf-syntax-ns#"
   xmlns:svg="http://www.w3.org/2000/svg"
   xmlns="http://www.w3.org/2000/svg"
   viewBox="0 0 131.74307 85.256798"
   height="85.256798"
   width="131.74307"
   xml:space="preserve"
   id="svg2"
   version="1.1"><metadata
     id="metadata8"><rdf:RDF><cc:Work
         rdf:about=""><dc:format>image/svg+xml</dc:format><dc:type
           rdf:resource="http://purl.org/dc/dcmitype/StillImage" /></cc:Work></rdf:RDF></metadata><defs
     id="defs6"><clipPath
       id="clipPath42"
       clipPathUnits="userSpaceOnUse"><path
         id="path40"
         d="M 0,63.943 H 98.807 V 0 H 0 Z" /></clipPath><clipPath
       id="clipPath50"
       clipPathUnits="userSpaceOnUse"><path
         id="path48"
         d="M 26.0771,38.9292 H 40.0537 V 21.0846 H 26.0771 Z" /></clipPath><clipPath
       id="clipPath66"
       clipPathUnits="userSpaceOnUse"><path
         id="path64"
         d="M 24.3626,38.219 H 35.336 V 20.2179 H 24.3626 Z" /></clipPath><clipPath
       id="clipPath82"
       clipPathUnits="userSpaceOnUse"><path
         id="path80"
         d="m 40.3889,42.7508 h 8.2077 V 30.0872 h -8.2077 z" /></clipPath><clipPath
       id="clipPath98"
       clipPathUnits="userSpaceOnUse"><path
         id="path96"
         d="M 43.1902,43.6556 H 54.5801 V 30.3593 H 43.1902 Z" /></clipPath><clipPath
       id="clipPath114"
       clipPathUnits="userSpaceOnUse"><path
         id="path112"
         d="M 45.9048,52.2063 H 58.3785 V 48.0678 H 45.9048 Z" /></clipPath><clipPath
       id="clipPath130"
       clipPathUnits="userSpaceOnUse"><path
         id="path128"
         d="M 46.2356,54.6441 H 58.5543 V 51.2504 H 46.2356 Z" /></clipPath><clipPath
       id="clipPath146"
       clipPathUnits="userSpaceOnUse"><path
         id="path144"
         d="M 0,63.943 H 98.807 V 0 H 0 Z" /></clipPath><clipPath
       id="clipPath154"
       clipPathUnits="userSpaceOnUse"><path
         id="path152"
         d="M -0.591827,59.1199 H 90.6784 V -0.613754 H -0.591827 Z" /></clipPath><linearGradient
       id="linearGradient180"
       spreadMethod="pad"
       gradientTransform="matrix(8.27823,-8.22439,8.22439,8.27823,-13.5699,52.4223)"
       gradientUnits="userSpaceOnUse"
       y2="0"
       x2="1"
       y1="0"
       x1="0"><stop
         id="stop174"
         offset="0"
         style="stop-opacity:1;stop-color:#fdedf4" /><stop
         id="stop176"
         offset="0.59011186"
         style="stop-opacity:1;stop-color:#fdedf4" /><stop
         id="stop178"
         offset="1"
         style="stop-opacity:1;stop-color:#f06ca1" /></linearGradient><linearGradient
       id="linearGradient202"
       spreadMethod="pad"
       gradientTransform="matrix(8.2782259,8.22439,8.22439,-8.2782259,36.328808,14.607192)"
       gradientUnits="userSpaceOnUse"
       y2="0"
       x2="1"
       y1="0"
       x1="0"><stop
         id="stop196"
         offset="0"
         style="stop-opacity:1;stop-color:#fdedf4" /><stop
         id="stop198"
         offset="0.59011186"
         style="stop-opacity:1;stop-color:#fdedf4" /><stop
         id="stop200"
         offset="1"
         style="stop-opacity:1;stop-color:#f06ca1" /></linearGradient><linearGradient
       id="linearGradient214"
       spreadMethod="pad"
       gradientTransform="matrix(-2.03474,-24.1649,24.1649,-2.03474,-2.9388,66.8081)"
       gradientUnits="userSpaceOnUse"
       y2="0"
       x2="1"
       y1="0"
       x1="0"><stop
         id="stop208"
         offset="0"
         style="stop-opacity:1;stop-color:#fdedf4" /><stop
         id="stop210"
         offset="0.41982572"
         style="stop-opacity:1;stop-color:#fdedf4" /><stop
         id="stop212"
         offset="1"
         style="stop-opacity:1;stop-color:#f06ca1" /></linearGradient><linearGradient
       id="linearGradient236"
       spreadMethod="pad"
       gradientTransform="matrix(-2.0347381,24.164867,24.164867,2.0347381,47.713333,24.866049)"
       gradientUnits="userSpaceOnUse"
       y2="0"
       x2="1"
       y1="0"
       x1="0"><stop
         id="stop230"
         offset="0"
         style="stop-opacity:1;stop-color:#fdedf4" /><stop
         id="stop232"
         offset="0.41982572"
         style="stop-opacity:1;stop-color:#fdedf4" /><stop
         id="stop234"
         offset="1"
         style="stop-opacity:1;stop-color:#f06ca1" /></linearGradient><linearGradient
       id="linearGradient248"
       spreadMethod="pad"
       gradientTransform="matrix(-9.73712,-14.0375,14.0375,-9.73712,-6.3483,70.6115)"
       gradientUnits="userSpaceOnUse"
       y2="0"
       x2="1"
       y1="0"
       x1="0"><stop
         id="stop242"
         offset="0"
         style="stop-opacity:1;stop-color:#fdedf4" /><stop
         id="stop244"
         offset="0.41982572"
         style="stop-opacity:1;stop-color:#fdedf4" /><stop
         id="stop246"
         offset="1"
         style="stop-opacity:1;stop-color:#f06ca1" /></linearGradient><linearGradient
       id="linearGradient270"
       spreadMethod="pad"
       gradientTransform="matrix(-9.7371206,14.03753,14.03753,9.7371206,65.521866,49.494919)"
       gradientUnits="userSpaceOnUse"
       y2="0"
       x2="1"
       y1="0"
       x1="0"><stop
         id="stop264"
         offset="0"
         style="stop-opacity:1;stop-color:#fdedf4" /><stop
         id="stop266"
         offset="0.41982572"
         style="stop-opacity:1;stop-color:#fdedf4" /><stop
         id="stop268"
         offset="1"
         style="stop-opacity:1;stop-color:#f06ca1" /></linearGradient><clipPath
       id="clipPath280"
       clipPathUnits="userSpaceOnUse"><path
         id="path278"
         d="M 0,63.943 H 98.807 V 0 H 0 Z" /></clipPath><clipPath
       id="clipPath368"
       clipPathUnits="userSpaceOnUse"><path
         id="path366"
         d="M 0,63.943 H 98.807 V 0 H 0 Z" /></clipPath><clipPath
       id="clipPath400"
       clipPathUnits="userSpaceOnUse"><path
         id="path398"
         d="M 0,63.943 H 98.807 V 0 H 0 Z" /></clipPath></defs><g
     transform="matrix(1.3333333,0,0,-1.3333333,0,85.2568)"
     id="g10"><g
       transform="translate(0,58.9501)"
       id="g12"><path
         id="path14"
         style="fill:#afdbf5;fill-opacity:1;fill-rule:nonzero;stroke:none"
         d="M 0,0 V -0.227 L 32.926,-29.004 90.157,0.044 Z" /></g><g
       transform="translate(0,59.0754)"
       id="g16"><path
         id="path18"
         style="fill:#ffffff;fill-opacity:1;fill-rule:nonzero;stroke:none"
         d="M 0,0 V -0.518 L 32.908,-29.279 90.679,0.045 Z M 0.074,-0.25 89.633,-0.206 32.945,-28.98 Z" /></g><g
       transform="translate(0,58.2571)"
       id="g20"><path
         id="path22"
         style="fill:#80a6c0;fill-opacity:1;fill-rule:nonzero;stroke:none"
         d="m 0,0 31.969,-58.257 h 0.084 l 0.729,29.74 L 0,0.135 Z" /></g><g
       transform="translate(0,57.996)"
       id="g24"><path
         id="path26"
         style="fill:#ffffff;fill-opacity:1;fill-rule:nonzero;stroke:none"
         d="m 0,0 31.827,-57.996 h 0.352 L 32.908,-28.2 0,0.562 Z m 0.306,-0.038 32.349,-28.273 -0.718,-29.365 z" /></g><g
       transform="translate(33.0309,29.718)"
       id="g28"><path
         id="path30"
         style="fill:#9bc6ea;fill-opacity:1;fill-rule:nonzero;stroke:none"
         d="m 0,0 -0.727,-29.718 h 0.286 l 57.468,58.664 z" /></g><g
       transform="translate(32.9076,29.7963)"
       id="g32"><path
         id="path34"
         style="fill:#ffffff;fill-opacity:1;fill-rule:nonzero;stroke:none"
         d="m 0,0 -0.728,-29.796 h 0.586 l 57.913,59.12 z M 0.247,-0.156 56.528,28.413 -0.478,-29.782 Z" /></g><g
       id="g36"><g
         clip-path="url(#clipPath42)"
         id="g38"><g
           id="g44"><g
             id="g46" /><g
             id="g58"><g
               style="opacity:0.80000299"
               id="g56"
               clip-path="url(#clipPath50)"><g
                 id="g54"
                 transform="translate(26.0771,38.2131)"><path
                   id="path52"
                   style="fill:#ecb3b8;fill-opacity:1;fill-rule:nonzero;stroke:none"
                   d="m 0,0 c 7.395,3.118 13.318,-4.956 13.318,-4.956 0,0 3.074,-6.262 -4.059,-12.172 l -2.428,8.711 z" /></g></g></g></g><g
           id="g60"><g
             id="g62" /><g
             id="g74"><g
               style="opacity:0.80000299"
               id="g72"
               clip-path="url(#clipPath66)"><g
                 id="g70"
                 transform="translate(35.336,21.0846)"><path
                   id="path68"
                   style="fill:#e0eab5;fill-opacity:1;fill-rule:nonzero;stroke:none"
                   d="m 0,0 c -0.927,-0.667 -1.739,-0.992 -2.687,-0.822 -5.829,2.602 -8.672,10.46 -8.244,16.883 0.022,0.338 1.263,1.15 1.672,1.067 l 6.862,-8.826 z" /></g></g></g></g><g
           id="g76"><g
             id="g78" /><g
             id="g90"><g
               style="opacity:0.80000299"
               id="g88"
               clip-path="url(#clipPath82)"><g
                 id="g86"
                 transform="translate(47.6157,30.3593)"><path
                   id="path84"
                   style="fill:#e0eab5;fill-opacity:1;fill-rule:nonzero;stroke:none"
                   d="m 0,0 c -2.893,-1.359 -6.241,2.745 -5.729,4.102 -2.482,1.731 -1.764,6.641 1.303,8.29 L 0.981,7.334 Z" /></g></g></g></g><g
           id="g92"><g
             id="g94" /><g
             id="g106"><g
               style="opacity:0.80000299"
               id="g104"
               clip-path="url(#clipPath98)"><g
                 id="g102"
                 transform="translate(43.1902,42.7508)"><path
                   id="path100"
                   style="fill:#ecb3b8;fill-opacity:1;fill-rule:nonzero;stroke:none"
                   d="m 0,0 c 5.687,2.852 11.35,-1.951 11.35,-1.951 0,0 0.994,-8.297 -6.924,-10.441 l 1.045,7.653 z" /></g></g></g></g><g
           id="g108"><g
             id="g110" /><g
             id="g122"><g
               style="opacity:0.80000299"
               id="g120"
               clip-path="url(#clipPath114)"><g
                 id="g118"
                 transform="translate(58.3785,51.2504)"><path
                   id="path116"
                   style="fill:#e0eab5;fill-opacity:1;fill-rule:nonzero;stroke:none"
                   d="m 0,0 c -0.996,-1.586 -5.056,-3.684 -8.711,-3.075 -3.317,0.553 -4.377,2.848 -3.432,4.031 z" /></g></g></g></g><g
           id="g124"><g
             id="g126" /><g
             id="g138"><g
               style="opacity:0.80000299"
               id="g136"
               clip-path="url(#clipPath130)"><g
                 id="g134"
                 transform="translate(46.2356,52.2063)"><path
                   id="path132"
                   style="fill:#ecb3b8;fill-opacity:1;fill-rule:nonzero;stroke:none"
                   d="m 0,0 c 1.267,1.586 4.207,2.662 7.56,2.398 3.353,-0.264 5.388,-2.072 4.583,-3.354 z" /></g></g></g></g></g></g><g
       id="g140"><g
         clip-path="url(#clipPath146)"
         id="g142"><g
           id="g148"><g
             id="g150" /><g
             id="g170"><g
               style="opacity:0.80000299"
               id="g168"
               clip-path="url(#clipPath154)"><g
                 id="g158"
                 transform="translate(90.6784,59.1199)"><path
                   id="path156"
                   style="fill:#ffffff;fill-opacity:1;fill-rule:nonzero;stroke:none"
                   d="m 0,0 -91.27,-0.045 33.499,-29.279 z m -1.046,-0.251 -56.687,-28.774 -32.872,28.73 z" /></g><g
                 id="g162"
                 transform="translate(-0.5918,59.0748)"><path
                   id="path160"
                   style="fill:#ffffff;fill-opacity:1;fill-rule:nonzero;stroke:none"
                   d="m 0,0 32.756,-59.689 0.744,30.41 z M 0.898,-1.117 33.247,-29.39 32.529,-58.755 Z" /></g><g
                 id="g166"
                 transform="translate(90.6784,59.1199)"><path
                   id="path164"
                   style="fill:#ffffff;fill-opacity:1;fill-rule:nonzero;stroke:none"
                   d="m 0,0 -57.771,-29.324 -0.743,-30.41 z m -1.242,-0.911 -57.007,-58.194 0.725,29.626 z" /></g></g></g></g></g></g><g
       transform="translate(37.1104,15.9589)"
       id="g172"><path
         id="path182"
         style="fill:none;stroke:url(#linearGradient180);stroke-width:1;stroke-linecap:round;stroke-linejoin:miter;stroke-miterlimit:10;stroke-dasharray:none;stroke-opacity:1"
         d="m 0,0 -4.187,13.762 -13.96,18.213" /></g><g
       id="g184"><g
         id="g186"><g
           id="g192"><g
             id="g194"><path
               id="path204"
               style="fill:url(#linearGradient202);stroke:none"
               d="m 38.414,16.813 -0.677,-2.914 -2.185,2.043 z" /></g></g></g></g><g
       transform="translate(47.4068,27.4583)"
       id="g206"><path
         id="path216"
         style="fill:none;stroke:url(#linearGradient214);stroke-width:1;stroke-linecap:round;stroke-linejoin:miter;stroke-miterlimit:10;stroke-dasharray:none;stroke-opacity:1"
         d="m 0,0 1.255,10.553 -11.516,9.799" /></g><g
       id="g218"><g
         id="g220"><g
           id="g226"><g
             id="g228"><path
               id="path238"
               style="fill:url(#linearGradient236);stroke:none"
               d="m 48.944,27.716 -1.791,-2.395 -1.18,2.748 z" /></g></g></g></g><g
       transform="translate(64.3037,50.9153)"
       id="g240"><path
         id="path250"
         style="fill:none;stroke:url(#linearGradient248);stroke-width:1;stroke-linecap:round;stroke-linejoin:miter;stroke-miterlimit:10;stroke-dasharray:none;stroke-opacity:1"
         d="M 0,0 -23.21,1.818" /></g><g
       id="g252"><g
         id="g254"><g
           id="g260"><g
             id="g262"><path
               id="path272"
               style="fill:url(#linearGradient270);stroke:none"
               d="M 63.984,52.441 66.45,50.747 63.751,49.458 Z" /></g></g></g></g><g
       id="g274"><g
         clip-path="url(#clipPath280)"
         id="g276"><g
           transform="translate(33.4624,31.1969)"
           id="g282"><path
             id="path284"
             style="fill:#f5bcd1;fill-opacity:1;fill-rule:nonzero;stroke:none"
             d="M 0,0 C 0.853,-0.271 1.325,-1.183 1.054,-2.036 0.783,-2.89 -0.129,-3.362 -0.982,-3.09 -1.836,-2.819 -2.308,-1.907 -2.036,-1.054 -1.765,-0.201 -0.853,0.271 0,0" /></g><g
           transform="translate(48.9928,39.504)"
           id="g286"><path
             id="path288"
             style="fill:#f5bcd1;fill-opacity:1;fill-rule:nonzero;stroke:none"
             d="M 0,0 C 0.853,-0.271 1.325,-1.183 1.054,-2.036 0.783,-2.89 -0.129,-3.362 -0.982,-3.09 -1.836,-2.819 -2.308,-1.907 -2.036,-1.054 -1.765,-0.201 -0.853,0.271 0,0" /></g><g
           transform="translate(51.8965,53.4545)"
           id="g290"><path
             id="path292"
             style="fill:#f5bcd1;fill-opacity:1;fill-rule:nonzero;stroke:none"
             d="M 0,0 C 0.882,0.156 1.723,-0.433 1.879,-1.314 2.035,-2.196 1.446,-3.037 0.564,-3.193 -0.317,-3.349 -1.159,-2.761 -1.314,-1.879 -1.47,-0.997 -0.882,-0.156 0,0" /></g><g
           transform="translate(17.9458,49.2559)"
           id="g294"><path
             id="path296"
             style="fill:#f06ca1;fill-opacity:1;fill-rule:nonzero;stroke:none"
             d="m 0,0 c -0.286,0.002 -0.518,0.209 -0.517,0.461 l 0.066,10.036 1.665,0.473 c 0.198,0.057 0.404,0.085 0.612,0.085 0.294,0 0.589,-0.058 0.853,-0.168 l 0.396,-0.166 c 0.234,-0.097 0.495,-0.149 0.756,-0.149 0.109,0 0.219,0.009 0.327,0.027 L 5.853,10.879 5.827,6.834 3.848,6.612 C 3.764,6.603 3.68,6.598 3.596,6.598 3.309,6.598 3.02,6.654 2.761,6.759 L 2.476,6.875 C 2.247,6.969 1.991,7.018 1.736,7.018 1.543,7.018 1.354,6.991 1.172,6.937 L 0.564,6.756 0.522,0.454 C 0.521,0.204 0.289,0 0.004,0 Z" /></g><g
           transform="translate(23.6778,60.2379)"
           id="g298"><path
             id="path300"
             style="fill:#ffffff;fill-opacity:1;fill-rule:nonzero;stroke:none"
             d="m 0,0 h 0.005 z m -3.906,0.198 c 0,0 0,0 0,0 -0.22,0 -0.438,-0.03 -0.646,-0.089 l -1.575,-0.449 -0.18,-0.051 -0.002,-0.187 -0.002,-0.333 -0.022,-3.454 -0.041,-6.155 c -0.002,-0.321 0.286,-0.585 0.641,-0.587 0.358,0 0.647,0.26 0.649,0.579 l 0.04,6.209 0.52,0.154 c 0.17,0.05 0.347,0.076 0.528,0.076 0.239,0 0.478,-0.046 0.693,-0.133 l 0.285,-0.116 c 0.274,-0.112 0.579,-0.171 0.882,-0.171 0.088,0 0.177,0.005 0.266,0.015 l 1.868,0.209 0.221,0.025 0.001,0.222 0.025,3.786 0.002,0.297 -0.293,-0.048 -1.548,-0.257 c -0.102,-0.016 -0.205,-0.025 -0.307,-0.025 -0.245,0 -0.49,0.048 -0.708,0.14 L -3.005,0.02 C -3.284,0.137 -3.596,0.198 -3.906,0.198 M -0.005,-0.25 H 0 m -3.906,0.198 c 0.276,0 0.552,-0.053 0.804,-0.159 l 0.396,-0.165 c 0.252,-0.105 0.527,-0.159 0.805,-0.159 0.116,0 0.233,0.01 0.348,0.029 l 1.548,0.256 -0.025,-3.786 -1.868,-0.209 c -0.079,-0.009 -0.159,-0.014 -0.238,-0.014 -0.272,0 -0.541,0.052 -0.788,0.152 l -0.285,0.116 c -0.248,0.101 -0.517,0.152 -0.787,0.152 -0.202,0 -0.405,-0.029 -0.599,-0.086 l -0.697,-0.207 -0.042,-6.395 c -0.001,-0.183 -0.177,-0.33 -0.394,-0.33 -0.001,0 -0.002,0 -0.003,0 -0.218,0.002 -0.394,0.152 -0.393,0.335 l 0.041,6.156 0.022,3.453 0.002,0.333 1.575,0.448 c 0.188,0.054 0.383,0.08 0.578,0.08" /></g><g
           transform="translate(70.2383,11.2413)"
           id="g302"><path
             id="path304"
             style="fill:#f06ca1;fill-opacity:1;fill-rule:nonzero;stroke:none"
             d="M 0,0 C -0.185,0.001 -0.336,0.136 -0.336,0.301 L -0.295,6.406 0.73,6.698 C 0.853,6.733 0.979,6.75 1.108,6.75 1.29,6.75 1.472,6.714 1.634,6.646 l 0.241,-0.1 C 2.014,6.488 2.169,6.458 2.324,6.458 2.39,6.458 2.455,6.463 2.52,6.474 L 3.573,6.647 3.558,4.147 2.337,4.011 C 2.285,4.005 2.233,4.002 2.182,4.002 c -0.177,0 -0.355,0.034 -0.515,0.1 L 1.494,4.172 C 1.357,4.227 1.204,4.257 1.053,4.257 0.938,4.257 0.826,4.24 0.719,4.208 L 0.365,4.104 0.341,0.298 C 0.339,0.133 0.187,0 0.003,0 Z" /></g><g
           transform="translate(73.7177,17.9698)"
           id="g306"><path
             id="path308"
             style="fill:#ffffff;fill-opacity:1;fill-rule:nonzero;stroke:none"
             d="m 0,0 h 0.005 z m -2.371,0.12 v 0 c -0.138,0 -0.274,-0.019 -0.405,-0.056 l -0.955,-0.272 -0.141,-0.04 -0.001,-0.147 -0.002,-0.202 -0.013,-2.095 -0.025,-3.734 c -0.001,-0.111 0.05,-0.218 0.138,-0.294 0.08,-0.068 0.185,-0.106 0.296,-0.107 0.241,0 0.437,0.177 0.438,0.396 l 0.024,3.733 0.284,0.084 c 0.098,0.029 0.202,0.044 0.307,0.044 0.139,0 0.279,-0.027 0.404,-0.078 l 0.173,-0.07 c 0.171,-0.07 0.362,-0.107 0.551,-0.107 0.056,0 0.111,0.003 0.167,0.01 l 1.133,0.127 0.173,0.019 0.002,0.175 0.015,2.296 0.001,0.233 -0.23,-0.038 -0.939,-0.155 c -0.059,-0.01 -0.119,-0.015 -0.179,-0.015 -0.143,0 -0.285,0.028 -0.412,0.081 L -1.808,0.009 C -1.982,0.082 -2.177,0.12 -2.371,0.12 m 2.366,-0.317 H 0 m -2.371,0.121 c 0.167,0 0.335,-0.033 0.488,-0.097 l 0.24,-0.1 c 0.153,-0.064 0.32,-0.096 0.488,-0.096 0.07,0 0.141,0.005 0.211,0.017 l 0.939,0.155 -0.015,-2.296 -1.133,-0.127 c -0.048,-0.005 -0.097,-0.008 -0.145,-0.008 -0.164,0 -0.328,0.031 -0.477,0.092 l -0.173,0.07 c -0.151,0.062 -0.314,0.092 -0.478,0.092 -0.123,0 -0.245,-0.017 -0.363,-0.052 L -3.212,-2.551 -3.238,-6.43 c 0,-0.111 -0.107,-0.2 -0.238,-0.2 -10e-4,0 -0.002,0 -0.002,0 -0.132,0 -0.239,0.092 -0.238,0.203 l 0.024,3.734 0.014,2.095 10e-4,0.201 0.955,0.272 c 0.114,0.033 0.233,0.049 0.351,0.049" /></g><g
           transform="translate(44.7656,6.8653)"
           id="g310"><path
             id="path312"
             style="fill:#7d949a;fill-opacity:1;fill-rule:nonzero;stroke:none"
             d="m 0,0 -0.221,1.979 c -0.043,0.371 0.009,0.747 0.147,1.087 L 0.041,3.351 C 0.206,3.755 0.229,4.23 0.104,4.655 l -0.181,0.608 -6.302,0.041 c -0.112,10e-4 -0.219,0.048 -0.302,0.131 -0.098,0.1 -0.153,0.242 -0.152,0.392 0.001,0.285 0.207,0.516 0.458,0.516 L 3.663,6.278 4.137,4.613 C 4.275,4.128 4.246,3.608 4.053,3.148 L 3.888,2.752 C 3.748,2.418 3.705,2.033 3.766,1.668 l 0.28,-1.694 z" /></g><g
           transform="translate(38.3905,13.3338)"
           id="g314"><path
             id="path316"
             style="fill:#ffffff;fill-opacity:1;fill-rule:nonzero;stroke:none"
             d="m 0,0 c -0.319,0 -0.581,-0.287 -0.583,-0.641 -0.003,-0.355 0.257,-0.646 0.578,-0.648 L 6.205,-1.33 6.359,-1.849 C 6.476,-2.246 6.455,-2.691 6.301,-3.07 L 6.185,-3.356 C 6.039,-3.714 5.986,-4.11 6.03,-4.503 l 0.209,-1.869 0.025,-0.22 0.222,-0.002 3.786,-0.025 0.297,-0.001 -0.049,0.292 -0.256,1.548 c -0.057,0.343 -0.016,0.703 0.114,1.016 l 0.166,0.396 c 0.203,0.485 0.234,1.035 0.088,1.547 L 10.184,-0.247 10.133,-0.066 9.945,-0.065 9.613,-0.063 6.159,-0.04 0.004,0 H 0.003 Z m 0,-0.25 c 0.001,0 0.001,0 0.002,0 l 6.155,-0.04 3.454,-0.023 0.333,-0.002 0.448,-1.575 c 0.129,-0.454 0.101,-0.951 -0.079,-1.382 L 10.148,-3.668 C 9.998,-4.025 9.953,-4.43 10.017,-4.821 l 0.257,-1.548 -3.787,0.025 -0.209,1.869 c -0.039,0.35 0.009,0.706 0.139,1.025 l 0.116,0.285 c 0.176,0.434 0.2,0.933 0.065,1.387 l -0.206,0.697 -6.395,0.042 c -0.184,10e-4 -0.332,0.179 -0.33,0.397 0.001,0.217 0.15,0.392 0.333,0.392" /></g><g
           transform="translate(39.2271,52.9449)"
           id="g318"><path
             id="path320"
             style="fill:#f06ca1;fill-opacity:1;fill-rule:nonzero;stroke:none"
             d="M 0,0 C -0.15,0.001 -0.292,0.059 -0.39,0.158 -0.473,0.242 -0.518,0.35 -0.517,0.461 l 0.066,10.036 1.665,0.473 c 0.198,0.056 0.404,0.085 0.612,0.085 0.294,0 0.589,-0.058 0.853,-0.169 l 0.395,-0.165 c 0.234,-0.097 0.495,-0.149 0.757,-0.149 0.109,0 0.219,0.009 0.328,0.027 L 5.853,10.879 5.827,6.834 3.848,6.612 C 3.764,6.603 3.68,6.598 3.596,6.598 3.309,6.598 3.02,6.654 2.761,6.759 L 2.476,6.875 C 2.247,6.968 1.991,7.018 1.736,7.018 1.543,7.018 1.354,6.991 1.172,6.937 L 0.564,6.756 0.522,0.454 C 0.521,0.204 0.289,0 0.004,0 Z" /></g><g
           transform="translate(44.959,63.9267)"
           id="g322"><path
             id="path324"
             style="fill:#ffffff;fill-opacity:1;fill-rule:nonzero;stroke:none"
             d="m 0,0 h 0.005 z m -3.906,0.198 v -0.25 0.25 c -0.22,0 -0.438,-0.03 -0.646,-0.089 l -1.575,-0.449 -0.18,-0.051 -0.002,-0.187 -0.002,-0.333 -0.022,-3.454 -0.041,-6.155 c -0.002,-0.321 0.286,-0.585 0.641,-0.587 0.358,0 0.647,0.26 0.649,0.579 l 0.04,6.209 0.52,0.154 c 0.17,0.05 0.347,0.076 0.528,0.076 0.239,0 0.478,-0.046 0.693,-0.133 l 0.285,-0.116 c 0.274,-0.112 0.579,-0.171 0.882,-0.171 0.088,0 0.177,0.005 0.266,0.015 l 1.868,0.209 0.221,0.025 0.001,0.222 0.025,3.786 0.002,0.297 -0.293,-0.048 -1.548,-0.257 c -0.102,-0.016 -0.205,-0.025 -0.307,-0.025 -0.245,0 -0.49,0.048 -0.708,0.14 L -3.005,0.02 C -3.284,0.137 -3.596,0.198 -3.906,0.198 M -0.005,-0.25 H 0 m -3.906,0.198 c 0.276,0 0.552,-0.053 0.804,-0.159 l 0.396,-0.165 c 0.252,-0.105 0.527,-0.159 0.805,-0.159 0.116,0 0.233,0.01 0.348,0.029 l 1.548,0.256 -0.025,-3.786 -1.868,-0.209 c -0.079,-0.009 -0.159,-0.014 -0.238,-0.014 -0.272,0 -0.541,0.052 -0.788,0.152 l -0.285,0.116 c -0.248,0.101 -0.517,0.152 -0.787,0.152 -0.202,0 -0.405,-0.029 -0.599,-0.086 l -0.698,-0.207 -0.041,-6.395 c -0.001,-0.183 -0.177,-0.33 -0.394,-0.33 -0.001,0 -0.002,0 -0.003,0 -0.218,0.002 -0.394,0.152 -0.393,0.335 l 0.041,6.156 0.022,3.453 0.002,0.333 1.575,0.448 c 0.188,0.054 0.383,0.08 0.578,0.08" /></g><g
           transform="translate(68.1318,50.4215)"
           id="g326"><path
             id="path328"
             style="fill:#7d949a;fill-opacity:1;fill-rule:nonzero;stroke:none"
             d="m 0,0 c -0.286,0.002 -0.518,0.209 -0.517,0.461 l 0.066,10.036 1.665,0.473 c 0.197,0.056 0.403,0.085 0.612,0.085 0.293,0 0.588,-0.058 0.852,-0.168 l 0.396,-0.166 c 0.234,-0.097 0.495,-0.149 0.757,-0.149 0.109,0 0.219,0.009 0.327,0.027 L 5.853,10.879 5.826,6.834 3.848,6.612 C 3.764,6.603 3.68,6.598 3.596,6.598 3.309,6.598 3.02,6.654 2.761,6.759 L 2.476,6.875 C 2.246,6.969 1.99,7.018 1.735,7.018 1.543,7.018 1.354,6.991 1.172,6.937 L 0.563,6.756 0.522,0.454 C 0.521,0.204 0.289,0 0.004,0 Z" /></g><g
           transform="translate(73.8636,61.4034)"
           id="g330"><path
             id="path332"
             style="fill:#ffffff;fill-opacity:1;fill-rule:nonzero;stroke:none"
             d="m 0,0 h 0.005 z m -3.906,0.198 v -0.25 0.25 c -0.22,0 -0.438,-0.03 -0.646,-0.089 l -1.575,-0.449 -0.18,-0.051 -0.002,-0.187 -0.002,-0.333 -0.022,-3.454 -0.041,-6.155 c -0.002,-0.321 0.286,-0.585 0.641,-0.587 0.358,0 0.647,0.26 0.649,0.579 l 0.04,6.209 0.52,0.154 c 0.17,0.05 0.347,0.076 0.528,0.076 0.239,0 0.478,-0.046 0.693,-0.133 l 0.285,-0.116 c 0.274,-0.112 0.579,-0.171 0.882,-0.171 0.088,0 0.177,0.005 0.266,0.015 l 1.868,0.209 0.221,0.025 0.001,0.222 0.025,3.786 0.002,0.297 -0.293,-0.048 -1.548,-0.257 c -0.102,-0.016 -0.205,-0.025 -0.307,-0.025 -0.245,0 -0.49,0.048 -0.708,0.14 L -3.005,0.02 C -3.284,0.137 -3.596,0.198 -3.906,0.198 M -0.005,-0.25 H 0 m -3.906,0.198 c 0.276,0 0.552,-0.053 0.804,-0.159 l 0.396,-0.165 c 0.252,-0.105 0.527,-0.159 0.805,-0.159 0.116,0 0.233,0.01 0.348,0.029 l 1.548,0.256 -0.025,-3.786 -1.868,-0.209 c -0.079,-0.009 -0.159,-0.014 -0.238,-0.014 -0.272,0 -0.541,0.052 -0.788,0.152 l -0.285,0.116 c -0.248,0.101 -0.517,0.152 -0.787,0.152 -0.202,0 -0.405,-0.029 -0.599,-0.086 l -0.698,-0.207 -0.041,-6.395 c -0.002,-0.183 -0.177,-0.33 -0.394,-0.33 -0.001,0 -0.002,0 -0.003,0 -0.218,0.002 -0.394,0.152 -0.393,0.335 l 0.041,6.156 0.022,3.453 0.002,0.333 1.575,0.448 c 0.188,0.054 0.383,0.08 0.578,0.08" /></g><g
           transform="translate(70.2383,0.7769)"
           id="g334"><path
             id="path336"
             style="fill:#7d949a;fill-opacity:1;fill-rule:nonzero;stroke:none"
             d="M 0,0 C -0.185,0.001 -0.336,0.137 -0.336,0.302 L -0.295,6.406 0.73,6.698 C 0.853,6.733 0.98,6.75 1.108,6.75 1.29,6.75 1.471,6.715 1.634,6.647 L 1.875,6.546 C 2.014,6.488 2.169,6.458 2.324,6.458 2.39,6.458 2.455,6.463 2.52,6.474 L 3.573,6.648 3.558,4.147 2.337,4.011 C 2.285,4.005 2.233,4.002 2.182,4.002 c -0.177,0 -0.355,0.034 -0.515,0.1 L 1.494,4.172 C 1.357,4.228 1.205,4.257 1.054,4.257 0.938,4.257 0.826,4.241 0.719,4.208 L 0.365,4.104 0.341,0.298 C 0.339,0.133 0.187,0 0.003,0 Z" /></g><g
           transform="translate(73.7177,7.5055)"
           id="g338"><path
             id="path340"
             style="fill:#ffffff;fill-opacity:1;fill-rule:nonzero;stroke:none"
             d="m 0,0 h 0.005 z m -2.371,0.12 v 0 c -0.138,0 -0.274,-0.019 -0.405,-0.056 l -0.955,-0.272 -0.141,-0.04 -0.001,-0.147 -0.002,-0.202 -0.013,-2.095 -0.025,-3.734 c -0.001,-0.219 0.193,-0.399 0.434,-0.401 0.241,0 0.437,0.177 0.438,0.396 l 0.024,3.733 0.284,0.084 c 0.098,0.029 0.202,0.044 0.307,0.044 0.139,0 0.279,-0.027 0.404,-0.078 l 0.173,-0.07 c 0.171,-0.07 0.362,-0.107 0.551,-0.107 0.056,0 0.111,0.003 0.167,0.01 l 1.133,0.127 0.173,0.019 0.002,0.175 0.015,2.296 0.001,0.233 -0.23,-0.038 -0.939,-0.155 c -0.059,-0.01 -0.119,-0.015 -0.179,-0.015 -0.143,0 -0.285,0.028 -0.412,0.081 L -1.808,0.009 C -1.982,0.082 -2.177,0.12 -2.371,0.12 m 2.366,-0.317 H 0 m -2.371,0.121 c 0.167,0 0.335,-0.033 0.488,-0.097 l 0.24,-0.1 c 0.153,-0.064 0.32,-0.096 0.488,-0.096 0.07,0 0.141,0.005 0.211,0.017 l 0.939,0.155 -0.015,-2.296 -1.133,-0.127 c -0.048,-0.005 -0.097,-0.008 -0.145,-0.008 -0.164,0 -0.328,0.031 -0.477,0.092 l -0.173,0.07 c -0.151,0.062 -0.314,0.092 -0.478,0.092 -0.123,0 -0.245,-0.017 -0.363,-0.052 L -3.212,-2.551 -3.238,-6.43 c 0,-0.111 -0.107,-0.2 -0.238,-0.2 h -0.002 c -0.132,0 -0.239,0.092 -0.238,0.203 l 0.024,3.734 0.014,2.095 10e-4,0.201 0.955,0.272 c 0.114,0.033 0.233,0.049 0.351,0.049" /></g><g
           transform="translate(35.9009,49.1641)"
           id="g342"><path
             id="path344"
             style="fill:#f06ca1;fill-opacity:1;fill-rule:nonzero;stroke:none"
             d="M 0,0 C -0.15,0.001 -0.292,0.059 -0.39,0.158 -0.472,0.242 -0.518,0.35 -0.517,0.461 l 0.066,10.036 1.665,0.473 c 0.198,0.057 0.404,0.085 0.612,0.085 0.294,0 0.589,-0.058 0.853,-0.168 l 0.396,-0.166 c 0.234,-0.097 0.495,-0.149 0.756,-0.149 0.109,0 0.219,0.009 0.327,0.027 L 5.853,10.879 5.827,6.834 3.848,6.612 C 3.764,6.603 3.68,6.598 3.596,6.598 3.309,6.598 3.02,6.654 2.761,6.759 L 2.476,6.875 C 2.247,6.969 1.991,7.018 1.736,7.018 1.543,7.018 1.354,6.991 1.172,6.937 L 0.564,6.756 0.522,0.454 C 0.521,0.204 0.289,0 0.004,0 Z" /></g><g
           transform="translate(41.6328,60.146)"
           id="g346"><path
             id="path348"
             style="fill:#ffffff;fill-opacity:1;fill-rule:nonzero;stroke:none"
             d="m 0,0 h 0.005 z m -3.906,0.198 c 0,0 0,0 0,0 -0.22,0 -0.438,-0.03 -0.646,-0.089 l -1.575,-0.449 -0.18,-0.051 -0.002,-0.187 -0.002,-0.333 -0.022,-3.454 -0.041,-6.155 c -0.002,-0.321 0.286,-0.585 0.641,-0.587 0.358,0 0.647,0.26 0.649,0.579 l 0.04,6.209 0.52,0.154 c 0.17,0.05 0.347,0.076 0.528,0.076 0.239,0 0.478,-0.046 0.693,-0.133 l 0.285,-0.116 c 0.274,-0.112 0.579,-0.171 0.882,-0.171 0.088,0 0.177,0.005 0.266,0.015 l 1.868,0.209 0.221,0.025 0.001,0.222 0.025,3.786 0.002,0.297 -0.293,-0.048 -1.548,-0.257 c -0.102,-0.016 -0.205,-0.025 -0.307,-0.025 -0.245,0 -0.49,0.048 -0.708,0.14 L -3.005,0.02 C -3.284,0.137 -3.596,0.198 -3.906,0.198 M -0.005,-0.25 H 0 m -3.906,0.198 c 0.276,0 0.552,-0.053 0.804,-0.159 l 0.396,-0.165 c 0.252,-0.105 0.527,-0.159 0.805,-0.159 0.116,0 0.233,0.01 0.348,0.029 l 1.548,0.256 -0.025,-3.786 -1.868,-0.209 c -0.079,-0.009 -0.159,-0.014 -0.238,-0.014 -0.272,0 -0.541,0.052 -0.788,0.152 l -0.285,0.116 c -0.248,0.101 -0.517,0.152 -0.787,0.152 -0.202,0 -0.405,-0.029 -0.599,-0.086 l -0.697,-0.207 -0.042,-6.395 c -0.001,-0.183 -0.177,-0.33 -0.394,-0.33 -0.001,0 -0.002,0 -0.003,0 -0.218,0.002 -0.394,0.152 -0.393,0.335 l 0.041,6.156 0.022,3.453 0.002,0.333 1.575,0.448 c 0.188,0.054 0.383,0.08 0.578,0.08" /></g><g
           transform="translate(53.6973,18.0562)"
           id="g350"><path
             id="path352"
             style="fill:#7d949a;fill-opacity:1;fill-rule:nonzero;stroke:none"
             d="m 0,0 -0.222,1.979 c -0.042,0.371 0.01,0.746 0.147,1.086 L 0.041,3.351 C 0.206,3.755 0.229,4.23 0.103,4.654 l -0.18,0.609 -6.303,0.041 c -0.252,0.002 -0.455,0.236 -0.454,0.522 0.003,0.286 0.208,0.517 0.459,0.517 L 3.663,6.278 4.137,4.613 C 4.274,4.128 4.244,3.607 4.053,3.148 L 3.888,2.752 C 3.748,2.418 3.704,2.034 3.765,1.668 l 0.281,-1.694 z" /></g><g
           transform="translate(47.322,24.5246)"
           id="g354"><path
             id="path356"
             style="fill:#ffffff;fill-opacity:1;fill-rule:nonzero;stroke:none"
             d="m 0,0 c -0.319,0 -0.581,-0.287 -0.583,-0.641 -0.001,-0.164 0.053,-0.321 0.153,-0.441 0.109,-0.131 0.264,-0.206 0.425,-0.207 L 6.205,-1.33 6.359,-1.849 C 6.476,-2.246 6.455,-2.691 6.301,-3.07 L 6.185,-3.356 C 6.039,-3.714 5.986,-4.111 6.03,-4.503 l 0.209,-1.869 0.025,-0.22 0.222,-0.002 3.786,-0.025 0.297,-0.001 -0.049,0.292 -0.256,1.548 c -0.057,0.343 -0.016,0.703 0.114,1.016 l 0.166,0.396 c 0.203,0.486 0.234,1.035 0.088,1.547 L 10.184,-0.247 10.133,-0.066 9.945,-0.065 9.613,-0.063 6.159,-0.04 0.004,0 H 0.003 Z m 0,-0.25 c 0.001,0 0.001,0 0.002,0 l 6.155,-0.04 3.454,-0.023 0.333,-0.002 0.448,-1.575 c 0.129,-0.454 0.101,-0.951 -0.079,-1.382 L 10.148,-3.668 C 9.998,-4.025 9.953,-4.43 10.017,-4.821 l 0.257,-1.548 -3.787,0.025 -0.209,1.869 c -0.039,0.35 0.009,0.706 0.139,1.025 l 0.116,0.285 c 0.176,0.434 0.2,0.933 0.065,1.387 l -0.206,0.697 -6.395,0.042 c -0.184,10e-4 -0.332,0.179 -0.33,0.397 0.001,0.217 0.15,0.392 0.333,0.392" /></g></g></g><text
       id="text360"
       style="font-variant:normal;font-weight:500;font-stretch:normal;font-size:9px;font-family:'CMU Serif';-inkscape-font-specification:CMUSerif-Roman;writing-mode:lr-tb;fill:#f06ca1;fill-opacity:1;fill-rule:nonzero;stroke:none"
       transform="matrix(1,0,0,-1,74.7534,11.4185)"><tspan
         id="tspan358"
         y="0"
         x="0 3.546 7.0380001 11.538 15.057">start</tspan></text>
<g
       id="g362"><g
         clip-path="url(#clipPath368)"
         id="g364"><g
           transform="translate(84.4849,43.5679)"
           id="g370"><path
             id="path372"
             style="fill:#ecb3b8;fill-opacity:1;fill-rule:nonzero;stroke:none"
             d="M 0,0 C 6.54,0 11.842,-5.302 11.842,-11.842 11.842,-18.382 6.54,-23.684 0,-23.684 Z" /></g><g
           transform="translate(83.5591,19.8837)"
           id="g374"><path
             id="path376"
             style="fill:#e0eab5;fill-opacity:1;fill-rule:nonzero;stroke:none"
             d="m 0,0 c -6.54,0 -11.842,5.302 -11.842,11.842 0,6.54 5.302,11.842 11.842,11.842 z" /></g></g></g><text
       id="text380"
       style="font-style:italic;font-variant:normal;font-weight:500;font-stretch:normal;font-size:12px;font-family:'CMU Sans Serif';-inkscape-font-specification:CMUSansSerif-Oblique;writing-mode:lr-tb;fill:#3a4a52;fill-opacity:1;fill-rule:nonzero;stroke:none"
       transform="matrix(1,0,0,-1,73.7314,28.9043)"><tspan
         id="tspan378"
         y="0"
         x="0">θ</tspan></text>
<text
       id="text384"
       style="font-style:italic;font-variant:normal;font-weight:500;font-stretch:normal;font-size:6.99599981px;font-family:'CMU Serif';-inkscape-font-specification:CMUSerif-Italic;writing-mode:lr-tb;fill:#3a4a52;fill-opacity:1;fill-rule:nonzero;stroke:none"
       transform="matrix(1,0,0,-1,78.5313,24.9082)"><tspan
         id="tspan382"
         y="0"
         x="0 1.08438">l </tspan></text>
<text
       id="text388"
       style="font-style:italic;font-variant:normal;font-weight:500;font-stretch:normal;font-size:12px;font-family:'CMU Sans Serif';-inkscape-font-specification:CMUSansSerif-Oblique;writing-mode:lr-tb;fill:#3a4a52;fill-opacity:1;fill-rule:nonzero;stroke:none"
       transform="matrix(1,0,0,-1,84.623,28.9043)"><tspan
         id="tspan386"
         y="0"
         x="0">θ</tspan></text>
<text
       id="text392"
       style="font-style:italic;font-variant:normal;font-weight:500;font-stretch:normal;font-size:6.99599981px;font-family:'CMU Serif';-inkscape-font-specification:CMUSerif-Italic;writing-mode:lr-tb;fill:#3a4a52;fill-opacity:1;fill-rule:nonzero;stroke:none"
       transform="matrix(1,0,0,-1,89.4229,24.9082)"><tspan
         id="tspan390"
         y="0"
         x="0">r</tspan></text>
<g
       id="g394"><g
         clip-path="url(#clipPath400)"
         id="g396"><text
           id="text404"
           style="font-variant:normal;font-weight:500;font-stretch:normal;font-size:9px;font-family:'CMU Serif';-inkscape-font-specification:CMUSerif-Roman;writing-mode:lr-tb;fill:#7d949a;fill-opacity:1;fill-rule:nonzero;stroke:none"
           transform="matrix(1,0,0,-1,74.7544,0.9541)"><tspan
             id="tspan402"
             y="0"
             x="0 2.7449999 5.2379999 10.233 12.7215 16.2675">finish</tspan></text>
</g></g></g></svg>