<?xml version="1.0" encoding="UTF-8"?>
<svg id="layer" xmlns="http://www.w3.org/2000/svg" viewBox="0 0 633 109">
  <defs>
    <style>
      .cls-1 {
        fill: #cf123d;
      }

      .cls-2 {
        fill: #fff;
      }
    </style>
  </defs>
  <rect class="cls-2" width="633" height="109"/>
  <path class="cls-1" d="M66,73.01c-1.7,0-4.3-.3-4.3-4.9v-13.3h19.9v13.3c0,4.6-2.6,4.9-4.3,4.9v1h15.1v-1c-1.7,0-4.3-.3-4.3-4.9v-27.2c0-4.6,2.6-4.9,4.3-4.9v-1h-15.1v1c1.7,0,4.3.3,4.3,4.9v11h-19.9v-11c0-4.6,2.6-4.9,4.3-4.9v-1h-15.1v1c1.7,0,4.3.3,4.3,4.9v27.2c0,4.6-2.6,4.9-4.3,4.9v1h15.1v-1"/>
  <path class="cls-1" d="M20,37.71h5.2v30.4c0,4.6-2.6,4.9-4.3,4.9v1h15.1v-1c-1.7,0-4.3-.3-4.3-4.9v-30.4h5.3c5.6,0,5.9,2.9,6.6,4.9h1v-7.6H12.6v7.6h1c.6-2,.8-4.9,6.4-4.9"/>
  <path class="cls-1" d="M103.6,40.91v27.2c0,4.6-2.6,4.9-4.3,4.9v1h28.1v-7.8h-1c-.6,2.7-1.4,5-4.9,5h-11.3v-17.3h6.8c3.8,0,4.3,2.4,4.2,4.3h1l1.2-7.1.2-1.2h-.9c-.8,1-1.6,1.2-3.5,1.2h-8.9v-13.5h9.5c3.5,0,4.7,2.4,4.9,4.3h1v-7.1h-26.3v1c1.6.1,4.2.5,4.2,5.1"/>
  <path class="cls-1" d="M494.4,54.01v-13.1c0-4.6,2.6-4.9,4.3-4.9v-1h-15.1v1c1.7,0,4.3.3,4.3,4.9v27.2c0,4.6-2.6,4.9-4.3,4.9v1h15.1v-1c-1.7,0-4.3-.3-4.3-4.9v-14.1"/>
  <path class="cls-1" d="M550.9,35.01h-12.5v7.6h1c.7-2,.9-4.9,6.6-4.9h5.2v30.4c0,4.6-2.6,4.9-4.3,4.9v1h15.1v-1c-1.7,0-4.3-.3-4.3-4.9v-30.4h5.2c5.6,0,5.9,2.9,6.6,4.9h1v-7.6h-19.6"/>
  <path class="cls-1" d="M435.1,54.51c0-11.3-7.7-20.4-20.4-20.4s-20.4,9.1-20.4,20.4,7.7,20.4,20.4,20.4,20.4-9.1,20.4-20.4M415.5,72.11c-8.2.4-13.5-7.2-14-16.9-.5-9.7,4.1-17.9,12.3-18.3,8.2-.4,13.5,7.2,14,16.9.5,9.8-4.1,17.9-12.3,18.3"/>
  <path class="cls-1" d="M461.3,36.71c6.4,0,11.1,3.2,13.1,9h1v-9c-2.4-.8-8-2.6-13.4-2.6-7.7,0-12.3,2.1-16,5.5-5,4.6-6.1,11.3-6.1,14.8s1.1,10.3,6.1,14.8c3.7,3.4,8.3,5.5,16,5.5,5.4,0,11-1.8,13.4-2.6v-9h-1c-2,5.8-6.6,9-13.1,9-5.9,0-14.1-3.5-14.1-17.8,0-14.1,8.2-17.6,14.1-17.6"/>
  <path class="cls-1" d="M389.6,62.91c-.1-6.2-4.8-9-9.8-11.9-3.7-2.1-9.5-4.2-9.5-8.4,0-3.9,3.4-6,7.1-6,5.6,0,8.2,3.6,8.9,7.8h1.3v-7.9c-2.1-1-5.4-2.3-9.8-2.3-6.5,0-12.6,3.9-12.8,10.4-.1,5.8,3.3,7.9,10,11.6,4.4,2.4,9,5.7,9,9.3,0,4-3.6,6.7-8.2,6.7-7.9,0-9.8-6.1-10-9.6h-1.3v9.1c2.5,1.7,6.5,3.3,11.1,3.2,8.8,0,14-5.3,14-12"/>
  <path class="cls-1" d="M505.8,35.01v1c1.7,0,4.3.3,4.3,4.9v27.2c0,4.6-2.6,4.9-4.3,4.9v1h28v-7.8h-1c-.6,2.7-1.4,5-4.9,5h-11.3v-17.3h6.7c3.8,0,4.3,2.5,4.2,4.3h1l1.2-7.1.2-1.2h-.9c-.8,1-1.6,1.2-3.5,1.2h-8.8v-13.5h9.5c3.5,0,4.7,2.4,4.9,4.3h1v-7.1h-26.3"/>
  <path class="cls-1" d="M602.3,35.01v1c.8.2,2.5,1.2,1,4.1l-7.8,13.8-8.4-14.6c-1.2-2-.5-3.4.9-3.4v-1h-12.8v1c2.7,0,4.3,2.2,6.2,5.4l9.6,16v10.8c0,4.6-2.6,4.9-4.3,4.9v1h15.1v-1c-1.7,0-4.3-.3-4.3-4.9v-11.5l10.1-16.9c1.6-2.5,2.8-3.4,4.8-3.9v-1h-10.1"/>
  <path class="cls-1" d="M168.8,73.11c-1.7,0-4.3-.3-4.3-4.9v-10.1h5.4l6.6,9c3.5,4.9,9.5,10.5,17.4,7.1l-.2-.9c-2.4.5-5.7-1.4-9.1-5.3l-9.8-12.1c3.7-2.5,6.8-6.3,6.8-11.5,0-6.3-4.3-9.4-12.9-9.4h-15.1v1c1.7,0,4.3.3,4.3,4.9v27.3c0,4.6-2.6,4.9-4.3,4.9v1h15.1v-1M164.5,54.01v-16.6h3.1c5.3,0,7.9,3.9,7.9,9s-2.6,9-7.9,9h-3.1v-1.4Z"/>
  <path class="cls-1" d="M211.8,74.91c12.7,0,20.4-9.1,20.4-20.4s-7.7-20.4-20.4-20.4-20.4,9.1-20.4,20.4c0,11.3,7.7,20.4,20.4,20.4M210.9,37.01c8.2-.4,13.5,7.2,14,16.9.5,9.7-4.1,17.9-12.3,18.3s-13.5-7.2-14-16.9c-.4-9.8,4.2-17.9,12.3-18.3"/>
  <path class="cls-1" d="M238.3,41.31l9.6,16v10.8c0,4.6-2.6,4.9-4.3,4.9v1h15.1v-1c-1.7,0-4.3-.3-4.3-4.9v-11.5l10.1-16.9c1.6-2.4,4.8-3.9,6.3-3.9v-1h-12v1c.9,0,3.5.1,1.3,4.1l-7.7,14-8.5-14.8c-1.2-2-.5-3.4.9-3.4v-1h-13.6v1c2.6.2,5.1,2.5,7.1,5.6"/>
  <path class="cls-1" d="M266.3,73.11v1h11.8v-1c-2.7,0-3.1-1.5-2.5-3.4l2.5-6.9h13.9l2.7,7c.9,2.5.6,3.3-1.3,3.3v1h13.7v-1c-2.7,0-4.4-.9-6.4-5.4l-13.3-32.7h-1.8l-13.6,33.2c-1.8,4.7-3.7,4.9-5.7,4.9M291.1,60.21h-12l5.9-16.1,6.1,16.1Z"/>
  <path class="cls-1" d="M323.4,74.11h17.4v-7.8h-1c-.6,2.7-1.4,5-4.9,5h-11.5v-30.4c0-4.6,2.6-4.9,4.3-4.9v-1h-15.1v1c1.7,0,4.3.3,4.3,4.9v27.3c0,4.6-2.6,4.9-4.3,4.9v1h10.8"/>
</svg>