<?xml version="1.0" encoding="UTF-8" standalone="no"?>
<svg
   xmlns:dc="http://purl.org/dc/elements/1.1/"
   xmlns:cc="http://creativecommons.org/ns#"
   xmlns:rdf="http://www.w3.org/1999/02/22-rdf-syntax-ns#"
   xmlns:svg="http://www.w3.org/2000/svg"
   xmlns="http://www.w3.org/2000/svg"
   viewBox="0 0 397.17334 238.464"
   height="238.464"
   width="397.17334"
   xml:space="preserve"
   id="svg2"
   version="1.1"><metadata
     id="metadata8"><rdf:RDF><cc:Work
         rdf:about=""><dc:format>image/svg+xml</dc:format><dc:type
           rdf:resource="http://purl.org/dc/dcmitype/StillImage" /></cc:Work></rdf:RDF></metadata><defs
     id="defs6"><clipPath
       id="clipPath34"
       clipPathUnits="userSpaceOnUse"><path
         id="path32"
         d="M 0,178.848 H 297.88 V 0 H 0 Z" /></clipPath><clipPath
       id="clipPath62"
       clipPathUnits="userSpaceOnUse"><path
         id="path60"
         d="M 1.41505,149.674 H 291.794 V 10.3811 H 1.41505 Z" /></clipPath><clipPath
       id="clipPath142"
       clipPathUnits="userSpaceOnUse"><path
         id="path140"
         d="M 0,178.848 H 297.88 V 0 H 0 Z" /></clipPath><clipPath
       id="clipPath150"
       clipPathUnits="userSpaceOnUse"><path
         id="path148"
         d="M 202.044,147.804 H 297.88 V 17.7526 h -95.836 z" /></clipPath><clipPath
       id="clipPath178"
       clipPathUnits="userSpaceOnUse"><path
         id="path176"
         d="M 0,178.848 H 297.88 V 0 H 0 Z" /></clipPath><clipPath
       id="clipPath214"
       clipPathUnits="userSpaceOnUse"><path
         id="path212"
         d="M 0,178.848 H 297.88 V 0 H 0 Z" /></clipPath><clipPath
       id="clipPath222"
       clipPathUnits="userSpaceOnUse"><path
         id="path220"
         d="M 45.9558,170.426 H 151.622 V 83.6019 H 45.9558 Z" /></clipPath><clipPath
       id="clipPath226"
       clipPathUnits="userSpaceOnUse"><path
         id="path224"
         d="M 45.9556,170.426 H 151.622 V 83.6021 H 45.9556 Z" /></clipPath><mask
       id="mask228"
       height="1"
       width="1"
       y="0"
       x="0"
       maskUnits="userSpaceOnUse"><g
         id="g252"><g
           id="g250"
           clip-path="url(#clipPath222)"><path
             id="path230"
             style="fill:#000000;fill-opacity:1;fill-rule:nonzero;stroke:none"
             d="M 45.956,170.426 H 151.623 V 83.602 H 45.956 Z" /><g
             id="g248"><g
               id="g232" /><g
               id="g246"><g
                 id="g244"
                 clip-path="url(#clipPath226)"><path
                   id="path234"
                   style="fill:#ffffff;fill-opacity:1;fill-rule:nonzero;stroke:none"
                   d="M 189.744,68.752 H -5.955 v 130.195 h 195.699 z" /><g
                   id="g238"
                   transform="translate(27.4268,141.0503)"><path
                     id="path236"
                     style="fill:none;stroke:#100f0d;stroke-width:3;stroke-linecap:butt;stroke-linejoin:miter;stroke-miterlimit:10;stroke-dasharray:none;stroke-opacity:1"
                     d="M 0,0 120.227,28.782" /></g><g
                   id="g242"
                   transform="translate(147.4985,166.7187)"><path
                     id="path240"
                     style="fill:#100f0d;fill-opacity:1;fill-rule:nonzero;stroke:none"
                     d="M 0,0 4.342,4.115 -1.393,5.819 Z" /></g></g></g></g></g></g></mask><clipPath
       id="clipPath260"
       clipPathUnits="userSpaceOnUse"><path
         id="path258"
         d="M 45.9558,170.426 H 151.622 V 83.6019 H 45.9558 Z" /></clipPath><clipPath
       id="clipPath296"
       clipPathUnits="userSpaceOnUse"><path
         id="path294"
         d="M 0,178.848 H 297.88 V 0 H 0 Z" /></clipPath><clipPath
       id="clipPath440"
       clipPathUnits="userSpaceOnUse"><path
         id="path438"
         d="M 0,178.848 H 297.88 V 0 H 0 Z" /></clipPath></defs><g
     transform="matrix(1.3333333,0,0,-1.3333333,0,238.464)"
     id="g10"><g
       transform="translate(27.4268,141.0502)"
       id="g12"><path
         id="path14"
         style="fill:none;stroke:#799398;stroke-width:2;stroke-linecap:butt;stroke-linejoin:miter;stroke-miterlimit:10;stroke-dasharray:none;stroke-opacity:1"
         d="M 0,0 24.845,-60.63" /></g><g
       transform="translate(27.4268,141.0502)"
       id="g16"><path
         id="path18"
         style="fill:none;stroke:#799398;stroke-width:2;stroke-linecap:butt;stroke-linejoin:miter;stroke-miterlimit:10;stroke-dasharray:none;stroke-opacity:1"
         d="M 0,0 120.336,28.808" /></g><g
       transform="translate(147.6598,167.7827)"
       id="g20"><path
         id="path22"
         style="fill:#799398;fill-opacity:1;fill-rule:nonzero;stroke:none"
         d="M 0,0 2.895,2.743 -0.929,3.879 Z" /></g><g
       transform="translate(132.2998,67.3765)"
       id="g24"><path
         id="path26"
         style="fill:none;stroke:#799398;stroke-width:2;stroke-linecap:butt;stroke-linejoin:miter;stroke-miterlimit:10;stroke-dasharray:none;stroke-opacity:1"
         d="M 0,0 119.479,8.073" /></g><g
       id="g28"><g
         clip-path="url(#clipPath34)"
         id="g30"><g
           transform="translate(132.4519,65.1258)"
           id="g36"><path
             id="path38"
             style="fill:#ffffff;fill-opacity:1;fill-rule:nonzero;stroke:none"
             d="M 0,0 C -1.243,-0.084 -2.319,0.856 -2.403,2.099 -2.487,3.342 -1.547,4.417 -0.304,4.501 0.939,4.585 2.015,3.646 2.099,2.403 2.183,1.16 1.243,0.084 0,0" /></g><g
           transform="translate(132.168,69.3279)"
           id="g40"><path
             id="path42"
             style="fill:#799398;fill-opacity:1;fill-rule:nonzero;stroke:none"
             d="M 0,0 C 1.076,0.073 2.011,-0.743 2.083,-1.82 2.156,-2.896 1.34,-3.83 0.264,-3.903 -0.813,-3.976 -1.747,-3.16 -1.82,-2.083 -1.892,-1.007 -1.076,-0.073 0,0 1.076,0.073 -1.076,-0.073 0,0 m 0.304,-4.501 c 1.406,0.095 2.473,1.316 2.378,2.722 -0.095,1.406 -1.317,2.473 -2.722,2.378 -1.406,-0.095 -2.473,-1.317 -2.378,-2.723 0.095,-1.406 1.316,-2.472 2.722,-2.377 1.406,0.095 -1.406,-0.095 0,0" /></g><g
           transform="translate(251.3311,73.4208)"
           id="g44"><path
             id="path46"
             style="fill:#799398;fill-opacity:1;fill-rule:nonzero;stroke:none"
             d="M 0,0 3.312,2.222 -0.269,3.98 Z" /></g><g
           transform="translate(27.4268,141.0502)"
           id="g48"><path
             id="path50"
             style="fill:none;stroke:#799398;stroke-width:2;stroke-linecap:butt;stroke-linejoin:miter;stroke-miterlimit:10;stroke-dasharray:none;stroke-opacity:1"
             d="M 0,0 102.777,-72.201" /></g><g
           transform="translate(128.5795,67.5528)"
           id="g52"><path
             id="path54"
             style="fill:#799398;fill-opacity:1;fill-rule:nonzero;stroke:none"
             d="M 0,0 3.973,-0.354 2.293,3.264 Z" /></g><g
           id="g56"><g
             id="g58" /><g
             id="g70"><g
               style="opacity:0.53999299"
               id="g68"
               clip-path="url(#clipPath62)"><g
                 id="g66"
                 transform="translate(271.1185,130.7401)"><path
                   id="path64"
                   style="fill:#fbdf5b;fill-opacity:1;fill-rule:nonzero;stroke:none"
                   d="m 0,0 c 20.671,-17.868 32.851,-60.107 1.994,-100.233 -15.487,-20.139 -50.272,-23.335 -75.737,-17.557 -19.874,4.508 -56.869,20.994 -76.958,23.731 -12.112,1.651 -45.047,-10.887 -61.876,-11.133 -19.458,-0.285 -36.113,4.069 -46.09,15.471 -12.5,14.285 -15.14,45.723 -3.989,60.732 2.742,3.691 5.943,6.962 9.498,9.811 12.175,9.754 29.508,14.574 46.97,13.48 12.159,-0.761 38.431,-6.621 62.016,-3.92 C -124.58,-7.375 -54.008,46.684 0,0" /></g></g></g></g><g
           transform="translate(119.4435,43.2557)"
           id="g72"><path
             id="path74"
             style="fill:#eea6b6;fill-opacity:1;fill-rule:nonzero;stroke:none"
             d="m 0,0 c 9.159,-8.064 20.067,-14.35 31.539,-19.286 5.752,-2.467 11.694,-4.545 17.736,-6.339 l 2.264,-0.684 2.287,-0.614 c 1.529,-0.393 3.042,-0.847 4.586,-1.193 l 4.622,-1.079 4.592,-0.991 c 6.122,-1.243 12.305,-2.102 18.482,-2.273 6.18,-0.256 12.332,0.316 18.279,1.724 5.919,1.462 11.647,3.812 16.747,7.339 2.536,1.771 4.93,3.803 7.099,6.109 2.169,2.305 4.151,4.853 5.717,7.731 -0.633,-3.241 -2.043,-6.319 -3.74,-9.214 -1.749,-2.87 -3.856,-5.574 -6.313,-7.953 -2.436,-2.405 -5.209,-4.482 -8.163,-6.256 -2.956,-1.782 -6.125,-3.176 -9.36,-4.372 -6.521,-2.226 -13.358,-3.409 -20.159,-3.736 -6.81,-0.305 -13.6,0.109 -20.273,1.038 -1.658,0.267 -3.34,0.486 -4.981,0.798 l -4.889,1.01 c -1.633,0.323 -3.245,0.759 -4.869,1.134 l -2.432,0.587 -2.416,0.662 c -6.444,1.76 -12.818,3.865 -19.053,6.394 -6.24,2.518 -12.33,5.483 -18.176,8.94 -5.853,3.441 -11.469,7.363 -16.697,11.865 z" /></g><g
           transform="translate(109.8116,28.7603)"
           id="g76"><path
             id="path78"
             style="fill:#eea6b6;fill-opacity:1;fill-rule:nonzero;stroke:none"
             d="m 0,0 -5.331,22.397 22.063,-6.58 z" /></g><g
           transform="translate(27.4268,141.0502)"
           id="g80"><path
             id="path82"
             style="fill:#ffffff;fill-opacity:1;fill-rule:nonzero;stroke:#37454f;stroke-width:4;stroke-linecap:butt;stroke-linejoin:miter;stroke-miterlimit:10;stroke-dasharray:none;stroke-opacity:1"
             d="M 0,0 H 21.112" /></g><g
           transform="translate(27.4268,136.5385)"
           id="g84"><path
             id="path86"
             style="fill:#ffffff;fill-opacity:1;fill-rule:nonzero;stroke:none"
             d="m 0,0 c -2.491,0 -4.512,2.02 -4.512,4.512 0,2.491 2.021,4.511 4.512,4.511 2.491,0 4.512,-2.02 4.512,-4.511 C 4.512,2.02 2.491,0 0,0" /></g><g
           transform="translate(27.4268,144.962)"
           id="g88"><path
             id="path90"
             style="fill:#37454f;fill-opacity:1;fill-rule:nonzero;stroke:none"
             d="m 0,0 c 2.157,0 3.912,-1.754 3.912,-3.912 0,-2.157 -1.755,-3.911 -3.912,-3.911 -2.157,0 -3.912,1.754 -3.912,3.911 C -3.912,-1.754 -2.157,0 0,0 2.157,0 -2.157,0 0,0 m 0,-9.023 c 2.818,0 5.112,2.293 5.112,5.111 C 5.112,-1.093 2.818,1.2 0,1.2 c -2.818,0 -5.112,-2.293 -5.112,-5.112 0,-2.818 2.294,-5.111 5.112,-5.111 2.818,0 -2.818,0 0,0" /></g><g
           transform="translate(46.7878,135.0672)"
           id="g92"><path
             id="path94"
             style="fill:#37454f;fill-opacity:1;fill-rule:nonzero;stroke:none"
             d="M 0,0 10.362,5.982 0,11.966 Z" /></g><g
           transform="translate(17.4297,130.7401)"
           id="g96"><path
             id="path98"
             style="fill:#ffffff;fill-opacity:1;fill-rule:nonzero;stroke:#37454f;stroke-width:4;stroke-linecap:butt;stroke-linejoin:miter;stroke-miterlimit:10;stroke-dasharray:none;stroke-opacity:1"
             d="M 0,0 9.997,10.31" /></g><g
           transform="translate(22.9438,127.8322)"
           id="g100"><path
             id="path102"
             style="fill:#37454f;fill-opacity:1;fill-rule:nonzero;stroke:none"
             d="M 0,0 -11.508,-3.274 -8.591,8.33 Z" /></g><g
           transform="translate(30.6659,137.9095)"
           id="g104"><path
             id="path106"
             style="fill:#ffffff;fill-opacity:1;fill-rule:nonzero;stroke:none"
             d="M 0,0 C 1.734,1.789 1.69,4.645 -0.098,6.38 -1.887,8.114 -4.744,8.07 -6.478,6.281 -8.212,4.493 -8.168,1.636 -6.38,-0.098 -4.591,-1.833 -1.734,-1.789 0,0" /></g><g
           transform="translate(24.6185,143.7733)"
           id="g108"><path
             id="path110"
             style="fill:#37454f;fill-opacity:1;fill-rule:nonzero;stroke:none"
             d="M 0,0 C -1.502,-1.549 -1.464,-4.029 0.085,-5.531 1.634,-7.033 4.115,-6.995 5.617,-5.446 7.118,-3.897 7.08,-1.417 5.531,0.085 3.983,1.587 1.502,1.549 0,0 -1.502,-1.549 1.502,1.549 0,0 M 6.478,-6.281 C 4.516,-8.305 1.273,-8.355 -0.75,-6.393 -2.773,-4.431 -2.823,-1.188 -0.862,0.835 1.1,2.859 4.343,2.909 6.367,0.947 8.39,-1.015 8.44,-4.258 6.478,-6.281 c -1.962,-2.024 1.962,2.023 0,0" /></g><g
           transform="translate(27.4268,141.0502)"
           id="g112"><path
             id="path114"
             style="fill:#ffffff;fill-opacity:1;fill-rule:nonzero;stroke:#37454f;stroke-width:4;stroke-linecap:butt;stroke-linejoin:miter;stroke-miterlimit:10;stroke-dasharray:none;stroke-opacity:1"
             d="M 0,0 V 23.83" /></g><g
           transform="translate(31.9385,141.0502)"
           id="g116"><path
             id="path118"
             style="fill:#ffffff;fill-opacity:1;fill-rule:nonzero;stroke:none"
             d="m 0,0 c 0,-2.491 -2.02,-4.512 -4.512,-4.512 -2.491,0 -4.511,2.021 -4.511,4.512 0,2.491 2.02,4.512 4.511,4.512 C -2.02,4.512 0,2.491 0,0" /></g><g
           transform="translate(23.5151,141.0502)"
           id="g120"><path
             id="path122"
             style="fill:#37454f;fill-opacity:1;fill-rule:nonzero;stroke:none"
             d="M 0,0 C 0,2.157 1.754,3.912 3.912,3.912 6.069,3.912 7.823,2.157 7.823,0 7.823,-2.157 6.069,-3.912 3.912,-3.912 1.754,-3.912 0,-2.157 0,0 0,2.157 0,-2.157 0,0 M 9.023,0 C 9.023,2.818 6.73,5.112 3.912,5.112 1.093,5.112 -1.2,2.818 -1.2,0 c 0,-2.818 2.293,-5.112 5.112,-5.112 2.818,0 5.111,2.294 5.111,5.112 0,2.818 0,-2.818 0,0" /></g><g
           transform="translate(33.4098,163.1294)"
           id="g124"><path
             id="path126"
             style="fill:#37454f;fill-opacity:1;fill-rule:nonzero;stroke:none"
             d="M 0,0 -5.982,10.362 -11.966,0 Z" /></g></g></g><g
       transform="translate(0,54.59)"
       id="g128"><path
         id="path130"
         style="fill:#b6e1f7;fill-opacity:1;fill-rule:nonzero;stroke:none"
         d="M 0,0 V -1.21 L 92.584,-3.932 52.573,54 Z" /></g><g
       transform="translate(0,56.741)"
       id="g132"><path
         id="path134"
         style="fill:#ffffff;fill-opacity:1;fill-rule:nonzero;stroke:none"
         d="M 0,0 V -4.862 L 95.503,-7.669 52.771,54.201 Z M 2.309,-1.928 52.375,49.495 89.665,-4.496 Z" /></g><g
       id="g136"><g
         clip-path="url(#clipPath142)"
         id="g138"><g
           id="g144"><g
             id="g146" /><g
             id="g162"><g
               style="opacity:0.72000098"
               id="g160"
               clip-path="url(#clipPath150)"><g
                 id="g154"
                 transform="translate(203.9243,63.1933)"><path
                   id="path152"
                   style="fill:#a2caed;fill-opacity:1;fill-rule:nonzero;stroke:none"
                   d="M 0,0 29.437,80.815 90.701,-42.269 Z" /></g><g
                 id="g158"
                 transform="translate(233.1473,147.8041)"><path
                   id="path156"
                   style="fill:#ffffff;fill-opacity:1;fill-rule:nonzero;stroke:none"
                   d="m 0,0 -31.103,-85.389 95.835,-44.662 z m 0.428,-7.592 57.796,-116.117 -85.567,39.877 z" /></g></g></g></g></g></g><g
       transform="translate(202.0446,62.415)"
       id="g164"><path
         id="path166"
         style="fill:#ffffff;fill-opacity:1;fill-rule:nonzero;stroke:none"
         d="M 0,0 95.835,-44.663 31.103,85.389 Z M 3.76,1.557 31.531,77.798 89.327,-38.319 Z" /></g><g
       transform="translate(241.8898,79.4424)"
       id="g168"><path
         id="path170"
         style="fill:none;stroke:#ffffff;stroke-width:12;stroke-linecap:round;stroke-linejoin:miter;stroke-miterlimit:10;stroke-dasharray:none;stroke-opacity:1"
         d="m 0,0 -28.055,13.859 -16.954,35.405 -34.843,10.732 -36.912,-22.507 -23.351,4.533 -49.503,-41.044" /></g><g
       id="g172"><g
         clip-path="url(#clipPath178)"
         id="g174"><g
           transform="translate(54.237,71.2289)"
           id="g180"><path
             id="path182"
             style="fill:#ffffff;fill-opacity:1;fill-rule:nonzero;stroke:none"
             d="m 0,0 c -5.076,-1.085 -10.072,2.151 -11.157,7.226 -1.085,5.076 2.15,10.072 7.226,11.157 C 1.145,19.469 6.141,16.233 7.226,11.157 8.311,6.081 5.076,1.085 0,0" /></g><g
           transform="translate(54.237,71.2289)"
           id="g184"><path
             id="path186"
             style="fill:none;stroke:#ffffff;stroke-width:2;stroke-linecap:butt;stroke-linejoin:miter;stroke-miterlimit:10;stroke-dasharray:none;stroke-opacity:1"
             d="m 0,0 c -5.076,-1.085 -10.072,2.151 -11.157,7.226 -1.085,5.076 2.15,10.072 7.226,11.157 C 1.145,19.469 6.141,16.233 7.226,11.157 8.311,6.081 5.076,1.085 0,0 Z" /></g><g
           transform="translate(231.8865,70.6328)"
           id="g188"><path
             id="path190"
             style="fill:#ffffff;fill-opacity:1;fill-rule:nonzero;stroke:none"
             d="M 0,0 24.914,0.771 11.791,21.965 Z" /></g><g
           transform="translate(231.8865,70.6328)"
           id="g192"><path
             id="path194"
             style="fill:none;stroke:#ffffff;stroke-width:2;stroke-linecap:butt;stroke-linejoin:miter;stroke-miterlimit:10;stroke-dasharray:none;stroke-opacity:1"
             d="M 0,0 24.914,0.771 11.791,21.965 Z" /></g><g
           transform="translate(241.8898,79.4424)"
           id="g196"><path
             id="path198"
             style="fill:none;stroke:#69cdd7;stroke-width:7;stroke-linecap:round;stroke-linejoin:miter;stroke-miterlimit:10;stroke-dasharray:none;stroke-opacity:1"
             d="m 0,0 -28.055,13.859 -16.954,35.405 -34.843,10.732 -36.912,-22.507 -23.351,4.533 -49.503,-41.044" /></g><g
           transform="translate(243.4649,88.396)"
           id="g200"><path
             id="path202"
             style="fill:#69cdd7;fill-opacity:1;fill-rule:nonzero;stroke:none"
             d="M 0,0 9.684,-14.514 -7.729,-15.646 Z" /></g><g
           transform="translate(48.072,85.4856)"
           id="g204"><path
             id="path206"
             style="fill:#69cdd7;fill-opacity:1;fill-rule:nonzero;stroke:none"
             d="m 0,0 c -2.797,-2.319 -3.185,-6.468 -0.866,-9.265 2.32,-2.797 6.468,-3.184 9.265,-0.865 2.797,2.319 3.185,6.468 0.866,9.264 C 6.946,1.931 2.797,2.319 0,0" /></g></g></g><g
       id="g208"><g
         clip-path="url(#clipPath214)"
         id="g210"><g
           id="g216"><g
             id="g218" /><g
             mask="url(#mask228)"
             id="g254"><g
               id="g256" /><g
               id="g280"><g
                 id="g278"
                 clip-path="url(#clipPath260)"><g
                   id="g264"
                   transform="translate(51.0653,88.7114)"><path
                     id="path262"
                     style="fill:#ffffff;fill-opacity:1;fill-rule:nonzero;stroke:#71cda0;stroke-width:4;stroke-linecap:butt;stroke-linejoin:miter;stroke-miterlimit:10;stroke-dasharray:none;stroke-opacity:1"
                     d="M 0,0 93.874,76.285" /></g><g
                   id="g268"
                   transform="translate(53.9106,85.2101)"><path
                     id="path266"
                     style="fill:#ffffff;fill-opacity:1;fill-rule:nonzero;stroke:none"
                     d="M 0,0 C -1.934,-1.571 -4.776,-1.277 -6.347,0.656 -7.918,2.59 -7.624,5.432 -5.691,7.003 -3.757,8.574 -0.915,8.28 0.656,6.347 2.227,4.413 1.933,1.571 0,0" /></g><g
                   id="g272"
                   transform="translate(48.5983,91.7472)"><path
                     id="path270"
                     style="fill:#71cda0;fill-opacity:1;fill-rule:nonzero;stroke:none"
                     d="M 0,0 C 1.674,1.361 4.142,1.105 5.503,-0.569 6.863,-2.243 6.608,-4.711 4.934,-6.072 3.26,-7.432 0.792,-7.177 -0.569,-5.503 -1.929,-3.828 -1.674,-1.361 0,0 1.674,1.361 -1.674,-1.361 0,0 m 5.691,-7.003 c 2.187,1.778 2.52,5.004 0.743,7.191 C 4.657,2.375 1.43,2.709 -0.757,0.931 -2.944,-0.846 -3.278,-4.072 -1.5,-6.26 c 1.777,-2.187 5.003,-2.52 7.191,-0.743 2.187,1.778 -2.188,-1.777 0,0" /></g><g
                   id="g276"
                   transform="translate(147.3534,159.249)"><path
                     id="path274"
                     style="fill:#71cda0;fill-opacity:1;fill-rule:nonzero;stroke:none"
                     d="M 0,0 4.268,11.177 -7.546,9.286 Z" /></g></g></g></g></g></g></g><g
       transform="translate(251.7789,75.4499)"
       id="g282"><path
         id="path284"
         style="fill:#ffffff;fill-opacity:1;fill-rule:nonzero;stroke:none"
         d="M 0,0 5.022,-57.697" /></g><g
       transform="translate(251.779,75.4499)"
       id="g286"><path
         id="path288"
         style="fill:none;stroke:#ed1c24;stroke-width:4;stroke-linecap:butt;stroke-linejoin:miter;stroke-miterlimit:10;stroke-dasharray:none;stroke-opacity:1"
         d="M 0,0 5.022,-57.697" /></g><g
       id="g290"><g
         clip-path="url(#clipPath296)"
         id="g292"><g
           transform="translate(247.2842,75.0587)"
           id="g298"><path
             id="path300"
             style="fill:#ffffff;fill-opacity:1;fill-rule:nonzero;stroke:none"
             d="M 0,0 C -0.216,2.482 1.621,4.67 4.104,4.886 6.586,5.102 8.773,3.265 8.989,0.782 9.205,-1.7 7.368,-3.887 4.886,-4.103 2.404,-4.319 0.216,-2.482 0,0" /></g><g
           transform="translate(255.6759,75.7891)"
           id="g302"><path
             id="path304"
             style="fill:#ed1c24;fill-opacity:1;fill-rule:nonzero;stroke:none"
             d="m 0,0 c 0.187,-2.149 -1.409,-4.049 -3.558,-4.236 -2.149,-0.187 -4.049,1.408 -4.236,3.558 -0.187,2.149 1.409,4.049 3.558,4.236 C -2.087,3.745 -0.187,2.149 0,0 0.187,-2.149 -0.187,2.149 0,0 m -8.989,-0.782 c 0.244,-2.808 2.728,-4.894 5.535,-4.65 2.808,0.245 4.894,2.728 4.649,5.536 -0.244,2.808 -2.728,4.894 -5.535,4.649 -2.808,-0.244 -4.894,-2.728 -4.649,-5.535 0.244,-2.808 -0.245,2.807 0,0" /></g><g
           transform="translate(250.6887,18.978)"
           id="g306"><path
             id="path308"
             style="fill:#ed1c24;fill-opacity:1;fill-rule:nonzero;stroke:none"
             d="M 0,0 6.858,-9.804 11.921,1.038 Z" /></g><g
           transform="translate(51.0653,88.7114)"
           id="g310"><path
             id="path312"
             style="fill:#ffffff;fill-opacity:1;fill-rule:nonzero;stroke:#ed1c24;stroke-width:4;stroke-linecap:butt;stroke-linejoin:miter;stroke-miterlimit:10;stroke-dasharray:none;stroke-opacity:1"
             d="M 0,0 49.626,-28.892" /></g><g
           transform="translate(48.7953,84.8124)"
           id="g314"><path
             id="path316"
             style="fill:#ffffff;fill-opacity:1;fill-rule:nonzero;stroke:none"
             d="M 0,0 C -2.153,1.254 -2.883,4.016 -1.629,6.169 -0.376,8.322 2.387,9.052 4.54,7.798 6.693,6.545 7.423,3.782 6.169,1.629 4.916,-0.524 2.153,-1.253 0,0" /></g><g
           transform="translate(53.0334,92.092)"
           id="g318"><path
             id="path320"
             style="fill:#ed1c24;fill-opacity:1;fill-rule:nonzero;stroke:none"
             d="M 0,0 C 1.864,-1.085 2.498,-3.484 1.412,-5.349 0.327,-7.213 -2.072,-7.847 -3.936,-6.761 -5.801,-5.676 -6.434,-3.277 -5.349,-1.412 -4.263,0.452 -1.865,1.085 0,0 1.864,-1.085 -1.865,1.085 0,0 m -4.54,-7.798 c 2.436,-1.418 5.571,-0.59 6.989,1.846 1.418,2.435 0.59,5.571 -1.845,6.989 -2.436,1.418 -5.572,0.59 -6.99,-1.846 -1.418,-2.435 -0.59,-5.571 1.846,-6.989 2.436,-1.418 -2.436,1.418 0,0" /></g><g
           transform="translate(96.1684,55.5299)"
           id="g322"><path
             id="path324"
             style="fill:#ed1c24;fill-opacity:1;fill-rule:nonzero;stroke:none"
             d="M 0,0 11.965,-0.043 6.02,10.341 Z" /></g><g
           transform="translate(51.0653,88.7114)"
           id="g326"><path
             id="path328"
             style="fill:#ffffff;fill-opacity:1;fill-rule:nonzero;stroke:#ec738d;stroke-width:4;stroke-linecap:butt;stroke-linejoin:miter;stroke-miterlimit:10;stroke-dasharray:none;stroke-opacity:1"
             d="M 0,0 22.219,18.251" /></g><g
           transform="translate(53.9289,85.225)"
           id="g330"><path
             id="path332"
             style="fill:#ffffff;fill-opacity:1;fill-rule:nonzero;stroke:none"
             d="m 0,0 c -1.925,-1.581 -4.769,-1.302 -6.35,0.623 -1.581,1.925 -1.303,4.768 0.623,6.35 1.925,1.581 4.768,1.302 6.35,-0.623 C 2.204,4.425 1.925,1.581 0,0" /></g><g
           transform="translate(48.5824,91.7342)"
           id="g334"><path
             id="path336"
             style="fill:#ec738d;fill-opacity:1;fill-rule:nonzero;stroke:none"
             d="M 0,0 C 1.667,1.369 4.136,1.127 5.506,-0.54 6.875,-2.207 6.633,-4.676 4.966,-6.046 3.298,-7.415 0.829,-7.173 -0.54,-5.506 -1.909,-3.838 -1.667,-1.369 0,0 1.667,1.369 -1.667,-1.369 0,0 M 5.727,-6.973 C 7.905,-5.184 8.222,-1.956 6.433,0.222 4.644,2.4 1.416,2.716 -0.762,0.927 -2.94,-0.862 -3.256,-4.089 -1.467,-6.267 c 1.789,-2.178 5.016,-2.495 7.194,-0.706 2.178,1.789 -2.178,-1.789 0,0" /></g><g
           transform="translate(75.7293,101.2274)"
           id="g338"><path
             id="path340"
             style="fill:#ec738d;fill-opacity:1;fill-rule:nonzero;stroke:none"
             d="M 0,0 4.21,11.2 -7.595,9.247 Z" /></g><g
           transform="translate(39.5855,102.456)"
           id="g342"><path
             id="path344"
             style="fill:#ffffff;fill-opacity:1;fill-rule:nonzero;stroke:#ec738d;stroke-width:4;stroke-linecap:butt;stroke-linejoin:miter;stroke-miterlimit:10;stroke-dasharray:none;stroke-opacity:1"
             d="M 0,0 11.48,-13.745" /></g><g
           transform="translate(36.1158,97.2769)"
           id="g346"><path
             id="path348"
             style="fill:#ec738d;fill-opacity:1;fill-rule:nonzero;stroke:none"
             d="M 0,0 -2.051,11.788 9.184,7.671 Z" /></g><g
           transform="translate(47.6025,85.8192)"
           id="g350"><path
             id="path352"
             style="fill:#ffffff;fill-opacity:1;fill-rule:nonzero;stroke:none"
             d="M 0,0 C 1.597,-1.912 4.443,-2.168 6.355,-0.571 8.267,1.026 8.523,3.872 6.926,5.784 5.329,7.697 2.483,7.952 0.571,6.355 -1.342,4.758 -1.597,1.912 0,0" /></g><g
           transform="translate(54.0676,91.219)"
           id="g354"><path
             id="path356"
             style="fill:#ec738d;fill-opacity:1;fill-rule:nonzero;stroke:none"
             d="m 0,0 c -1.383,1.656 -3.854,1.878 -5.51,0.495 -1.656,-1.383 -1.878,-3.854 -0.495,-5.51 1.383,-1.656 3.854,-1.878 5.51,-0.495 C 1.161,-4.127 1.383,-1.656 0,0 -1.383,1.656 1.383,-1.656 0,0 m -6.926,-5.784 c -1.806,2.163 -1.516,5.393 0.647,7.2 2.163,1.806 5.393,1.516 7.2,-0.647 1.807,-2.163 1.517,-5.393 -0.646,-7.2 -2.164,-1.807 -5.394,-1.517 -7.201,0.647 -1.806,2.163 1.807,-2.164 0,0" /></g><g
           transform="translate(51.0653,88.7114)"
           id="g358"><path
             id="path360"
             style="fill:#ffffff;fill-opacity:1;fill-rule:nonzero;stroke:#ec738d;stroke-width:4;stroke-linecap:butt;stroke-linejoin:miter;stroke-miterlimit:10;stroke-dasharray:none;stroke-opacity:1"
             d="M 0,0 V 35.217" /></g><g
           transform="translate(55.577,88.7114)"
           id="g362"><path
             id="path364"
             style="fill:#ffffff;fill-opacity:1;fill-rule:nonzero;stroke:none"
             d="m 0,0 c 0,-2.491 -2.02,-4.512 -4.512,-4.512 -2.491,0 -4.511,2.021 -4.511,4.512 0,2.491 2.02,4.512 4.511,4.512 C -2.02,4.512 0,2.491 0,0" /></g><g
           transform="translate(47.1535,88.7114)"
           id="g366"><path
             id="path368"
             style="fill:#ec738d;fill-opacity:1;fill-rule:nonzero;stroke:none"
             d="M 0,0 C 0,2.157 1.754,3.912 3.912,3.912 6.069,3.912 7.823,2.157 7.823,0 7.823,-2.157 6.069,-3.912 3.912,-3.912 1.754,-3.912 0,-2.157 0,0 0,2.157 0,-2.157 0,0 M 9.023,0 C 9.023,2.818 6.73,5.112 3.912,5.112 1.093,5.112 -1.2,2.818 -1.2,0 c 0,-2.818 2.293,-5.112 5.112,-5.112 2.818,0 5.111,2.294 5.111,5.112 0,2.818 0,-2.818 0,0" /></g><g
           transform="translate(57.0483,122.1781)"
           id="g370"><path
             id="path372"
             style="fill:#ec738d;fill-opacity:1;fill-rule:nonzero;stroke:none"
             d="M 0,0 -5.982,10.362 -11.966,0 Z" /></g><g
           transform="translate(251.7789,75.4499)"
           id="g374"><path
             id="path376"
             style="fill:#ffffff;fill-opacity:1;fill-rule:nonzero;stroke:none"
             d="M 0,0 21.334,-9.631" /></g><g
           transform="translate(251.779,75.4499)"
           id="g378"><path
             id="path380"
             style="fill:none;stroke:#ec738d;stroke-width:4;stroke-linecap:butt;stroke-linejoin:miter;stroke-miterlimit:10;stroke-dasharray:none;stroke-opacity:1"
             d="M 0,0 21.334,-9.631" /></g><g
           transform="translate(249.9226,71.3378)"
           id="g382"><path
             id="path384"
             style="fill:#ffffff;fill-opacity:1;fill-rule:nonzero;stroke:none"
             d="m 0,0 c -2.271,1.025 -3.281,3.698 -2.256,5.969 1.025,2.27 3.698,3.28 5.969,2.255 C 5.983,7.199 6.994,4.527 5.968,2.256 4.943,-0.015 2.271,-1.025 0,0" /></g><g
           transform="translate(253.3884,79.0152)"
           id="g386"><path
             id="path388"
             style="fill:#ec738d;fill-opacity:1;fill-rule:nonzero;stroke:none"
             d="M 0,0 C 1.966,-0.888 2.843,-3.208 1.956,-5.175 1.068,-7.141 -1.253,-8.018 -3.219,-7.131 -5.185,-6.243 -6.062,-3.922 -5.175,-1.956 -4.287,0.011 -1.966,0.888 0,0 1.966,-0.888 -1.966,0.888 0,0 m -3.713,-8.224 c 2.569,-1.16 5.603,-0.013 6.762,2.556 1.16,2.568 0.013,5.602 -2.555,6.762 -2.569,1.159 -5.603,0.013 -6.763,-2.556 -1.159,-2.569 -0.013,-5.603 2.556,-6.762 2.569,-1.16 -2.569,1.159 0,0" /></g><g
           transform="translate(269.0553,61.0864)"
           id="g390"><path
             id="path392"
             style="fill:#ec738d;fill-opacity:1;fill-rule:nonzero;stroke:none"
             d="M 0,0 11.905,1.189 4.923,10.906 Z" /></g><g
           transform="translate(256.801,92.5974)"
           id="g394"><path
             id="path396"
             style="fill:#ffffff;fill-opacity:1;fill-rule:nonzero;stroke:none"
             d="M 0,0 -5.022,-17.148" /></g><g
           transform="translate(256.801,92.5974)"
           id="g398"><path
             id="path400"
             style="fill:none;stroke:#ec738d;stroke-width:4;stroke-linecap:butt;stroke-linejoin:miter;stroke-miterlimit:10;stroke-dasharray:none;stroke-opacity:1"
             d="M 0,0 -5.022,-17.148" /></g><g
           transform="translate(250.567,92.5988)"
           id="g402"><path
             id="path404"
             style="fill:#ec738d;fill-opacity:1;fill-rule:nonzero;stroke:none"
             d="m 0,0 8.654,8.263 2.83,-11.626 z" /></g><g
           transform="translate(247.4491,76.718)"
           id="g406"><path
             id="path408"
             style="fill:#ffffff;fill-opacity:1;fill-rule:nonzero;stroke:none"
             d="m 0,0 c -0.7,-2.391 0.671,-4.898 3.062,-5.598 2.391,-0.7 4.897,0.671 5.598,3.062 C 9.36,-0.145 7.989,2.361 5.598,3.062 3.207,3.762 0.7,2.391 0,0" /></g><g
           transform="translate(255.533,74.3505)"
           id="g410"><path
             id="path412"
             style="fill:#ec738d;fill-opacity:1;fill-rule:nonzero;stroke:none"
             d="M 0,0 C 0.606,2.07 -0.584,4.247 -2.655,4.853 -4.725,5.46 -6.902,4.269 -7.508,2.199 -8.114,0.128 -6.924,-2.048 -4.854,-2.655 -2.783,-3.261 -0.606,-2.071 0,0 0.606,2.07 -0.606,-2.071 0,0 m -8.66,2.536 c 0.792,2.705 3.638,4.261 6.343,3.469 2.704,-0.792 4.261,-3.638 3.469,-6.342 -0.793,-2.705 -3.638,-4.261 -6.343,-3.469 -2.705,0.792 -4.261,3.637 -3.469,6.342 0.792,2.705 -0.792,-2.705 0,0" /></g><g
           transform="translate(251.7789,75.4499)"
           id="g414"><path
             id="path416"
             style="fill:#ffffff;fill-opacity:1;fill-rule:nonzero;stroke:none"
             d="M 0,0 25.394,20.414" /></g><g
           transform="translate(251.779,75.4499)"
           id="g418"><path
             id="path420"
             style="fill:none;stroke:#ec738d;stroke-width:4;stroke-linecap:butt;stroke-linejoin:miter;stroke-miterlimit:10;stroke-dasharray:none;stroke-opacity:1"
             d="M 0,0 25.394,20.414" /></g><g
           transform="translate(254.6058,71.9336)"
           id="g422"><path
             id="path424"
             style="fill:#ffffff;fill-opacity:1;fill-rule:nonzero;stroke:none"
             d="m 0,0 c -1.942,-1.561 -4.782,-1.252 -6.343,0.69 -1.561,1.941 -1.252,4.782 0.689,6.343 1.942,1.561 4.783,1.252 6.343,-0.69 C 2.25,4.401 1.942,1.561 0,0" /></g><g
           transform="translate(249.3281,78.4986)"
           id="g426"><path
             id="path428"
             style="fill:#ec738d;fill-opacity:1;fill-rule:nonzero;stroke:none"
             d="M 0,0 C 1.681,1.352 4.148,1.084 5.5,-0.598 6.851,-2.279 6.583,-4.746 4.902,-6.097 3.22,-7.449 0.754,-7.181 -0.598,-5.5 -1.95,-3.818 -1.682,-1.352 0,0 1.681,1.352 -1.682,-1.352 0,0 m 5.654,-7.033 c 2.196,1.766 2.547,4.99 0.781,7.187 -1.766,2.197 -4.99,2.547 -7.187,0.781 -2.197,-1.766 -2.547,-4.99 -0.781,-7.186 1.766,-2.197 4.99,-2.548 7.187,-0.782 2.196,1.766 -2.197,-1.766 0,0" /></g><g
           transform="translate(279.557,90.1042)"
           id="g430"><path
             id="path432"
             style="fill:#ec738d;fill-opacity:1;fill-rule:nonzero;stroke:none"
             d="M 0,0 4.327,11.155 -7.497,9.326 Z" /></g></g></g><g
       id="g434"><g
         clip-path="url(#clipPath440)"
         id="g436"><g
           transform="translate(32.1048,71.4353)"
           id="g442"><path
             id="path444"
             style="fill:#110f0d;fill-opacity:1;fill-rule:nonzero;stroke:none"
             d="m 0,0 c 0,0.527 0.026,0.558 0.418,0.949 1.116,1.143 2.57,1.314 3.186,1.314 1.872,0 3.436,-1.705 3.436,-5.225 0,-3.942 -1.955,-5.392 -3.77,-5.392 -0.396,0 -1.705,0 -2.962,1.507 C 0,-6.482 0,-6.456 0,-5.924 Z m 0,-8.104 c 1.2,-0.979 2.43,-1.256 3.573,-1.256 4.192,0 7.044,2.513 7.044,6.398 0,3.713 -2.544,6.341 -6.565,6.341 -2.096,0 -3.577,-0.865 -4.219,-1.371 V 3.379 L -5.115,3.155 V 1.841 c 1.731,0 1.929,0 1.929,-1.059 v -14.084 h -1.929 v -1.31 c 0.782,0.027 2.461,0.084 3.52,0.084 1.09,0 2.738,-0.057 3.52,-0.084 v 1.31 H 0 Z" /></g><g
           transform="translate(162.3189,150.0085)"
           id="g446"><path
             id="path448"
             style="fill:#69cdd7;fill-opacity:1;fill-rule:nonzero;stroke:none"
             d="M 0,0 C 0,-0.817 -0.046,-1.066 -1.794,-1.066 H -2.336 V -1.769 H 10.745 L 11.697,4.08 H 11.13 C 10.563,0.588 10.043,-1.066 6.145,-1.066 H 3.128 c -1.067,0 -1.113,0.16 -1.113,0.906 v 6.055 h 2.043 c 2.197,0 2.447,-0.728 2.447,-2.653 H 7.072 V 9.251 H 6.505 C 6.505,7.3 6.255,6.598 4.058,6.598 H 2.015 v 5.442 c 0,0.748 0.046,0.906 1.113,0.906 h 2.924 c 3.47,0 4.08,-1.249 4.443,-4.398 h 0.567 l -0.634,5.1 H -2.336 v -0.702 h 0.542 C -0.046,12.946 0,12.696 0,11.879 Z" /></g><g
           transform="translate(181.2628,153.5677)"
           id="g450"><path
             id="path452"
             style="fill:#69cdd7;fill-opacity:1;fill-rule:nonzero;stroke:none"
             d="m 0,0 c 0.677,0.863 1.541,1.972 2.086,2.561 0.703,0.816 1.63,1.159 2.696,1.18 V 4.444 C 4.194,4.397 3.513,4.376 2.924,4.376 2.243,4.376 1.041,4.422 0.745,4.444 V 3.741 C 1.223,3.695 1.405,3.402 1.405,3.038 1.405,2.675 1.177,2.382 1.063,2.243 L -0.342,0.478 -2.111,2.767 c -0.204,0.225 -0.204,0.271 -0.204,0.407 0,0.339 0.343,0.546 0.796,0.567 v 0.703 c -0.592,-0.022 -2.086,-0.068 -2.45,-0.068 -0.475,0 -1.541,0.021 -2.154,0.068 V 3.741 c 1.587,0 1.608,-0.021 2.674,-1.384 l 2.247,-2.924 -2.133,-2.696 C -4.422,-4.579 -5.76,-4.625 -6.237,-4.625 v -0.703 c 0.592,0.046 1.294,0.068 1.883,0.068 0.656,0 1.608,-0.047 2.154,-0.068 v 0.703 c -0.5,0.067 -0.657,0.363 -0.657,0.702 0,0.499 0.657,1.248 2.04,2.882 l 1.723,-2.268 c 0.182,-0.25 0.474,-0.614 0.474,-0.749 0,-0.204 -0.203,-0.546 -0.813,-0.567 v -0.703 c 0.678,0.021 1.947,0.068 2.446,0.068 0.614,0 1.498,-0.022 2.179,-0.068 v 0.703 c -1.226,0 -1.633,0.046 -2.154,0.702 z" /></g><g
           transform="translate(190.7525,156.763)"
           id="g454"><path
             id="path456"
             style="fill:#69cdd7;fill-opacity:1;fill-rule:nonzero;stroke:none"
             d="M 0,0 V 1.498 L -3.267,1.248 V 0.546 c 1.609,0 1.769,-0.136 1.769,-1.134 v -10.61 c 0,-1.02 -0.249,-1.02 -1.769,-1.02 v -0.702 c 0.771,0.021 1.951,0.067 2.539,0.067 0.614,0 1.769,-0.046 2.561,-0.067 v 0.702 c -1.516,0 -1.765,0 -1.765,1.02 v 3.809 0.203 c 0.11,-0.364 1.062,-1.587 2.788,-1.587 2.697,0 5.054,2.222 5.054,5.146 0,2.882 -2.197,5.125 -4.736,5.125 C 1.405,1.498 0.453,0.499 0,0 m 0.068,-5.938 v 5.057 c 0.656,1.156 1.765,1.812 2.924,1.812 1.655,0 3.039,-1.994 3.039,-4.558 0,-2.742 -1.587,-4.647 -3.267,-4.647 -0.906,0 -1.769,0.453 -2.379,1.384 -0.317,0.474 -0.317,0.499 -0.317,0.952" /></g><g
           transform="translate(206.9087,142.7976)"
           id="g458"><path
             id="path460"
             style="fill:#69cdd7;fill-opacity:1;fill-rule:nonzero;stroke:none"
             d="m 0,0 c 0,0.068 0,0.114 -0.386,0.499 -2.832,2.857 -3.559,7.143 -3.559,10.61 0,3.948 0.863,7.892 3.651,10.727 C 0,22.107 0,22.154 0,22.221 c 0,0.157 -0.091,0.225 -0.226,0.225 -0.228,0 -2.268,-1.541 -3.605,-4.422 -1.156,-2.493 -1.43,-5.011 -1.43,-6.915 0,-1.765 0.249,-4.511 1.498,-7.072 1.357,-2.789 3.309,-4.262 3.537,-4.262 C -0.091,-0.225 0,-0.157 0,0" /></g><g
           transform="translate(212.2948,155.7003)"
           id="g462"><path
             id="path464"
             style="fill:#69cdd7;fill-opacity:1;fill-rule:nonzero;stroke:none"
             d="m 0,0 c 0,0.428 0.021,0.453 0.338,0.77 0.906,0.928 2.086,1.067 2.586,1.067 1.52,0 2.789,-1.384 2.789,-4.241 0,-3.199 -1.586,-4.375 -3.061,-4.375 -0.319,0 -1.383,0 -2.403,1.223 C 0,-5.26 0,-5.239 0,-4.807 Z m 0,-6.576 c 0.975,-0.795 1.972,-1.02 2.899,-1.02 3.403,0 5.717,2.04 5.717,5.192 C 8.616,0.61 6.55,2.742 3.289,2.742 1.586,2.742 0.386,2.04 -0.135,1.63 V 2.742 L -4.152,2.561 V 1.494 c 1.406,0 1.566,0 1.566,-0.859 v -11.43 h -1.566 v -1.063 c 0.635,0.022 1.997,0.068 2.858,0.068 0.883,0 2.221,-0.046 2.855,-0.068 v 1.063 H 0 Z" /></g><g
           transform="translate(226.2882,148.2611)"
           id="g466"><path
             id="path468"
             style="fill:#69cdd7;fill-opacity:1;fill-rule:nonzero;stroke:none"
             d="m 0,0 c 0,1.498 -0.566,2.382 -1.452,2.382 -0.748,0 -1.2,-0.567 -1.2,-1.202 0,-0.613 0.452,-1.201 1.2,-1.201 0.272,0 0.569,0.089 0.792,0.296 0.069,0.042 0.094,0.067 0.114,0.067 0.023,0 0.046,-0.025 0.046,-0.342 0,-1.676 -0.794,-3.038 -1.543,-3.784 -0.249,-0.249 -0.249,-0.296 -0.249,-0.364 0,-0.16 0.115,-0.249 0.229,-0.249 C -1.815,-4.397 0,-2.65 0,0" /></g><g
           transform="translate(238.429,156.763)"
           id="g470"><path
             id="path472"
             style="fill:#69cdd7;fill-opacity:1;fill-rule:nonzero;stroke:none"
             d="M 0,0 C 0.135,0.317 0.228,0.478 1.675,0.478 V 1.544 C 1.109,1.498 0.452,1.476 -0.114,1.476 c -0.568,0 -1.589,0.043 -2.063,0.068 V 0.478 c 0.429,0 1.088,-0.068 1.088,-0.25 0,-0.021 -0.025,-0.068 -0.114,-0.271 l -2.629,-5.67 -2.881,6.191 h 1.224 v 1.066 c -0.747,-0.046 -2.789,-0.068 -2.81,-0.068 -0.634,0 -1.655,0.043 -2.586,0.068 V 0.478 h 1.452 l 3.969,-8.523 c 0.272,-0.567 0.566,-0.567 0.858,-0.567 0.386,0 0.614,0.067 0.842,0.542 z" /></g><g
           transform="translate(245.4284,153.9065)"
           id="g474"><path
             id="path476"
             style="fill:#69cdd7;fill-opacity:1;fill-rule:nonzero;stroke:none"
             d="m 0,0 c 0,1.769 -0.249,4.515 -1.493,7.075 -1.362,2.789 -3.309,4.262 -3.537,4.262 -0.137,0 -0.229,-0.089 -0.229,-0.224 0,-0.068 0,-0.115 0.432,-0.525 C -2.606,8.345 -1.312,4.74 -1.312,0 c 0,-3.876 -0.84,-7.867 -3.652,-10.724 -0.295,-0.271 -0.295,-0.317 -0.295,-0.385 0,-0.135 0.092,-0.224 0.229,-0.224 0.228,0 2.266,1.54 3.604,4.418 C -0.269,-4.419 0,-1.904 0,0" /></g><g
           transform="translate(273.6131,105.7172)"
           id="g478"><path
             id="path480"
             style="fill:#ec738d;fill-opacity:1;fill-rule:nonzero;stroke:none"
             d="m 0,0 -4.47,9.85 c -0.205,0.466 -0.407,0.466 -0.817,0.466 H -9.423 V 9.44 H -7.41 V -1.043 c 0,-0.41 -0.018,-0.427 -0.539,-0.483 -0.448,-0.056 -0.486,-0.056 -1.008,-0.056 h -0.466 v -0.875 c 0.709,0.055 1.77,0.055 2.496,0.055 0.782,0 1.751,0 2.513,-0.055 v 0.875 h -0.463 c -0.337,0 -0.653,0.018 -0.987,0.056 -0.542,0.056 -0.559,0.073 -0.559,0.483 V 9.2 h 0.017 l 5.065,-11.192 c 0.169,-0.372 0.392,-0.465 0.597,-0.465 0.372,0 0.521,0.278 0.595,0.448 L 5.047,9.44 H 5.064 V -1.582 H 3.055 v -0.875 c 0.671,0.055 2.402,0.055 3.166,0.055 0.762,0 2.513,0 3.184,-0.055 v 0.875 H 7.393 V 9.44 h 2.012 v 0.876 H 5.29 c -0.41,0 -0.615,0 -0.82,-0.466 z" /></g><g
           transform="translate(288.0442,98.629)"
           id="g482"><path
             id="path484"
             style="fill:#ec738d;fill-opacity:1;fill-rule:nonzero;stroke:none"
             d="M 0,0 H -0.885 V 2.305 C -0.554,2.083 0.091,1.74 1.013,1.74 c 2.267,0 3.65,1.277 3.65,3.017 0,1.596 -1.145,2.993 -3.386,2.993 -0.685,0 -1.488,-0.132 -2.252,-0.606 V 7.75 L -3.442,7.645 V 6.907 c 0.226,0 0.49,0 0.659,-0.027 0.226,-0.041 0.226,-0.184 0.226,-0.436 V 0 h -0.885 v -0.738 c 0.015,0 1.081,0.053 1.714,0.053 0.647,0 1.713,-0.053 1.728,-0.053 z m -0.885,6.037 c 0,0.249 0.015,0.263 0.2,0.433 0.632,0.554 1.408,0.606 1.687,0.606 1.118,0 1.83,-0.896 1.83,-2.319 0,-1.714 -0.987,-2.411 -1.988,-2.411 -1.002,0 -1.57,0.712 -1.729,0.934 z" /></g><g
           transform="translate(296.6553,108.5934)"
           id="g486"><path
             id="path488"
             style="fill:#ec738d;fill-opacity:1;fill-rule:nonzero;stroke:none"
             d="m 0,0 c 0.009,0.009 0.094,0.187 0.094,0.331 0,0.34 -0.302,0.556 -0.586,0.556 -0.387,0 -0.492,-0.292 -0.539,-0.433 l -1.456,-4.095 c -0.038,-0.114 -0.038,-0.14 -0.038,-0.149 0,-0.152 0.399,-0.246 0.407,-0.246 0.085,0 0.103,0.047 0.162,0.161 z" /></g><g
           transform="translate(17.5924,97.18)"
           id="g490"><path
             id="path492"
             style="fill:#ec738d;fill-opacity:1;fill-rule:nonzero;stroke:none"
             d="m 0,0 -4.469,9.85 c -0.206,0.466 -0.408,0.466 -0.818,0.466 H -9.422 V 9.44 H -7.41 V -1.043 c 0,-0.41 -0.018,-0.427 -0.539,-0.483 -0.448,-0.056 -0.486,-0.056 -1.008,-0.056 h -0.465 v -0.875 c 0.708,0.055 1.769,0.055 2.495,0.055 0.782,0 1.752,0 2.513,-0.055 v 0.875 h -0.463 c -0.336,0 -0.653,0.018 -0.987,0.056 -0.542,0.056 -0.559,0.073 -0.559,0.483 V 9.2 h 0.017 l 5.065,-11.192 c 0.169,-0.372 0.392,-0.465 0.597,-0.465 0.372,0 0.521,0.278 0.595,0.448 L 5.047,9.44 H 5.064 V -1.582 H 3.055 v -0.875 c 0.671,0.055 2.402,0.055 3.166,0.055 0.762,0 2.513,0 3.184,-0.055 v 0.875 H 7.393 V 9.44 h 2.012 v 0.876 H 5.29 c -0.41,0 -0.615,0 -0.82,-0.466 z" /></g><g
           transform="translate(32.0236,90.0919)"
           id="g494"><path
             id="path496"
             style="fill:#ec738d;fill-opacity:1;fill-rule:nonzero;stroke:none"
             d="M 0,0 H -0.885 V 2.305 C -0.554,2.083 0.091,1.74 1.013,1.74 c 2.267,0 3.65,1.277 3.65,3.017 0,1.596 -1.145,2.993 -3.386,2.993 -0.685,0 -1.488,-0.132 -2.252,-0.606 V 7.75 L -3.442,7.645 V 6.907 c 0.226,0 0.49,0 0.659,-0.027 0.226,-0.041 0.226,-0.184 0.226,-0.436 V 0 h -0.885 v -0.738 c 0.015,0 1.081,0.053 1.714,0.053 0.647,0 1.713,-0.053 1.728,-0.053 z m -0.885,6.037 c 0,0.249 0.015,0.263 0.2,0.433 0.632,0.554 1.408,0.606 1.687,0.606 1.118,0 1.83,-0.896 1.83,-2.319 0,-1.714 -0.987,-2.411 -1.988,-2.411 -1.002,0 -1.57,0.712 -1.729,0.934 z" /></g><g
           transform="translate(94.6487,137.5411)"
           id="g498"><path
             id="path500"
             style="fill:#71cda0;fill-opacity:1;fill-rule:nonzero;stroke:none"
             d="M 0,0 C 0.166,0.39 0.28,0.587 2.06,0.587 V 1.898 C 1.363,1.841 0.556,1.814 -0.14,1.814 c -0.697,0 -1.95,0.053 -2.534,0.084 V 0.587 c 0.526,0 1.337,-0.083 1.337,-0.307 0,-0.026 -0.03,-0.083 -0.14,-0.333 l -3.23,-6.968 -3.541,7.608 h 1.503 v 1.311 c -0.916,-0.057 -3.427,-0.084 -3.453,-0.084 -0.78,0 -2.034,0.053 -3.178,0.084 V 0.587 h 1.784 l 4.878,-10.474 c 0.333,-0.697 0.697,-0.697 1.056,-0.697 0.473,0 0.754,0.083 1.034,0.666 z" /></g><g
           transform="translate(58.5415,158.9022)"
           id="g502"><path
             id="path504"
             style="fill:#799398;fill-opacity:1;fill-rule:nonzero;stroke:none"
             d="m 0,0 c 0,0.056 0,0.094 -0.317,0.411 -2.334,2.355 -2.934,5.888 -2.934,8.745 0,3.253 0.711,6.504 3.01,8.841 C 0,18.22 0,18.259 0,18.314 c 0,0.13 -0.074,0.186 -0.185,0.186 -0.188,0 -1.87,-1.27 -2.972,-3.645 -0.952,-2.055 -1.178,-4.13 -1.178,-5.699 0,-1.455 0.205,-3.718 1.234,-5.829 1.12,-2.298 2.728,-3.512 2.916,-3.512 C -0.074,-0.185 0,-0.129 0,0" /></g><g
           transform="translate(62.9468,169.5364)"
           id="g506"><path
             id="path508"
             style="fill:#799398;fill-opacity:1;fill-rule:nonzero;stroke:none"
             d="m 0,0 c 0,0.353 0.018,0.373 0.279,0.635 0.747,0.764 1.72,0.879 2.131,0.879 1.252,0 2.299,-1.141 2.299,-3.495 0,-2.637 -1.308,-3.606 -2.522,-3.606 -0.265,0 -1.141,0 -1.981,1.008 C 0,-4.335 0,-4.318 0,-3.962 Z m 0,-5.42 c 0.802,-0.655 1.625,-0.841 2.39,-0.841 2.804,0 4.711,1.682 4.711,4.28 C 7.101,0.503 5.4,2.26 2.71,2.26 1.308,2.26 0.318,1.681 -0.112,1.343 V 2.26 L -3.421,2.11 V 1.232 c 1.158,0 1.29,0 1.29,-0.709 v -9.42 h -1.29 v -0.876 c 0.523,0.018 1.646,0.056 2.354,0.056 0.729,0 1.831,-0.038 2.354,-0.056 v 0.876 H 0 Z" /></g><g
           transform="translate(79.4892,167.6846)"
           id="g510"><path
             id="path512"
             style="fill:#799398;fill-opacity:1;fill-rule:nonzero;stroke:none"
             d="m 0,0 h 5.214 c 0.262,0 0.617,0 0.617,0.373 0,0.376 -0.355,0.376 -0.617,0.376 H 0 v 5.232 c 0,0.262 0,0.615 -0.373,0.615 -0.374,0 -0.374,-0.353 -0.374,-0.615 V 0.749 h -5.231 c -0.262,0 -0.618,0 -0.618,-0.376 C -6.596,0 -6.24,0 -5.978,0 h 5.231 v -5.232 c 0,-0.261 0,-0.617 0.374,-0.617 C 0,-5.849 0,-5.493 0,-5.232 Z" /></g><g
           transform="translate(96.5725,170.4123)"
           id="g514"><path
             id="path516"
             style="fill:#799398;fill-opacity:1;fill-rule:nonzero;stroke:none"
             d="M 0,0 C 0.112,0.262 0.188,0.394 1.381,0.394 V 1.273 C 0.914,1.234 0.373,1.217 -0.094,1.217 c -0.468,0 -1.308,0.035 -1.699,0.056 V 0.394 c 0.353,0 0.896,-0.056 0.896,-0.206 0,-0.018 -0.02,-0.056 -0.094,-0.223 l -2.166,-4.674 -2.375,5.103 h 1.009 V 1.273 C -5.138,1.234 -6.822,1.217 -6.84,1.217 c -0.523,0 -1.364,0.035 -2.131,0.056 V 0.394 h 1.197 l 3.271,-7.025 c 0.223,-0.467 0.467,-0.467 0.708,-0.467 0.318,0 0.506,0.056 0.694,0.447 z" /></g><g
           transform="translate(102.6491,168.0579)"
           id="g518"><path
             id="path520"
             style="fill:#799398;fill-opacity:1;fill-rule:nonzero;stroke:none"
             d="m 0,0 c 0,1.458 -0.205,3.721 -1.23,5.831 -1.123,2.299 -2.728,3.513 -2.916,3.513 -0.113,0 -0.188,-0.074 -0.188,-0.185 0,-0.056 0,-0.094 0.355,-0.432 1.831,-1.849 2.897,-4.821 2.897,-8.727 0,-3.195 -0.692,-6.484 -3.009,-8.838 -0.243,-0.224 -0.243,-0.262 -0.243,-0.318 0,-0.111 0.075,-0.185 0.188,-0.185 0.188,0 1.868,1.27 2.97,3.642 C -0.222,-3.642 0,-1.57 0,0" /></g><g
           transform="translate(182.7434,62.397)"
           id="g522"><path
             id="path524"
             style="fill:#799398;fill-opacity:1;fill-rule:nonzero;stroke:none"
             d="m 0,0 h 1.815 c 0.406,0 0.447,0 0.549,0.103 0.123,0.08 0.183,0.365 0.183,0.486 0,0.369 -0.345,0.369 -0.673,0.369 h -1.63 l 0.654,2.627 c 0.08,0.327 0.08,0.449 0.08,0.529 0,0.653 -0.529,0.897 -0.958,0.897 -0.305,0 -0.857,-0.144 -1.178,-0.715 -0.085,-0.16 -0.329,-1.099 -0.47,-1.669 l -0.41,-1.669 h -1.831 c -0.408,0 -0.755,0 -0.755,-0.593 C -4.624,0 -4.296,0 -3.931,0 h 1.651 l -1.161,-4.645 c -0.143,-0.529 -0.346,-1.384 -0.346,-1.609 0,-1.323 1.302,-1.996 2.567,-1.996 2.422,0 3.81,2.832 3.81,3.178 0,0.286 -0.308,0.286 -0.49,0.286 -0.347,0 -0.367,-0.02 -0.511,-0.327 -0.775,-1.753 -1.915,-2.403 -2.711,-2.403 -0.182,0 -0.486,0 -0.486,0.753 0,0.388 0.06,0.612 0.121,0.878 z" /></g><g
           transform="translate(21.4182,151.0927)"
           id="g526"><path
             id="path528"
             style="fill:#110f0d;fill-opacity:1;fill-rule:nonzero;stroke:none"
             d="m 0,0 c 0,3.096 -2.149,4.698 -5.298,4.698 -5.626,0 -8.576,-4.824 -8.576,-8.468 0,-3.185 2.277,-4.643 5.316,-4.643 C -2.966,-8.413 0,-3.752 0,0 m -8.374,-7.648 c -0.603,0 -1.439,0.126 -2.132,0.836 -0.801,0.802 -0.801,2.023 -0.801,2.441 0,1.148 0.546,4.554 2.038,6.431 1.221,1.492 2.733,1.91 3.789,1.91 1.511,0 3.005,-0.819 3.005,-3.131 0,-1.186 -0.654,-4.371 -1.839,-6.084 -1.365,-2.002 -3.024,-2.403 -4.06,-2.403" /></g><g
           transform="translate(105.6733,98.4248)"
           id="g530"><path
             id="path532"
             style="fill:#799398;fill-opacity:1;fill-rule:nonzero;stroke:none"
             d="M 0,0 V 5.194 H 2.205 C 5.214,5.194 5.252,3.739 5.252,2.598 5.252,1.552 5.252,0 2.169,0 Z m 4.991,-0.391 c 2.167,0.559 3.118,1.775 3.118,3.007 0,1.887 -2.054,3.456 -5.566,3.456 H -4.558 V 5.194 H -2.54 V -5.867 h -2.018 v -0.879 c 0.672,0.056 2.504,0.056 3.288,0.056 0.785,0 2.617,0 3.288,-0.056 v 0.879 H 0 v 5.194 h 2.186 c 0.263,0 1.085,0 1.665,-0.635 0.596,-0.652 0.596,-1.008 0.596,-2.372 0,-1.234 0,-2.149 1.307,-2.786 0.824,-0.412 1.981,-0.485 2.749,-0.485 1.999,0 2.242,1.681 2.242,1.981 0,0.411 -0.262,0.411 -0.45,0.411 -0.389,0 -0.41,-0.188 -0.429,-0.429 -0.094,-0.879 -0.634,-1.29 -1.196,-1.29 -1.119,0 -1.29,1.325 -1.381,2.11 -0.037,0.206 -0.188,1.496 -0.205,1.59 -0.261,1.308 -1.29,1.887 -2.093,2.187" /></g><g
           transform="translate(122.748,87.194)"
           id="g534"><path
             id="path536"
             style="fill:#799398;fill-opacity:1;fill-rule:nonzero;stroke:none"
             d="m 0,0 c 0,0.056 0,0.094 -0.318,0.411 -2.334,2.355 -2.934,5.888 -2.934,8.745 0,3.253 0.712,6.504 3.009,8.841 C 0,18.22 0,18.259 0,18.314 c 0,0.13 -0.075,0.186 -0.186,0.186 -0.188,0 -1.87,-1.27 -2.972,-3.645 -0.952,-2.055 -1.178,-4.13 -1.178,-5.699 0,-1.455 0.205,-3.718 1.234,-5.829 1.119,-2.298 2.728,-3.512 2.916,-3.512 C -0.075,-0.185 0,-0.129 0,0" /></g><g
           transform="translate(127.1526,97.8281)"
           id="g538"><path
             id="path540"
             style="fill:#799398;fill-opacity:1;fill-rule:nonzero;stroke:none"
             d="m 0,0 c 0,0.353 0.017,0.373 0.278,0.635 0.747,0.764 1.72,0.879 2.132,0.879 1.252,0 2.298,-1.141 2.298,-3.495 0,-2.637 -1.307,-3.606 -2.522,-3.606 -0.263,0 -1.14,0 -1.981,1.008 C 0,-4.335 0,-4.318 0,-3.962 Z m 0,-5.42 c 0.803,-0.655 1.625,-0.841 2.389,-0.841 2.805,0 4.712,1.682 4.712,4.28 0,2.484 -1.702,4.241 -4.39,4.241 -1.404,0 -2.393,-0.579 -2.822,-0.917 V 2.26 L -3.422,2.11 V 1.232 c 1.159,0 1.291,0 1.291,-0.709 v -9.42 h -1.291 v -0.876 c 0.523,0.018 1.646,0.056 2.355,0.056 0.728,0 1.831,-0.038 2.354,-0.056 v 0.876 H 0 Z" /></g><g
           transform="translate(143.6957,95.9764)"
           id="g542"><path
             id="path544"
             style="fill:#799398;fill-opacity:1;fill-rule:nonzero;stroke:none"
             d="m 0,0 h 5.213 c 0.261,0 0.618,0 0.618,0.373 0,0.376 -0.357,0.376 -0.618,0.376 H 0 v 5.232 c 0,0.262 0,0.615 -0.374,0.615 -0.373,0 -0.373,-0.353 -0.373,-0.615 V 0.749 H -5.98 c -0.262,0 -0.617,0 -0.617,-0.376 C -6.597,0 -6.242,0 -5.98,0 h 5.233 v -5.232 c 0,-0.261 0,-0.617 0.373,-0.617 C 0,-5.849 0,-5.493 0,-5.232 Z" /></g><g
           transform="translate(160.7788,98.704)"
           id="g546"><path
             id="path548"
             style="fill:#799398;fill-opacity:1;fill-rule:nonzero;stroke:none"
             d="M 0,0 C 0.111,0.262 0.188,0.394 1.381,0.394 V 1.273 C 0.914,1.234 0.372,1.217 -0.094,1.217 c -0.468,0 -1.309,0.035 -1.701,0.056 V 0.394 c 0.354,0 0.898,-0.056 0.898,-0.206 0,-0.018 -0.021,-0.056 -0.094,-0.223 l -2.167,-4.674 -2.374,5.103 h 1.008 V 1.273 C -5.139,1.234 -6.823,1.217 -6.84,1.217 c -0.523,0 -1.363,0.035 -2.131,0.056 V 0.394 h 1.196 l 3.272,-7.025 c 0.223,-0.467 0.466,-0.467 0.707,-0.467 0.318,0 0.506,0.056 0.694,0.447 z" /></g><g
           transform="translate(166.3721,96.3497)"
           id="g550"><path
             id="path552"
             style="fill:#799398;fill-opacity:1;fill-rule:nonzero;stroke:none"
             d="m 0,0 c 0,1.458 -0.205,3.721 -1.23,5.831 -1.123,2.299 -2.728,3.513 -2.916,3.513 -0.113,0 -0.188,-0.074 -0.188,-0.185 0,-0.056 0,-0.094 0.355,-0.432 1.831,-1.849 2.897,-4.821 2.897,-8.727 0,-3.195 -0.692,-6.484 -3.009,-8.838 -0.243,-0.224 -0.243,-0.262 -0.243,-0.318 0,-0.111 0.075,-0.185 0.188,-0.185 0.188,0 1.868,1.27 2.97,3.642 C -0.222,-3.642 0,-1.57 0,0" /></g><g
           transform="translate(79.4852,64.5393)"
           id="g554"><path
             id="path556"
             style="fill:#ed1c24;fill-opacity:1;fill-rule:nonzero;stroke:none"
             d="m 0,0 c 0.054,0.078 0.132,0.263 0.132,0.366 0,0.186 -0.029,0.21 -0.63,0.21 h -18.059 c -0.601,0 -0.626,-0.024 -0.626,-0.21 0,-0.103 0.078,-0.288 0.132,-0.366 l 8.817,-17.664 c 0.186,-0.341 0.264,-0.498 0.708,-0.498 0.445,0 0.523,0.157 0.704,0.498 z M -15.939,-1.309 H -1.573 L -8.743,-15.7 Z" /></g><g
           transform="translate(85.5506,50.1605)"
           id="g558"><path
             id="path560"
             style="fill:#ed1c24;fill-opacity:1;fill-rule:nonzero;stroke:none"
             d="M 0,0 C 0.132,0.243 0.148,0.259 0.539,0.296 0.762,0.317 1.223,0.317 1.35,0.317 V 1.354 C 0.778,1.317 0.391,1.28 -0.202,1.28 c -0.555,0 -1.28,0.017 -1.836,0.074 V 0.317 c 0.482,0 0.593,-0.037 0.816,-0.111 l -2.483,-4.874 -2.536,4.985 h 0.869 V 1.354 C -6.166,1.317 -6.981,1.28 -7.78,1.28 -8.5,1.28 -9.225,1.297 -9.945,1.354 V 0.317 h 1.202 l 3.466,-6.78 c 0.238,-0.482 0.424,-0.519 0.98,-0.519 0.555,0 0.724,0.037 0.983,0.519 z" /></g><g
           transform="translate(283.3733,26.2948)"
           id="g562"><path
             id="path564"
             style="fill:#ed1c24;fill-opacity:1;fill-rule:nonzero;stroke:none"
             d="m 0,0 c 0.054,0.078 0.132,0.263 0.132,0.366 0,0.186 -0.029,0.21 -0.63,0.21 h -18.059 c -0.601,0 -0.626,-0.024 -0.626,-0.21 0,-0.103 0.079,-0.288 0.132,-0.366 l 8.818,-17.664 c 0.185,-0.341 0.263,-0.498 0.708,-0.498 0.444,0 0.522,0.157 0.703,0.498 z M -15.939,-1.309 H -1.572 L -8.743,-15.7 Z" /></g><g
           transform="translate(283.6803,2.4892)"
           id="g566"><path
             id="path568"
             style="fill:#ed1c24;fill-opacity:1;fill-rule:nonzero;stroke:none"
             d="m 0,0 h -1.243 v 3.24 c 0.465,-0.313 1.371,-0.795 2.667,-0.795 3.186,0 5.129,1.795 5.129,4.24 0,2.244 -1.609,4.207 -4.758,4.207 -0.964,0 -2.091,-0.185 -3.166,-0.852 v 0.852 L -4.837,10.744 V 9.707 c 0.317,0 0.688,0 0.926,-0.037 0.317,-0.058 0.317,-0.26 0.317,-0.614 V 0 h -1.243 v -1.037 c 0.021,0 1.519,0.074 2.408,0.074 0.91,0 2.408,-0.074 2.429,-0.074 z m -1.243,8.484 c 0,0.35 0.02,0.371 0.28,0.609 0.889,0.778 1.98,0.852 2.371,0.852 1.572,0 2.573,-1.259 2.573,-3.26 0,-2.408 -1.388,-3.388 -2.795,-3.388 -1.408,0 -2.207,1.001 -2.429,1.313 z" /></g><g
           transform="translate(295.7826,16.4935)"
           id="g570"><path
             id="path572"
             style="fill:#ed1c24;fill-opacity:1;fill-rule:nonzero;stroke:none"
             d="m 0,0 c 0.012,0.012 0.132,0.263 0.132,0.465 0,0.478 -0.424,0.782 -0.824,0.782 -0.543,0 -0.691,-0.411 -0.757,-0.609 l -2.046,-5.755 c -0.053,-0.16 -0.053,-0.197 -0.053,-0.21 0,-0.214 0.56,-0.346 0.572,-0.346 0.119,0 0.144,0.066 0.226,0.227 z" /></g><g
           transform="translate(179.9916,36.6099)"
           id="g574"><path
             id="path576"
             style="fill:#ed1c24;fill-opacity:1;fill-rule:nonzero;stroke:none"
             d="m 0,0 c 0.054,0.078 0.132,0.263 0.132,0.366 0,0.186 -0.029,0.21 -0.63,0.21 h -18.059 c -0.601,0 -0.626,-0.024 -0.626,-0.21 0,-0.103 0.079,-0.288 0.132,-0.366 l 8.818,-17.664 c 0.185,-0.341 0.263,-0.498 0.708,-0.498 0.444,0 0.522,0.157 0.703,0.498 z M -15.939,-1.309 H -1.572 L -8.743,-15.7 Z" /></g><g
           transform="translate(180.2986,12.8043)"
           id="g578"><path
             id="path580"
             style="fill:#ed1c24;fill-opacity:1;fill-rule:nonzero;stroke:none"
             d="m 0,0 h -1.243 v 3.24 c 0.465,-0.313 1.371,-0.795 2.667,-0.795 3.186,0 5.129,1.795 5.129,4.24 0,2.244 -1.609,4.207 -4.758,4.207 -0.964,0 -2.091,-0.185 -3.166,-0.852 v 0.852 L -4.837,10.744 V 9.707 c 0.317,0 0.688,0 0.926,-0.037 0.317,-0.058 0.317,-0.26 0.317,-0.614 V 0 h -1.243 v -1.037 c 0.021,0 1.519,0.074 2.408,0.074 0.91,0 2.408,-0.074 2.429,-0.074 z m -1.243,8.484 c 0,0.35 0.02,0.371 0.28,0.609 0.889,0.778 1.98,0.852 2.371,0.852 1.572,0 2.573,-1.259 2.573,-3.26 0,-2.408 -1.388,-3.388 -2.795,-3.388 -1.408,0 -2.207,1.001 -2.429,1.313 z" /></g><g
           transform="translate(192.4009,26.8086)"
           id="g582"><path
             id="path584"
             style="fill:#ed1c24;fill-opacity:1;fill-rule:nonzero;stroke:none"
             d="m 0,0 c 0.012,0.012 0.132,0.263 0.132,0.465 0,0.478 -0.424,0.782 -0.824,0.782 -0.543,0 -0.691,-0.411 -0.757,-0.609 l -2.046,-5.755 c -0.053,-0.16 -0.053,-0.197 -0.053,-0.21 0,-0.214 0.56,-0.346 0.572,-0.346 0.119,0 0.144,0.066 0.226,0.227 z" /></g><g
           transform="translate(198.0488,25.8536)"
           id="g586"><path
             id="path588"
             style="fill:#ed1c24;fill-opacity:1;fill-rule:nonzero;stroke:none"
             d="m 0,0 c 0,0.762 -0.63,1.387 -1.387,1.387 -0.762,0 -1.387,-0.625 -1.387,-1.387 0,-0.757 0.625,-1.387 1.387,-1.387 C -0.63,-1.387 0,-0.757 0,0" /></g><g
           transform="translate(207.2487,28.7605)"
           id="g590"><path
             id="path592"
             style="fill:#ed1c24;fill-opacity:1;fill-rule:nonzero;stroke:none"
             d="m 0,0 v 7.744 h 3.287 c 4.488,0 4.544,-2.169 4.544,-3.87 C 7.831,2.314 7.831,0 3.234,0 Z m 7.441,-0.583 c 3.231,0.833 4.651,2.647 4.651,4.483 0,2.814 -3.063,5.154 -8.3,5.154 H -6.796 v -1.31 h 3.009 V -8.748 h -3.009 v -1.31 c 1.001,0.083 3.733,0.083 4.903,0.083 1.169,0 3.901,0 4.903,-0.083 v 1.31 H 0 v 7.744 h 3.259 c 0.393,0 1.619,0 2.483,-0.946 0.889,-0.973 0.889,-1.503 0.889,-3.537 0,-1.841 0,-3.204 1.949,-4.155 1.229,-0.613 2.953,-0.723 4.098,-0.723 2.981,0 3.343,2.507 3.343,2.954 0,0.614 -0.39,0.614 -0.67,0.614 -0.581,0 -0.612,-0.281 -0.64,-0.64 -0.14,-1.311 -0.945,-1.924 -1.784,-1.924 -1.668,0 -1.924,1.976 -2.058,3.147 -0.056,0.306 -0.281,2.23 -0.306,2.37 -0.39,1.951 -1.924,2.814 -3.122,3.261" /></g></g></g></g></svg>