<?xml version="1.0" encoding="UTF-8" standalone="no"?>
<svg
   xmlns:dc="http://purl.org/dc/elements/1.1/"
   xmlns:cc="http://creativecommons.org/ns#"
   xmlns:rdf="http://www.w3.org/1999/02/22-rdf-syntax-ns#"
   xmlns:svg="http://www.w3.org/2000/svg"
   xmlns="http://www.w3.org/2000/svg"
   viewBox="0 0 450.28534 280.47467"
   height="280.47467"
   width="450.28534"
   xml:space="preserve"
   id="svg2"
   version="1.1"><metadata
     id="metadata8"><rdf:RDF><cc:Work
         rdf:about=""><dc:format>image/svg+xml</dc:format><dc:type
           rdf:resource="http://purl.org/dc/dcmitype/StillImage" /></cc:Work></rdf:RDF></metadata><defs
     id="defs6"><clipPath
       id="clipPath18"
       clipPathUnits="userSpaceOnUse"><path
         id="path16"
         d="M 0,210.356 H 337.714 V 0 H 0 Z" /></clipPath><clipPath
       id="clipPath26"
       clipPathUnits="userSpaceOnUse"><path
         id="path24"
         d="M 1.37296,209.041 H 324.304 V 6.12952 H 1.37296 Z" /></clipPath><clipPath
       id="clipPath62"
       clipPathUnits="userSpaceOnUse"><path
         id="path60"
         d="M 0,210.356 H 337.714 V 0 H 0 Z" /></clipPath><clipPath
       id="clipPath70"
       clipPathUnits="userSpaceOnUse"><path
         id="path68"
         d="m 233.797,173.523 h 20.572 V 87.8956 h -20.572 z" /></clipPath><clipPath
       id="clipPath86"
       clipPathUnits="userSpaceOnUse"><path
         id="path84"
         d="m 237.888,88.7156 h 16.47 V 31.4507 h -16.47 z" /></clipPath><clipPath
       id="clipPath110"
       clipPathUnits="userSpaceOnUse"><path
         id="path108"
         d="M 0,210.356 H 337.714 V 0 H 0 Z" /></clipPath><clipPath
       id="clipPath126"
       clipPathUnits="userSpaceOnUse"><path
         id="path124"
         d="M 0,210.356 H 337.714 V 0 H 0 Z" /></clipPath><clipPath
       id="clipPath138"
       clipPathUnits="userSpaceOnUse"><path
         id="path136"
         d="M 36.0625,32.6296 H 236.31 V 0.695129 H 36.0625 Z" /></clipPath><clipPath
       id="clipPath174"
       clipPathUnits="userSpaceOnUse"><path
         id="path172"
         d="M 0,210.356 H 337.714 V 0 H 0 Z" /></clipPath><clipPath
       id="clipPath182"
       clipPathUnits="userSpaceOnUse"><path
         id="path180"
         d="M 35.2018,207.207 H 235.857 V 173.053 H 35.2018 Z" /></clipPath><clipPath
       id="clipPath218"
       clipPathUnits="userSpaceOnUse"><path
         id="path216"
         d="M 0,210.356 H 337.714 V 0 H 0 Z" /></clipPath><clipPath
       id="clipPath226"
       clipPathUnits="userSpaceOnUse"><path
         id="path224"
         d="M 16.651,100.33 H 84.3182 V 9.07928 H 16.651 Z" /></clipPath><clipPath
       id="clipPath262"
       clipPathUnits="userSpaceOnUse"><path
         id="path260"
         d="M 0,210.356 H 337.714 V 0 H 0 Z" /></clipPath><clipPath
       id="clipPath270"
       clipPathUnits="userSpaceOnUse"><path
         id="path268"
         d="M 18.6684,183.728 H 83.1015 V 86.1612 H 18.6684 Z" /></clipPath><clipPath
       id="clipPath298"
       clipPathUnits="userSpaceOnUse"><path
         id="path296"
         d="M 0,210.356 H 337.714 V 0 H 0 Z" /></clipPath><clipPath
       id="clipPath342"
       clipPathUnits="userSpaceOnUse"><path
         id="path340"
         d="M 0,210.356 H 337.714 V 0 H 0 Z" /></clipPath><clipPath
       id="clipPath422"
       clipPathUnits="userSpaceOnUse"><path
         id="path420"
         d="M 0,210.356 H 337.714 V 0 H 0 Z" /></clipPath></defs><g
     transform="matrix(1.3333333,0,0,-1.3333333,0,280.47467)"
     id="g10"><g
       id="g12"><g
         clip-path="url(#clipPath18)"
         id="g14"><g
           id="g20"><g
             id="g22" /><g
             id="g34"><g
               style="opacity:0.60000598"
               id="g32"
               clip-path="url(#clipPath26)"><g
                 id="g30"
                 transform="translate(256.6866,203.4623)"><path
                   id="path28"
                   style="fill:#eea6b6;fill-opacity:1;fill-rule:nonzero;stroke:none"
                   d="m 0,0 c 52.275,-18.117 80.156,-75.483 62.138,-127.792 -15.485,-44.952 -60.924,-78.677 -105.163,-67.323 -22.611,5.803 -65.058,27.602 -88.309,30.334 -14.905,1.751 -47.235,-4.445 -56.348,-6.289 -1.661,-0.337 -3.349,-0.522 -5.044,-0.556 l -3.637,-0.074 c -4.649,-0.094 -9.293,0.47 -13.766,1.744 -1.742,0.497 -3.478,1.073 -5.205,1.731 -31.29,11.927 -47.537,46.83 -36.546,78.462 5.98,17.207 18.929,27.158 34.535,33.422 1.948,0.781 3.985,1.324 6.064,1.615 l 1.938,0.272 c 0,0 51.586,6.333 69.304,12.386 16.297,5.568 56.839,32.76 64.278,37.796 0.793,0.537 1.629,1.01 2.508,1.394 C -50.895,6.912 -24.924,8.638 0,0" /></g></g></g></g></g></g><g
       transform="translate(29.374,160.1427)"
       id="g36"><path
         id="path38"
         style="fill:#b6e1f7;fill-opacity:1;fill-rule:nonzero;stroke:none"
         d="M 0,0 126.756,-105.513 18.423,-140.788 Z" /></g><g
       transform="translate(27.3896,163.7464)"
       id="g40"><path
         id="path42"
         style="fill:#ffffff;fill-opacity:1;fill-rule:nonzero;stroke:none"
         d="m 0,0 19.154,-146.376 112.634,36.675 z M 3.969,-7.207 125.693,-108.531 21.66,-142.405 Z" /></g><g
       transform="translate(166.1364,7.6401)"
       id="g44"><path
         id="path46"
         style="fill:#a2caed;fill-opacity:1;fill-rule:nonzero;stroke:none"
         d="M 0,0 171.578,56.128 V 59.45 L 100.584,188.66 Z" /></g><g
       transform="translate(163.0584,5.0544)"
       id="g48"><path
         id="path50"
         style="fill:#ffffff;fill-opacity:1;fill-rule:nonzero;stroke:none"
         d="M 0,0 174.656,57.135 V 65.15 L 103.642,194.396 Z M 103.682,188.095 174.018,60.083 6.156,5.171 Z" /></g><g
       transform="translate(239.8397,31.8857)"
       id="g52"><path
         id="path54"
         style="fill:#ffffff;fill-opacity:1;fill-rule:nonzero;stroke:#37454f;stroke-width:4;stroke-linecap:butt;stroke-linejoin:miter;stroke-miterlimit:10;stroke-dasharray:none;stroke-opacity:1"
         d="M 0,0 -4.08,-18.312" /></g><g
       id="g56"><g
         clip-path="url(#clipPath62)"
         id="g58"><g
           id="g64"><g
             id="g66" /><g
             id="g78"><g
               style="opacity:0.24000501"
               id="g76"
               clip-path="url(#clipPath70)"><g
                 id="g74"
                 transform="translate(235.7593,173.1378)"><path
                   id="path72"
                   style="fill:#ffffff;fill-opacity:1;fill-rule:nonzero;stroke:#37454f;stroke-width:4;stroke-linecap:butt;stroke-linejoin:miter;stroke-miterlimit:10;stroke-dasharray:none;stroke-opacity:1"
                   d="M 0,0 16.647,-84.857" /></g></g></g></g><g
           id="g80"><g
             id="g82" /><g
             id="g94"><g
               style="opacity:0.24000501"
               id="g92"
               clip-path="url(#clipPath86)"><g
                 id="g90"
                 transform="translate(239.8397,31.8857)"><path
                   id="path88"
                   style="fill:#ffffff;fill-opacity:1;fill-rule:nonzero;stroke:#37454f;stroke-width:4;stroke-linecap:butt;stroke-linejoin:miter;stroke-miterlimit:10;stroke-dasharray:none;stroke-opacity:1"
                   d="M 0,0 12.566,56.395" /></g></g></g></g></g></g><g
       transform="translate(240.6315,147.5588)"
       id="g96"><path
         id="path98"
         style="fill:#ffffff;fill-opacity:1;fill-rule:nonzero;stroke:#37454f;stroke-width:4;stroke-linecap:butt;stroke-linejoin:miter;stroke-miterlimit:10;stroke-dasharray:none;stroke-opacity:1"
         d="M 0,0 -4.872,25.579" /></g><g
       transform="translate(163.0584,5.0544)"
       id="g100"><path
         id="path102"
         style="fill:#ffffff;fill-opacity:1;fill-rule:nonzero;stroke:none"
         d="M 0,0 174.656,57.135 V 65.15 L 103.642,194.396 Z M 103.682,188.095 174.018,60.083 6.156,5.171 Z" /></g><g
       id="g104"><g
         clip-path="url(#clipPath110)"
         id="g106"><g
           transform="translate(228.4511,11.9498)"
           id="g112"><path
             id="path114"
             style="fill:none;stroke:#ffffff;stroke-width:12;stroke-linecap:round;stroke-linejoin:miter;stroke-miterlimit:10;stroke-dasharray:none;stroke-opacity:1"
             d="M 0,0 -31.669,-4.466 -68.347,6.797 -95.829,0.722 -131.143,16.647 -155.391,-1.256 -185.808,-4.674" /></g></g></g><g
       transform="translate(220.8303)"
       id="g116"><path
         id="path118"
         style="fill:#ffffff;fill-opacity:1;fill-rule:nonzero;stroke:none"
         d="M 0,0 H 2.666 L 19.784,13.631 -3.413,22.757 Z" /></g><g
       id="g120"><g
         clip-path="url(#clipPath126)"
         id="g122"><g
           transform="translate(221.1145,-1.896)"
           id="g128"><path
             id="path130"
             style="fill:none;stroke:#ffffff;stroke-width:2;stroke-linecap:butt;stroke-linejoin:miter;stroke-miterlimit:10;stroke-dasharray:none;stroke-opacity:1"
             d="M 0,0 19.5,15.527 -3.697,24.654 Z" /></g><g
           id="g132"><g
             id="g134" /><g
             id="g154"><g
               style="opacity:0.35000604"
               id="g152"
               clip-path="url(#clipPath138)"><g
                 id="g142"
                 transform="translate(223.886,11.4694)"><path
                   id="path140"
                   style="fill:none;stroke:#ec008c;stroke-width:7;stroke-linecap:round;stroke-linejoin:miter;stroke-miterlimit:10;stroke-dasharray:none;stroke-opacity:1"
                   d="M 0,0 -27.104,-3.986 -63.782,7.277 -91.264,1.203 -126.578,17.127 -150.826,-0.776 -181.243,-4.194" /></g><g
                 id="g146"
                 transform="translate(220.0906,19.7303)"><path
                   id="path144"
                   style="fill:#ec008c;fill-opacity:1;fill-rule:nonzero;stroke:none"
                   d="M 0,0 16.219,-6.433 2.539,-17.265 Z" /></g><g
                 id="g150"
                 transform="translate(41.9079,13.8138)"><path
                   id="path148"
                   style="fill:#ec008c;fill-opacity:1;fill-rule:nonzero;stroke:none"
                   d="m 0,0 c -3.611,-0.406 -6.209,-3.663 -5.804,-7.273 0.406,-3.611 3.663,-6.21 7.274,-5.804 3.61,0.406 6.209,3.663 5.803,7.273 C 6.867,-2.193 3.611,0.406 0,0" /></g></g></g></g><g
           transform="translate(226.015,180.8521)"
           id="g156"><path
             id="path158"
             style="fill:none;stroke:#ffffff;stroke-width:12;stroke-linecap:round;stroke-linejoin:miter;stroke-miterlimit:10;stroke-dasharray:none;stroke-opacity:1"
             d="M 0,0 -20.923,16.581 -55.218,22.737 -92.165,8.526 -131.549,20.707 -154.907,2.559 -184.233,4.306" /></g></g></g><g
       transform="translate(214.6443,173.6744)"
       id="g160"><path
         id="path162"
         style="fill:#ffffff;fill-opacity:1;fill-rule:nonzero;stroke:none"
         d="M 0,0 24.716,-3.232 15.159,19.791 Z" /></g><g
       transform="translate(214.6443,173.6744)"
       id="g164"><path
         id="path166"
         style="fill:none;stroke:#ffffff;stroke-width:2;stroke-linecap:butt;stroke-linejoin:miter;stroke-miterlimit:10;stroke-dasharray:none;stroke-opacity:1"
         d="M 0,0 24.716,-3.232 15.159,19.791 Z" /></g><g
       id="g168"><g
         clip-path="url(#clipPath174)"
         id="g170"><g
           id="g176"><g
             id="g178" /><g
             id="g198"><g
               style="opacity:0.35000604"
               id="g196"
               clip-path="url(#clipPath182)"><g
                 id="g186"
                 transform="translate(226.015,180.8521)"><path
                   id="path184"
                   style="fill:none;stroke:#ec008c;stroke-width:7;stroke-linecap:round;stroke-linejoin:miter;stroke-miterlimit:10;stroke-dasharray:none;stroke-opacity:1"
                   d="M 0,0 -20.923,16.581 -55.218,22.737 -92.165,8.526 -131.549,20.707 -154.907,2.559 -184.233,4.306" /></g><g
                 id="g190"
                 transform="translate(229.433,189.2762)"><path
                   id="path188"
                   style="fill:#ec008c;fill-opacity:1;fill-rule:nonzero;stroke:none"
                   d="m 0,0 6.424,-16.223 -17.262,2.546 z" /></g><g
                 id="g194"
                 transform="translate(42.1729,191.7263)"><path
                   id="path192"
                   style="fill:#ec008c;fill-opacity:1;fill-rule:nonzero;stroke:none"
                   d="m 0,0 c -3.627,0.216 -6.743,-2.55 -6.959,-6.177 -0.216,-3.627 2.549,-6.743 6.176,-6.959 3.627,-0.216 6.744,2.55 6.96,6.177 C 6.393,-3.332 3.627,-0.216 0,0" /></g></g></g></g><g
           transform="translate(33.5226,18.9198)"
           id="g200"><path
             id="path202"
             style="fill:none;stroke:#ffffff;stroke-width:12;stroke-linecap:round;stroke-linejoin:miter;stroke-miterlimit:10;stroke-dasharray:none;stroke-opacity:1"
             d="m 0,0 -10.915,13.77 -2.339,27.297 19.818,21.681 37.65,12.081" /></g></g></g><g
       transform="translate(22.4393,14.8631)"
       id="g204"><path
         id="path206"
         style="fill:#ffffff;fill-opacity:1;fill-rule:nonzero;stroke:none"
         d="M 0,0 17.204,14.139 20.203,-7.588 Z" /></g><g
       transform="translate(22.4393,14.8631)"
       id="g208"><path
         id="path210"
         style="fill:none;stroke:#ffffff;stroke-width:1.73099995;stroke-linecap:butt;stroke-linejoin:miter;stroke-miterlimit:10;stroke-dasharray:none;stroke-opacity:1"
         d="M 0,0 17.204,14.139 20.203,-7.588 Z" /></g><g
       id="g212"><g
         clip-path="url(#clipPath218)"
         id="g214"><g
           id="g220"><g
             id="g222" /><g
             id="g242"><g
               style="opacity:0.5"
               id="g240"
               clip-path="url(#clipPath226)"><g
                 id="g230"
                 transform="translate(33.5226,18.9197)"><path
                   id="path228"
                   style="fill:none;stroke:#ec008c;stroke-width:7;stroke-linecap:round;stroke-linejoin:miter;stroke-miterlimit:10;stroke-dasharray:none;stroke-opacity:1"
                   d="m 0,0 -10.915,13.77 -2.339,27.297 19.818,21.681 37.65,12.081" /></g><g
                 id="g234"
                 transform="translate(38.7744,26.3405)"><path
                   id="path232"
                   style="fill:#ec008c;fill-opacity:1;fill-rule:nonzero;stroke:none"
                   d="m 0,0 2.549,-17.261 -16.224,6.421 z" /></g><g
                 id="g238"
                 transform="translate(79.7471,87.4837)"><path
                   id="path236"
                   style="fill:#ec008c;fill-opacity:1;fill-rule:nonzero;stroke:none"
                   d="M 0,0 C 3.46,1.11 5.365,4.816 4.255,8.275 3.145,11.735 -0.561,13.64 -4.02,12.53 -7.48,11.42 -9.385,7.714 -8.275,4.255 -7.165,0.795 -3.46,-1.11 0,0" /></g></g></g></g><g
           transform="translate(32.5978,173.7286)"
           id="g244"><path
             id="path246"
             style="fill:none;stroke:#ffffff;stroke-width:12;stroke-linecap:round;stroke-linejoin:miter;stroke-miterlimit:10;stroke-dasharray:none;stroke-opacity:1"
             d="M 0,0 -7.224,-9.509 -10.241,-26.876 3.69,-47.653 43.924,-80.988" /></g></g></g><g
       transform="translate(41.7816,185.1584)"
       id="g248"><path
         id="path250"
         style="fill:#ffffff;fill-opacity:1;fill-rule:nonzero;stroke:none"
         d="M 0,0 -20.078,-7.83 -2.463,-20.297 Z" /></g><g
       transform="translate(41.7816,185.1584)"
       id="g252"><path
         id="path254"
         style="fill:none;stroke:#ffffff;stroke-width:1.73099995;stroke-linecap:butt;stroke-linejoin:miter;stroke-miterlimit:10;stroke-dasharray:none;stroke-opacity:1"
         d="M 0,0 -20.078,-7.83 -2.463,-20.297 Z" /></g><g
       id="g256"><g
         clip-path="url(#clipPath262)"
         id="g258"><g
           id="g264"><g
             id="g266" /><g
             id="g286"><g
               style="opacity:0.5"
               id="g284"
               clip-path="url(#clipPath270)"><g
                 id="g274"
                 transform="translate(32.5978,173.7286)"><path
                   id="path272"
                   style="fill:none;stroke:#ec008c;stroke-width:7;stroke-linecap:round;stroke-linejoin:miter;stroke-miterlimit:10;stroke-dasharray:none;stroke-opacity:1"
                   d="M 0,0 -7.224,-9.509 -10.241,-26.876 3.69,-47.653 43.924,-80.988" /></g><g
                 id="g278"
                 transform="translate(24.1056,176.9736)"><path
                   id="path276"
                   style="fill:#ec008c;fill-opacity:1;fill-rule:nonzero;stroke:none"
                   d="M 0,0 16.088,6.755 13.895,-10.556 Z" /></g><g
                 id="g282"
                 transform="translate(72.3242,87.6742)"><path
                   id="path280"
                   style="fill:#ec008c;fill-opacity:1;fill-rule:nonzero;stroke:none"
                   d="M 0,0 C 2.798,-2.318 6.946,-1.929 9.264,0.869 11.582,3.667 11.193,7.815 8.395,10.133 5.598,12.451 1.449,12.062 -0.869,9.264 -3.187,6.466 -2.798,2.318 0,0" /></g></g></g></g></g></g><g
       transform="translate(242.468,96.0354)"
       id="g288"><path
         id="path290"
         style="fill:none;stroke:#ffffff;stroke-width:12;stroke-linecap:round;stroke-linejoin:miter;stroke-miterlimit:10;stroke-dasharray:none;stroke-opacity:1"
         d="m 0,0 -20.923,16.581 -19.544,-2.034 -30.896,13.835 -37.076,-3.231 -28.474,-25.455 -27.818,-1.983" /></g><g
       id="g292"><g
         clip-path="url(#clipPath298)"
         id="g294"><g
           transform="translate(80.0233,84.6316)"
           id="g300"><path
             id="path302"
             style="fill:#ffffff;fill-opacity:1;fill-rule:nonzero;stroke:none"
             d="m 0,0 c -5.035,-1.263 -10.141,1.796 -11.404,6.831 -1.262,5.034 1.797,10.141 6.831,11.403 C 0.462,19.497 5.568,16.438 6.831,11.404 8.093,6.369 5.034,1.263 0,0" /></g><g
           transform="translate(80.0233,84.6316)"
           id="g304"><path
             id="path306"
             style="fill:none;stroke:#ffffff;stroke-width:2;stroke-linecap:butt;stroke-linejoin:miter;stroke-miterlimit:10;stroke-dasharray:none;stroke-opacity:1"
             d="m 0,0 c -5.035,-1.263 -10.141,1.796 -11.404,6.831 -1.262,5.034 1.797,10.141 6.831,11.403 C 0.462,19.497 5.568,16.438 6.831,11.404 8.093,6.369 5.034,1.263 0,0 Z" /></g><g
           transform="translate(231.0973,88.8577)"
           id="g308"><path
             id="path310"
             style="fill:#ffffff;fill-opacity:1;fill-rule:nonzero;stroke:none"
             d="M 0,0 24.716,-3.232 15.159,19.791 Z" /></g><g
           transform="translate(231.0973,88.8577)"
           id="g312"><path
             id="path314"
             style="fill:none;stroke:#ffffff;stroke-width:2;stroke-linecap:butt;stroke-linejoin:miter;stroke-miterlimit:10;stroke-dasharray:none;stroke-opacity:1"
             d="M 0,0 24.716,-3.232 15.159,19.791 Z" /></g><g
           transform="translate(242.468,96.0354)"
           id="g316"><path
             id="path318"
             style="fill:none;stroke:#ec008c;stroke-width:7;stroke-linecap:round;stroke-linejoin:miter;stroke-miterlimit:10;stroke-dasharray:none;stroke-opacity:1"
             d="m 0,0 -20.923,16.581 -19.544,-2.034 -30.896,13.835 -37.076,-3.231 -28.474,-25.455 -27.818,-1.983" /></g><g
           transform="translate(245.8859,104.4595)"
           id="g320"><path
             id="path322"
             style="fill:#ec008c;fill-opacity:1;fill-rule:nonzero;stroke:none"
             d="m 0,0 6.424,-16.223 -17.262,2.546 z" /></g><g
           transform="translate(77.269,100.3117)"
           id="g324"><path
             id="path326"
             style="fill:#ec008c;fill-opacity:1;fill-rule:nonzero;stroke:none"
             d="m 0,0 c -3.624,-0.258 -6.353,-3.407 -6.095,-7.031 0.258,-3.624 3.407,-6.353 7.031,-6.095 3.624,0.258 6.353,3.407 6.095,7.031 C 6.772,-2.471 3.624,0.258 0,0" /></g></g></g><g
       transform="translate(159.1776,54.0452)"
       id="g328"><path
         id="path330"
         style="fill:#ffffff;fill-opacity:1;fill-rule:nonzero;stroke:none"
         d="M 0,0 -41.553,-13.621" /></g><g
       transform="translate(159.1776,54.0452)"
       id="g332"><path
         id="path334"
         style="fill:none;stroke:#ed1c24;stroke-width:4;stroke-linecap:butt;stroke-linejoin:miter;stroke-miterlimit:10;stroke-dasharray:none;stroke-opacity:1"
         d="M 0,0 -41.554,-13.621" /></g><g
       id="g336"><g
         clip-path="url(#clipPath342)"
         id="g338"><g
           transform="translate(157.7722,58.3324)"
           id="g344"><path
             id="path346"
             style="fill:#ffffff;fill-opacity:1;fill-rule:nonzero;stroke:none"
             d="M 0,0 C 2.367,0.776 4.917,-0.514 5.693,-2.882 6.469,-5.249 5.178,-7.798 2.811,-8.575 0.443,-9.351 -2.106,-8.06 -2.882,-5.693 -3.658,-3.325 -2.367,-0.776 0,0" /></g><g
           transform="translate(160.3961,50.328)"
           id="g348"><path
             id="path350"
             style="fill:#ed1c24;fill-opacity:1;fill-rule:nonzero;stroke:none"
             d="m 0,0 c -2.05,-0.672 -4.264,0.449 -4.936,2.499 -0.672,2.05 0.449,4.263 2.499,4.935 C -0.387,8.106 1.827,6.986 2.499,4.936 3.171,2.886 2.05,0.672 0,0 -2.05,-0.672 2.05,0.672 0,0 m -2.811,8.575 c -2.678,-0.878 -4.143,-3.772 -3.265,-6.45 0.878,-2.678 3.772,-4.143 6.45,-3.265 2.678,0.878 4.143,3.771 3.265,6.449 -0.878,2.679 -3.772,4.143 -6.45,3.266 -2.678,-0.878 2.678,0.877 0,0" /></g><g
           transform="translate(117.4241,46.6544)"
           id="g352"><path
             id="path354"
             style="fill:#ed1c24;fill-opacity:1;fill-rule:nonzero;stroke:none"
             d="m 0,0 -7.983,-8.912 11.71,-2.459 z" /></g><g
           transform="translate(124.3319,82.9991)"
           id="g356"><path
             id="path358"
             style="fill:#ffffff;fill-opacity:1;fill-rule:nonzero;stroke:none"
             d="M 0,0 34.846,-28.954" /></g><g
           transform="translate(124.3319,82.9991)"
           id="g360"><path
             id="path362"
             style="fill:none;stroke:#ed1c24;stroke-width:4;stroke-linecap:butt;stroke-linejoin:miter;stroke-miterlimit:10;stroke-dasharray:none;stroke-opacity:1"
             d="M 0,0 34.846,-28.954" /></g><g
           transform="translate(121.8549,77.2785)"
           id="g364"><path
             id="path366"
             style="fill:#ed1c24;fill-opacity:1;fill-rule:nonzero;stroke:none"
             d="M 0,0 -4.146,11.223 7.647,9.203 Z" /></g><g
           transform="translate(156.2942,50.575)"
           id="g368"><path
             id="path370"
             style="fill:#ffffff;fill-opacity:1;fill-rule:nonzero;stroke:none"
             d="M 0,0 C 1.916,-1.592 4.761,-1.33 6.354,0.587 7.946,2.503 7.683,5.348 5.767,6.94 3.851,8.532 1.006,8.27 -0.587,6.353 -2.179,4.437 -1.916,1.592 0,0" /></g><g
           transform="translate(161.6775,57.0538)"
           id="g372"><path
             id="path374"
             style="fill:#ed1c24;fill-opacity:1;fill-rule:nonzero;stroke:none"
             d="M 0,0 C -1.659,1.379 -4.13,1.151 -5.509,-0.509 -6.887,-2.168 -6.659,-4.639 -5,-6.017 -3.34,-7.396 -0.87,-7.168 0.509,-5.509 1.888,-3.849 1.659,-1.379 0,0 -1.659,1.379 1.659,-1.379 0,0 m -5.767,-6.94 c -2.167,1.801 -2.466,5.03 -0.664,7.198 1.801,2.168 5.03,2.466 7.198,0.665 2.168,-1.801 2.466,-5.031 0.665,-7.199 -1.801,-2.167 -5.031,-2.465 -7.199,-0.664 -2.167,1.801 2.168,-1.801 0,0" /></g><g
           transform="translate(255.4313,84.7937)"
           id="g376"><path
             id="path378"
             style="fill:#ffffff;fill-opacity:1;fill-rule:nonzero;stroke:none"
             d="M 0,0 1.847,39.216" /></g><g
           transform="translate(255.4313,84.7937)"
           id="g380"><path
             id="path382"
             style="fill:none;stroke:#2c3792;stroke-width:4;stroke-linecap:butt;stroke-linejoin:miter;stroke-miterlimit:10;stroke-dasharray:none;stroke-opacity:1"
             d="M 0,0 1.847,39.216" /></g><g
           transform="translate(259.938,84.5815)"
           id="g384"><path
             id="path386"
             style="fill:#ffffff;fill-opacity:1;fill-rule:nonzero;stroke:none"
             d="m 0,0 c -0.117,-2.489 -2.23,-4.412 -4.719,-4.295 -2.489,0.118 -4.412,2.231 -4.294,4.719 0.117,2.489 2.23,4.412 4.719,4.295 C -1.806,4.602 0.117,2.489 0,0" /></g><g
           transform="translate(251.5239,84.9777)"
           id="g388"><path
             id="path390"
             style="fill:#2c3792;fill-opacity:1;fill-rule:nonzero;stroke:none"
             d="M 0,0 C 0.101,2.155 1.936,3.825 4.091,3.723 6.246,3.622 7.916,1.787 7.815,-0.368 7.713,-2.523 5.878,-4.193 3.723,-4.091 1.568,-3.99 -0.101,-2.155 0,0 0.101,2.155 -0.101,-2.155 0,0 M 9.013,-0.424 C 9.146,2.391 6.963,4.789 4.148,4.922 1.333,5.055 -1.066,2.872 -1.199,0.056 -1.331,-2.759 0.852,-5.158 3.667,-5.29 c 2.815,-0.133 5.214,2.05 5.346,4.866 0.133,2.815 -0.132,-2.816 0,0" /></g><g
           transform="translate(263.1721,121.9797)"
           id="g392"><path
             id="path394"
             style="fill:#2c3792;fill-opacity:1;fill-rule:nonzero;stroke:none"
             d="M 0,0 -5.488,10.632 -11.953,0.563 Z" /></g><g
           transform="translate(256.7846,47.7067)"
           id="g396"><path
             id="path398"
             style="fill:#ffffff;fill-opacity:1;fill-rule:nonzero;stroke:none"
             d="M 0,0 -1.353,37.087" /></g><g
           transform="translate(256.7846,47.7066)"
           id="g400"><path
             id="path402"
             style="fill:none;stroke:#2c3792;stroke-width:4;stroke-linecap:butt;stroke-linejoin:miter;stroke-miterlimit:10;stroke-dasharray:none;stroke-opacity:1"
             d="M 0,0 -1.353,37.087" /></g><g
           transform="translate(262.6998,49.6745)"
           id="g404"><path
             id="path406"
             style="fill:#2c3792;fill-opacity:1;fill-rule:nonzero;stroke:none"
             d="m 0,0 -5.601,-10.573 -6.357,10.137 z" /></g><g
           transform="translate(259.94,84.9583)"
           id="g408"><path
             id="path410"
             style="fill:#ffffff;fill-opacity:1;fill-rule:nonzero;stroke:none"
             d="m 0,0 c -0.091,2.49 -2.184,4.435 -4.673,4.344 -2.49,-0.091 -4.435,-2.183 -4.344,-4.673 0.09,-2.49 2.183,-4.435 4.673,-4.344 C -1.854,-4.582 0.091,-2.49 0,0" /></g><g
           transform="translate(251.5222,84.6511)"
           id="g412"><path
             id="path414"
             style="fill:#2c3792;fill-opacity:1;fill-rule:nonzero;stroke:none"
             d="M 0,0 C 0.079,-2.156 1.896,-3.845 4.052,-3.766 6.208,-3.688 7.897,-1.871 7.818,0.285 7.74,2.441 5.922,4.13 3.766,4.052 1.61,3.973 -0.079,2.156 0,0 0.079,-2.156 -0.079,2.156 0,0 M 9.017,0.329 C 9.12,-2.487 6.912,-4.863 4.096,-4.966 1.279,-5.068 -1.096,-2.86 -1.199,-0.044 -1.302,2.773 0.906,5.148 3.723,5.251 6.539,5.354 8.915,3.146 9.017,0.329 c 0.103,-2.816 -0.102,2.817 0,0" /></g></g></g><g
       id="g416"><g
         clip-path="url(#clipPath422)"
         id="g418"><g
           transform="translate(67.1197,76.0954)"
           id="g424"><path
             id="path426"
             style="fill:#110f0d;fill-opacity:1;fill-rule:nonzero;stroke:none"
             d="m 0,0 c 0,0.527 0.026,0.558 0.418,0.949 1.116,1.143 2.57,1.314 3.186,1.314 1.872,0 3.436,-1.705 3.436,-5.225 0,-3.942 -1.955,-5.392 -3.77,-5.392 -0.396,0 -1.705,0 -2.962,1.507 C 0,-6.482 0,-6.456 0,-5.924 Z m 0,-8.104 c 1.2,-0.979 2.43,-1.256 3.573,-1.256 4.192,0 7.044,2.513 7.044,6.398 0,3.713 -2.544,6.341 -6.565,6.341 -2.096,0 -3.577,-0.865 -4.219,-1.371 V 3.379 L -5.115,3.155 V 1.841 c 1.731,0 1.929,0 1.929,-1.059 v -14.084 h -1.929 v -1.31 c 0.782,0.027 2.461,0.084 3.52,0.084 1.09,0 2.738,-0.057 3.52,-0.084 v 1.31 H 0 Z" /></g><g
           transform="translate(268.5405,91.8071)"
           id="g428"><path
             id="path430"
             style="fill:#ec008c;fill-opacity:1;fill-rule:nonzero;stroke:none"
             d="m 0,0 c 0,0.428 0.021,0.453 0.339,0.77 0.906,0.928 2.086,1.067 2.585,1.067 1.52,0 2.789,-1.384 2.789,-4.241 0,-3.199 -1.587,-4.375 -3.06,-4.375 -0.321,0 -1.383,0 -2.403,1.223 C 0,-5.26 0,-5.239 0,-4.807 Z m 0,-6.576 c 0.974,-0.795 1.972,-1.02 2.9,-1.02 3.402,0 5.716,2.04 5.716,5.192 0,3.014 -2.065,5.146 -5.328,5.146 C 1.587,2.742 0.385,2.04 -0.135,1.63 V 2.742 L -4.151,2.561 V 1.494 c 1.405,0 1.566,0 1.566,-0.859 v -11.43 h -1.566 v -1.063 c 0.635,0.022 1.997,0.068 2.857,0.068 0.884,0 2.221,-0.046 2.856,-0.068 v 1.063 H 0 Z" /></g><g
           transform="translate(282.5846,100.1379)"
           id="g432"><path
             id="path434"
             style="fill:#ec008c;fill-opacity:1;fill-rule:nonzero;stroke:none"
             d="m 0,0 c 0.128,0.271 0.143,0.399 0.143,0.514 0,0.495 -0.45,0.88 -0.945,0.88 -0.61,0 -0.803,-0.495 -0.885,-0.752 l -2.118,-6.951 c -0.015,-0.032 -0.079,-0.239 -0.079,-0.257 0,-0.192 0.496,-0.353 0.624,-0.353 0.114,0 0.129,0.032 0.243,0.275 z" /></g><g
           transform="translate(134.937,138.1448)"
           id="g436"><path
             id="path438"
             style="fill:#ec008c;fill-opacity:1;fill-rule:nonzero;stroke:none"
             d="M 0,0 C 0,-0.817 -0.046,-1.066 -1.794,-1.066 H -2.336 V -1.769 H 10.745 L 11.697,4.08 H 11.13 C 10.563,0.588 10.043,-1.066 6.145,-1.066 H 3.128 c -1.067,0 -1.113,0.16 -1.113,0.906 v 6.055 h 2.043 c 2.197,0 2.447,-0.728 2.447,-2.653 H 7.072 V 9.251 H 6.505 C 6.505,7.3 6.255,6.598 4.058,6.598 H 2.015 v 5.442 c 0,0.748 0.046,0.906 1.113,0.906 h 2.924 c 3.47,0 4.08,-1.249 4.443,-4.398 h 0.567 l -0.634,5.1 H -2.336 v -0.702 h 0.542 C -0.046,12.946 0,12.696 0,11.879 Z" /></g><g
           transform="translate(153.8808,141.7039)"
           id="g440"><path
             id="path442"
             style="fill:#ec008c;fill-opacity:1;fill-rule:nonzero;stroke:none"
             d="m 0,0 c 0.677,0.863 1.541,1.972 2.086,2.561 0.703,0.816 1.63,1.159 2.696,1.18 V 4.444 C 4.194,4.397 3.513,4.376 2.924,4.376 2.243,4.376 1.041,4.422 0.745,4.444 V 3.741 C 1.223,3.695 1.405,3.402 1.405,3.038 1.405,2.675 1.177,2.382 1.063,2.243 L -0.342,0.478 -2.111,2.767 c -0.204,0.225 -0.204,0.271 -0.204,0.407 0,0.339 0.343,0.546 0.796,0.567 v 0.703 c -0.592,-0.022 -2.086,-0.068 -2.45,-0.068 -0.475,0 -1.541,0.021 -2.154,0.068 V 3.741 c 1.587,0 1.608,-0.021 2.674,-1.384 l 2.247,-2.924 -2.133,-2.696 C -4.422,-4.579 -5.76,-4.625 -6.237,-4.625 v -0.703 c 0.592,0.046 1.294,0.068 1.883,0.068 0.656,0 1.608,-0.047 2.154,-0.068 v 0.703 c -0.5,0.067 -0.657,0.363 -0.657,0.702 0,0.499 0.657,1.248 2.04,2.882 l 1.723,-2.268 c 0.182,-0.25 0.474,-0.614 0.474,-0.749 0,-0.204 -0.203,-0.546 -0.813,-0.567 v -0.703 c 0.678,0.021 1.947,0.068 2.446,0.068 0.614,0 1.498,-0.022 2.179,-0.068 v 0.703 c -1.226,0 -1.633,0.046 -2.154,0.702 z" /></g><g
           transform="translate(163.3706,144.8993)"
           id="g444"><path
             id="path446"
             style="fill:#ec008c;fill-opacity:1;fill-rule:nonzero;stroke:none"
             d="M 0,0 V 1.498 L -3.267,1.248 V 0.546 c 1.609,0 1.769,-0.136 1.769,-1.134 v -10.61 c 0,-1.02 -0.249,-1.02 -1.769,-1.02 v -0.703 c 0.771,0.022 1.951,0.068 2.539,0.068 0.614,0 1.769,-0.046 2.561,-0.068 v 0.703 c -1.516,0 -1.765,0 -1.765,1.02 v 3.809 0.203 c 0.11,-0.364 1.062,-1.587 2.788,-1.587 2.697,0 5.054,2.222 5.054,5.146 0,2.882 -2.197,5.125 -4.736,5.125 C 1.405,1.498 0.453,0.499 0,0 m 0.068,-5.938 v 5.057 c 0.656,1.156 1.765,1.812 2.924,1.812 1.655,0 3.039,-1.994 3.039,-4.558 0,-2.742 -1.587,-4.647 -3.267,-4.647 -0.906,0 -1.769,0.453 -2.379,1.384 -0.317,0.474 -0.317,0.499 -0.317,0.952" /></g><g
           transform="translate(179.5267,130.9339)"
           id="g448"><path
             id="path450"
             style="fill:#ec008c;fill-opacity:1;fill-rule:nonzero;stroke:none"
             d="m 0,0 c 0,0.068 0,0.114 -0.386,0.499 -2.832,2.857 -3.559,7.143 -3.559,10.61 0,3.948 0.863,7.892 3.651,10.727 C 0,22.107 0,22.154 0,22.221 c 0,0.157 -0.091,0.225 -0.226,0.225 -0.228,0 -2.268,-1.541 -3.605,-4.422 -1.156,-2.493 -1.43,-5.011 -1.43,-6.915 0,-1.765 0.249,-4.511 1.498,-7.072 1.357,-2.789 3.309,-4.262 3.537,-4.262 C -0.091,-0.225 0,-0.157 0,0" /></g><g
           transform="translate(184.9128,143.8365)"
           id="g452"><path
             id="path454"
             style="fill:#ec008c;fill-opacity:1;fill-rule:nonzero;stroke:none"
             d="m 0,0 c 0,0.428 0.021,0.453 0.338,0.77 0.906,0.928 2.086,1.067 2.586,1.067 1.52,0 2.789,-1.384 2.789,-4.241 0,-3.199 -1.586,-4.375 -3.061,-4.375 -0.319,0 -1.383,0 -2.403,1.223 C 0,-5.26 0,-5.239 0,-4.807 Z m 0,-6.576 c 0.975,-0.795 1.972,-1.02 2.899,-1.02 3.403,0 5.717,2.04 5.717,5.192 0,3.014 -2.065,5.146 -5.327,5.146 C 1.586,2.742 0.386,2.04 -0.135,1.63 V 2.742 L -4.152,2.561 V 1.494 c 1.406,0 1.566,0 1.566,-0.859 v -11.43 h -1.566 v -1.063 c 0.635,0.022 1.997,0.068 2.858,0.068 0.883,0 2.221,-0.046 2.855,-0.068 v 1.063 H 0 Z" /></g><g
           transform="translate(198.9062,136.3974)"
           id="g456"><path
             id="path458"
             style="fill:#ec008c;fill-opacity:1;fill-rule:nonzero;stroke:none"
             d="m 0,0 c 0,1.498 -0.566,2.382 -1.452,2.382 -0.748,0 -1.2,-0.567 -1.2,-1.202 0,-0.613 0.452,-1.201 1.2,-1.201 0.272,0 0.569,0.089 0.792,0.296 0.069,0.042 0.094,0.067 0.114,0.067 0.023,0 0.046,-0.025 0.046,-0.342 0,-1.676 -0.794,-3.038 -1.543,-3.784 -0.249,-0.249 -0.249,-0.296 -0.249,-0.364 0,-0.16 0.115,-0.249 0.229,-0.249 C -1.815,-4.397 0,-2.65 0,0" /></g><g
           transform="translate(213.047,144.8993)"
           id="g460"><path
             id="path462"
             style="fill:#ec008c;fill-opacity:1;fill-rule:nonzero;stroke:none"
             d="M 0,0 C 0.135,0.317 0.228,0.478 1.675,0.478 V 1.544 C 1.109,1.498 0.452,1.476 -0.114,1.476 c -0.568,0 -1.589,0.043 -2.063,0.068 V 0.478 c 0.429,0 1.088,-0.068 1.088,-0.25 0,-0.021 -0.025,-0.068 -0.114,-0.271 l -2.629,-5.67 -2.881,6.191 h 1.224 v 1.066 c -0.747,-0.046 -2.789,-0.068 -2.81,-0.068 -0.634,0 -1.655,0.043 -2.586,0.068 V 0.478 h 1.452 l 3.969,-8.523 c 0.272,-0.567 0.566,-0.567 0.858,-0.567 0.386,0 0.614,0.067 0.842,0.542 z" /></g><g
           transform="translate(220.0465,142.0427)"
           id="g464"><path
             id="path466"
             style="fill:#ec008c;fill-opacity:1;fill-rule:nonzero;stroke:none"
             d="m 0,0 c 0,1.769 -0.249,4.515 -1.493,7.075 -1.362,2.789 -3.309,4.262 -3.537,4.262 -0.137,0 -0.229,-0.089 -0.229,-0.224 0,-0.068 0,-0.115 0.432,-0.525 C -2.606,8.345 -1.312,4.74 -1.312,0 c 0,-3.876 -0.84,-7.867 -3.652,-10.724 -0.295,-0.271 -0.295,-0.317 -0.295,-0.385 0,-0.135 0.092,-0.224 0.229,-0.224 0.228,0 2.266,1.54 3.604,4.418 C -0.269,-4.419 0,-1.904 0,0" /></g><g
           transform="translate(278.3411,55.2816)"
           id="g468"><path
             id="path470"
             style="fill:#2c3792;fill-opacity:1;fill-rule:nonzero;stroke:none"
             d="M 0,0 H 2.261 V 1.314 C 1.288,1.23 -1.086,1.23 -2.177,1.23 c -1.479,0 -4.219,0 -5.563,0.084 V 0 h 3.943 v -13.689 c 0,-0.532 0,-3.463 -2.77,-3.463 -0.473,0 -1.392,0.084 -2.23,0.448 v 0.027 c 0,0 1.254,0.531 1.254,2.012 0,1.508 -1.198,2.149 -2.121,2.149 -1.032,0 -2.154,-0.698 -2.154,-2.149 0,-2.153 2.208,-3.493 5.391,-3.493 3.747,0 6.427,1.591 6.427,4.5 z" /></g><g
           transform="translate(298.4276,52.3723)"
           id="g472"><path
             id="path474"
             style="fill:#2c3792;fill-opacity:1;fill-rule:nonzero;stroke:none"
             d="m 0,0 c 0,-1.085 -0.197,-2.351 -1.544,-3.617 -0.079,-0.079 -0.135,-0.14 -0.135,-0.237 0,-0.141 0.157,-0.277 0.276,-0.277 0.278,0 1.957,1.582 1.957,3.933 0,1.226 -0.475,2.154 -1.384,2.154 -0.652,0 -1.125,-0.515 -1.125,-1.125 0,-0.633 0.45,-1.147 1.145,-1.147 C -0.335,-0.316 -0.017,0 0,0" /></g><g
           transform="translate(296.867,34.4734)"
           id="g476"><path
             id="path478"
             style="fill:#2c3792;fill-opacity:1;fill-rule:nonzero;stroke:none"
             d="M 0,0 H -0.672 C -1.187,-2.984 -1.64,-4.487 -5.296,-4.487 h -3.125 c -0.931,0 -0.947,0.158 -0.947,0.769 v 5.142 h 1.994 c 1.999,0 2.295,-0.593 2.295,-2.312 h 0.672 v 5.34 h -0.672 c 0,-1.723 -0.296,-2.316 -2.295,-2.316 h -1.994 v 4.61 c 0,0.61 0.016,0.769 0.947,0.769 h 2.968 c 3.242,0 3.813,-1.068 4.171,-3.837 H -0.61 L -1.204,8.227 H -13.283 V 7.515 h 0.475 c 1.519,0 1.558,-0.198 1.558,-0.888 V -3.599 c 0,-0.672 -0.039,-0.888 -1.558,-0.888 h -0.475 v -0.712 h 12.397 z" /></g><g
           transform="translate(304.3651,33.7044)"
           id="g480"><path
             id="path482"
             style="fill:#2c3792;fill-opacity:1;fill-rule:nonzero;stroke:none"
             d="m 0,0 c -0.017,0.018 -0.158,0.176 -0.158,0.198 0,0.057 1.305,1.463 1.485,1.639 0.69,0.773 1.384,1.525 2.945,1.542 V 4.091 C 3.718,4.052 3.147,4.012 2.61,4.012 2.017,4.012 1.249,4.034 0.655,4.091 V 3.379 C 0.987,3.322 1.049,3.103 1.049,2.927 c 0,-0.04 0,-0.339 -0.298,-0.673 L -0.633,0.69 -2.273,2.571 c -0.196,0.215 -0.219,0.316 -0.219,0.395 0,0.295 0.276,0.413 0.537,0.413 V 4.091 C -2.689,4.034 -3.443,4.012 -4.171,4.012 c -0.593,0 -1.344,0.022 -1.921,0.079 V 3.379 c 0.911,0 1.423,0 1.938,-0.593 l 2.475,-2.848 c 0.017,-0.017 0.157,-0.175 0.157,-0.197 0,-0.057 -1.485,-1.679 -1.682,-1.899 -0.731,-0.791 -1.403,-1.52 -2.984,-1.56 V -4.43 c 0.594,0.04 1.027,0.079 1.64,0.079 0.594,0 1.384,-0.022 1.977,-0.079 v 0.712 c -0.239,0.04 -0.396,0.176 -0.396,0.453 0,0.378 0.219,0.633 0.537,0.971 l 1.384,1.521 1.718,-1.956 C 1.049,-3.146 1.049,-3.186 1.049,-3.305 1.049,-3.7 0.593,-3.718 0.515,-3.718 V -4.43 c 0.18,0.018 1.603,0.079 2.236,0.079 0.632,0 1.265,-0.022 1.898,-0.079 v 0.712 c -1.328,0 -1.485,0.119 -1.938,0.633 z" /></g><g
           transform="translate(314.9738,26.1502)"
           id="g484"><path
             id="path486"
             style="fill:#2c3792;fill-opacity:1;fill-rule:nonzero;stroke:none"
             d="m 0,0 c -1.288,0 -1.485,0 -1.485,0.853 v 3.221 c 0.101,-0.101 1.027,-1.147 2.689,-1.147 2.61,0 4.846,1.955 4.846,4.469 0,2.43 -2.017,4.447 -4.531,4.447 -1.125,0 -2.27,-0.413 -3.086,-1.204 v 1.204 l -2.964,-0.215 v -0.712 c 1.384,0 1.485,-0.101 1.485,-0.932 V 0.853 C -3.046,0 -3.243,0 -4.531,0 v -0.712 c 0.039,0 1.423,0.079 2.253,0.079 0.734,0 2.098,-0.057 2.278,-0.079 z m -1.485,9.708 c 0.593,0.988 1.738,1.502 2.79,1.502 1.659,0 2.945,-1.74 2.945,-3.814 0,-2.254 -1.482,-3.916 -3.164,-3.916 -1.741,0 -2.512,1.521 -2.571,1.64 z" /></g><g
           transform="translate(287.0548,58.6487)"
           id="g488"><path
             id="path490"
             style="fill:#2c3792;fill-opacity:1;fill-rule:nonzero;stroke:none"
             d="m 0,0 c 0,0.357 0.017,0.378 0.282,0.643 0.756,0.774 1.741,0.89 2.158,0.89 1.269,0 2.328,-1.155 2.328,-3.539 0,-2.67 -1.324,-3.652 -2.555,-3.652 -0.266,0 -1.154,0 -2.005,1.021 C 0,-4.39 0,-4.372 0,-4.012 Z m 0,-5.488 c 0.813,-0.664 1.646,-0.852 2.419,-0.852 2.84,0 4.772,1.703 4.772,4.334 0,2.515 -1.724,4.295 -4.446,4.295 -1.421,0 -2.423,-0.587 -2.857,-0.929 V 2.289 L -3.465,2.137 v -0.89 c 1.173,0 1.307,0 1.307,-0.717 v -9.539 h -1.307 v -0.887 c 0.53,0.018 1.667,0.056 2.385,0.056 0.737,0 1.853,-0.038 2.383,-0.056 v 0.887 H 0 Z" /></g><g
           transform="translate(310.8377,58.6735)"
           id="g492"><path
             id="path494"
             style="fill:#2c3792;fill-opacity:1;fill-rule:nonzero;stroke:none"
             d="m 0,0 c 0,1.582 -0.958,1.605 -1.016,1.605 -0.527,0 -1.096,-0.55 -1.096,-1.078 0,-0.342 0.205,-0.504 0.344,-0.626 0.349,-0.284 0.752,-0.811 0.752,-1.623 0,-0.915 -1.338,-5.274 -3.753,-5.274 -1.641,0 -1.641,1.461 -1.641,1.803 0,0.933 0.363,2.069 1.113,3.958 0.162,0.424 0.283,0.73 0.283,1.073 0,1.055 -0.891,1.744 -1.924,1.744 -2.028,0 -2.942,-2.776 -2.942,-3.101 0,-0.266 0.282,-0.266 0.346,-0.266 0.282,0 0.303,0.104 0.366,0.325 0.485,1.663 1.356,2.474 2.167,2.474 0.346,0 0.51,-0.221 0.51,-0.707 0,-0.469 -0.164,-0.893 -0.366,-1.362 -0.874,-2.249 -1.096,-3.123 -1.096,-3.854 0,-2.005 1.583,-2.655 3.124,-2.655 C -1.419,-7.564 0,-1.663 0,0" /></g><g
           transform="translate(278.341,141.9624)"
           id="g496"><path
             id="path498"
             style="fill:#2c3792;fill-opacity:1;fill-rule:nonzero;stroke:none"
             d="M 0,0 H 2.261 V 1.314 C 1.288,1.23 -1.086,1.23 -2.177,1.23 c -1.479,0 -4.219,0 -5.563,0.084 V 0 h 3.943 v -13.689 c 0,-0.532 0,-3.463 -2.77,-3.463 -0.473,0 -1.392,0.084 -2.23,0.448 v 0.027 c 0,0 1.254,0.531 1.254,2.012 0,1.508 -1.198,2.149 -2.121,2.149 -1.032,0 -2.154,-0.698 -2.154,-2.149 0,-2.153 2.208,-3.493 5.391,-3.493 3.747,0 6.427,1.591 6.427,4.5 z" /></g><g
           transform="translate(298.4276,137.9282)"
           id="g500"><path
             id="path502"
             style="fill:#2c3792;fill-opacity:1;fill-rule:nonzero;stroke:none"
             d="m 0,0 c 0,-1.085 -0.197,-2.351 -1.544,-3.617 -0.079,-0.079 -0.135,-0.14 -0.135,-0.237 0,-0.141 0.157,-0.277 0.275,-0.277 0.279,0 1.958,1.582 1.958,3.933 0,1.226 -0.475,2.154 -1.384,2.154 -0.652,0 -1.125,-0.515 -1.125,-1.125 0,-0.633 0.45,-1.147 1.145,-1.147 C -0.335,-0.316 -0.017,0 0,0" /></g><g
           transform="translate(296.8669,121.1543)"
           id="g504"><path
             id="path506"
             style="fill:#2c3792;fill-opacity:1;fill-rule:nonzero;stroke:none"
             d="M 0,0 H -0.672 C -1.187,-2.984 -1.64,-4.487 -5.296,-4.487 h -3.125 c -0.931,0 -0.947,0.158 -0.947,0.769 v 5.142 h 1.994 c 1.999,0 2.295,-0.593 2.295,-2.312 h 0.672 v 5.34 h -0.672 c 0,-1.723 -0.296,-2.316 -2.295,-2.316 h -1.994 v 4.61 c 0,0.61 0.016,0.769 0.947,0.769 h 2.968 c 3.242,0 3.813,-1.068 4.171,-3.837 H -0.61 L -1.204,8.227 H -13.283 V 7.515 h 0.475 c 1.519,0 1.558,-0.198 1.558,-0.888 V -3.599 c 0,-0.672 -0.039,-0.888 -1.558,-0.888 h -0.475 v -0.712 h 12.397 z" /></g><g
           transform="translate(304.3651,120.3852)"
           id="g508"><path
             id="path510"
             style="fill:#2c3792;fill-opacity:1;fill-rule:nonzero;stroke:none"
             d="m 0,0 c -0.017,0.018 -0.158,0.176 -0.158,0.198 0,0.057 1.305,1.463 1.485,1.639 0.689,0.773 1.384,1.525 2.945,1.542 V 4.091 C 3.718,4.052 3.147,4.012 2.61,4.012 2.016,4.012 1.249,4.034 0.655,4.091 V 3.379 C 0.987,3.322 1.049,3.103 1.049,2.927 c 0,-0.04 0,-0.339 -0.298,-0.673 L -0.633,0.69 -2.273,2.571 c -0.196,0.215 -0.219,0.316 -0.219,0.395 0,0.295 0.276,0.413 0.537,0.413 V 4.091 C -2.689,4.034 -3.443,4.012 -4.171,4.012 c -0.593,0 -1.344,0.022 -1.921,0.079 V 3.379 c 0.911,0 1.423,0 1.938,-0.593 l 2.475,-2.848 c 0.017,-0.017 0.157,-0.175 0.157,-0.197 0,-0.057 -1.485,-1.679 -1.681,-1.899 -0.732,-0.791 -1.404,-1.52 -2.985,-1.56 V -4.43 c 0.594,0.04 1.027,0.079 1.64,0.079 0.594,0 1.384,-0.022 1.977,-0.079 v 0.712 c -0.239,0.04 -0.396,0.176 -0.396,0.453 0,0.378 0.219,0.633 0.537,0.971 l 1.384,1.521 1.718,-1.956 C 1.049,-3.146 1.049,-3.186 1.049,-3.305 1.049,-3.7 0.593,-3.718 0.515,-3.718 V -4.43 c 0.18,0.018 1.603,0.079 2.236,0.079 0.632,0 1.265,-0.022 1.898,-0.079 v 0.712 c -1.328,0 -1.485,0.119 -1.938,0.633 z" /></g><g
           transform="translate(314.9738,112.8311)"
           id="g512"><path
             id="path514"
             style="fill:#2c3792;fill-opacity:1;fill-rule:nonzero;stroke:none"
             d="m 0,0 c -1.288,0 -1.485,0 -1.485,0.853 v 3.221 c 0.101,-0.101 1.027,-1.147 2.689,-1.147 2.61,0 4.846,1.955 4.846,4.469 0,2.43 -2.017,4.447 -4.531,4.447 -1.125,0 -2.27,-0.413 -3.086,-1.204 v 1.204 l -2.964,-0.215 v -0.712 c 1.384,0 1.485,-0.101 1.485,-0.932 V 0.853 C -3.046,0 -3.243,0 -4.531,0 v -0.712 c 0.039,0 1.423,0.079 2.253,0.079 0.734,0 2.098,-0.057 2.278,-0.079 z m -1.485,9.708 c 0.593,0.988 1.738,1.502 2.79,1.502 1.659,0 2.945,-1.74 2.945,-3.814 0,-2.254 -1.483,-3.916 -3.164,-3.916 -1.741,0 -2.512,1.521 -2.571,1.64 z" /></g><g
           transform="translate(287.0186,144.1547)"
           id="g516"><path
             id="path518"
             style="fill:#2c3792;fill-opacity:1;fill-rule:nonzero;stroke:none"
             d="m 0,0 c 0,0.357 0.017,0.378 0.282,0.643 0.756,0.774 1.741,0.89 2.158,0.89 1.269,0 2.328,-1.155 2.328,-3.539 0,-2.67 -1.324,-3.652 -2.555,-3.652 -0.266,0 -1.154,0 -2.005,1.021 C 0,-4.39 0,-4.372 0,-4.012 Z m 0,-5.488 c 0.813,-0.664 1.646,-0.852 2.419,-0.852 2.84,0 4.772,1.703 4.772,4.334 0,2.515 -1.724,4.295 -4.446,4.295 -1.421,0 -2.423,-0.587 -2.857,-0.929 V 2.289 L -3.465,2.137 v -0.89 c 1.173,0 1.307,0 1.307,-0.717 v -9.539 h -1.307 v -0.887 c 0.53,0.018 1.667,0.056 2.385,0.056 0.737,0 1.853,-0.038 2.383,-0.056 v 0.887 H 0 Z" /></g><g
           transform="translate(307.5275,141.0236)"
           id="g520"><path
             id="path522"
             style="fill:#2c3792;fill-opacity:1;fill-rule:nonzero;stroke:none"
             d="m 0,0 c -0.092,-0.382 -0.266,-1.108 -0.304,-1.129 -0.362,-0.59 -1.125,-1.622 -2.31,-1.622 -1.32,0 -1.32,1.24 -1.32,1.584 0,1.129 0.535,2.483 1.07,3.88 0.153,0.382 0.267,0.666 0.267,0.972 0,0.993 -0.84,1.642 -1.812,1.642 -1.91,0 -2.772,-2.614 -2.772,-2.92 0,-0.251 0.267,-0.251 0.326,-0.251 0.267,0 0.286,0.098 0.346,0.306 0.456,1.567 1.298,2.331 2.04,2.331 0.326,0 0.481,-0.208 0.481,-0.667 0,-0.441 -0.155,-0.84 -0.345,-1.282 -1.033,-2.636 -1.033,-3.188 -1.033,-3.706 0,-0.322 0,-1.201 0.707,-1.812 0.557,-0.459 1.298,-0.612 1.969,-0.612 1.201,0 1.85,0.65 2.483,1.261 0.422,-1.222 1.698,-1.261 1.927,-1.261 0.649,0 1.146,0.382 1.513,1.011 0.418,0.747 0.687,1.855 0.687,1.91 0,0.25 -0.269,0.25 -0.328,0.25 -0.267,0 -0.283,-0.076 -0.419,-0.594 -0.231,-0.896 -0.592,-2.042 -1.393,-2.042 -0.498,0 -0.634,0.437 -0.634,0.934 0,0.327 0.155,1.015 0.291,1.511 0.131,0.514 0.321,1.299 0.419,1.72 l 0.437,1.698 c 0.114,0.479 0.329,1.32 0.329,1.413 0,0.382 -0.307,0.611 -0.633,0.611 -0.707,0 -0.843,-0.551 -0.995,-1.163 z" /></g><g
           transform="translate(142.7457,98.636)"
           id="g524"><path
             id="path526"
             style="fill:#ed1c24;fill-opacity:1;fill-rule:nonzero;stroke:none"
             d="M 0,0 -3.54,-3.59 -3.062,-4.068 0,-1.371 3.041,-4.068 3.515,-3.59 Z" /></g><g
           transform="translate(148.0807,85.7973)"
           id="g528"><path
             id="path530"
             style="fill:#ed1c24;fill-opacity:1;fill-rule:nonzero;stroke:none"
             d="m 0,0 c 0.582,0 0.848,0 0.848,0.715 0,0.818 -0.162,2.746 -1.48,4.067 -0.98,0.952 -2.38,1.425 -4.2,1.425 -4.226,0 -6.528,-2.721 -6.528,-6.024 0,-3.536 2.643,-6.1 6.898,-6.1 4.171,0 5.31,2.801 5.31,3.25 0,0.473 -0.503,0.473 -0.636,0.473 -0.449,0 -0.503,-0.133 -0.661,-0.552 -0.552,-1.268 -2.061,-2.115 -3.777,-2.115 -3.722,0 -3.752,3.515 -3.752,4.861 z m -7.978,0.873 c 0.055,1.03 0.079,2.139 0.636,3.012 0.686,1.055 1.741,1.371 2.51,1.371 3.091,0 3.141,-3.461 3.17,-4.383 z" /></g><g
           transform="translate(157.8781,79.0787)"
           id="g532"><path
             id="path534"
             style="fill:#ed1c24;fill-opacity:1;fill-rule:nonzero;stroke:none"
             d="m 0,0 c -0.091,-0.374 -0.262,-1.084 -0.299,-1.105 -0.353,-0.578 -1.101,-1.587 -2.26,-1.587 -1.293,0 -1.293,1.213 -1.293,1.549 0,1.106 0.524,2.431 1.047,3.798 0.15,0.374 0.262,0.652 0.262,0.952 0,0.972 -0.823,1.607 -1.774,1.607 -1.87,0 -2.713,-2.559 -2.713,-2.858 0,-0.245 0.262,-0.245 0.32,-0.245 0.262,0 0.278,0.095 0.336,0.299 0.449,1.533 1.272,2.281 1.999,2.281 0.32,0 0.469,-0.204 0.469,-0.652 0,-0.432 -0.149,-0.823 -0.336,-1.255 -1.01,-2.58 -1.01,-3.121 -1.01,-3.627 0,-0.316 0,-1.176 0.69,-1.775 0.544,-0.448 1.271,-0.598 1.928,-0.598 1.176,0 1.811,0.636 2.43,1.234 0.412,-1.197 1.662,-1.234 1.887,-1.234 0.635,0 1.122,0.374 1.479,0.989 0.411,0.731 0.673,1.816 0.673,1.87 0,0.245 -0.262,0.245 -0.32,0.245 -0.262,0 -0.278,-0.075 -0.411,-0.582 -0.225,-0.877 -0.578,-1.998 -1.363,-1.998 -0.486,0 -0.619,0.428 -0.619,0.914 0,0.32 0.149,0.993 0.282,1.479 0.129,0.503 0.316,1.271 0.412,1.683 l 0.428,1.662 c 0.112,0.469 0.32,1.292 0.32,1.383 0,0.374 -0.3,0.599 -0.619,0.599 -0.69,0 -0.823,-0.541 -0.973,-1.139 z" /></g><g
           transform="translate(136.1621,43.1025)"
           id="g536"><path
             id="path538"
             style="fill:#ed1c24;fill-opacity:1;fill-rule:nonzero;stroke:none"
             d="M 0,0 -3.54,-3.59 -3.062,-4.068 0,-1.371 3.042,-4.068 3.515,-3.59 Z" /></g><g
           transform="translate(141.4972,30.2637)"
           id="g540"><path
             id="path542"
             style="fill:#ed1c24;fill-opacity:1;fill-rule:nonzero;stroke:none"
             d="m 0,0 c 0.582,0 0.847,0 0.847,0.715 0,0.818 -0.161,2.746 -1.479,4.067 -0.98,0.952 -2.38,1.425 -4.2,1.425 -4.226,0 -6.528,-2.721 -6.528,-6.024 0,-3.536 2.643,-6.1 6.897,-6.1 4.172,0 5.31,2.801 5.31,3.25 0,0.473 -0.502,0.473 -0.635,0.473 -0.449,0 -0.503,-0.133 -0.661,-0.552 -0.552,-1.268 -2.061,-2.115 -3.777,-2.115 -3.723,0 -3.752,3.515 -3.752,4.861 z m -7.978,0.873 c 0.054,1.03 0.079,2.139 0.636,3.012 0.686,1.055 1.741,1.371 2.51,1.371 3.091,0 3.141,-3.461 3.17,-4.383 z" /></g><g
           transform="translate(153.372,27.3012)"
           id="g544"><path
             id="path546"
             style="fill:#ed1c24;fill-opacity:1;fill-rule:nonzero;stroke:none"
             d="m 0,0 c 0,1.458 -0.881,1.479 -0.935,1.479 -0.486,0 -1.01,-0.507 -1.01,-0.993 0,-0.316 0.188,-0.465 0.316,-0.577 0.32,-0.262 0.694,-0.748 0.694,-1.496 0,-0.844 -1.234,-4.861 -3.461,-4.861 -1.512,0 -1.512,1.346 -1.512,1.662 0,0.86 0.336,1.907 1.026,3.648 0.149,0.39 0.262,0.673 0.262,0.988 0,0.973 -0.823,1.608 -1.775,1.608 -1.869,0 -2.713,-2.559 -2.713,-2.858 0,-0.245 0.262,-0.245 0.32,-0.245 0.262,0 0.279,0.095 0.337,0.299 0.448,1.533 1.25,2.281 1.998,2.281 0.32,0 0.47,-0.204 0.47,-0.652 0,-0.433 -0.15,-0.823 -0.337,-1.255 -0.806,-2.074 -1.009,-2.88 -1.009,-3.553 0,-1.849 1.458,-2.447 2.879,-2.447 C -1.309,-6.972 0,-1.533 0,0" /></g><g
           transform="translate(7.3051,197.5305)"
           id="g548"><path
             id="path550"
             style="fill:#110f0d;fill-opacity:1;fill-rule:nonzero;stroke:none"
             d="m 0,0 c 0,0.499 0.025,0.528 0.395,0.897 1.055,1.081 2.43,1.243 3.012,1.243 1.77,0 3.249,-1.612 3.249,-4.94 0,-3.727 -1.848,-5.099 -3.565,-5.099 -0.374,0 -1.612,0 -2.8,1.426 C 0,-6.129 0,-6.104 0,-5.601 Z m 0,-7.662 c 1.134,-0.926 2.298,-1.188 3.378,-1.188 3.964,0 6.66,2.377 6.66,6.05 0,3.51 -2.405,5.995 -6.207,5.995 -1.982,0 -3.382,-0.818 -3.989,-1.296 V 3.195 L -4.836,2.983 V 1.741 c 1.637,0 1.824,0 1.824,-1.001 v -13.317 h -1.824 v -1.238 c 0.739,0.025 2.327,0.079 3.328,0.079 1.03,0 2.588,-0.054 3.328,-0.079 v 1.238 H 0 Z" /></g><g
           transform="translate(26.4178,187.8785)"
           id="g552"><path
             id="path554"
             style="fill:#110f0d;fill-opacity:1;fill-rule:nonzero;stroke:none"
             d="m 0,0 c -0.091,-0.374 -0.262,-1.084 -0.299,-1.105 -0.353,-0.578 -1.101,-1.587 -2.26,-1.587 -1.293,0 -1.293,1.213 -1.293,1.549 0,1.106 0.524,2.431 1.048,3.798 0.149,0.374 0.261,0.652 0.261,0.952 0,0.972 -0.822,1.607 -1.774,1.607 -1.87,0 -2.713,-2.559 -2.713,-2.858 0,-0.245 0.262,-0.245 0.32,-0.245 0.262,0 0.278,0.095 0.336,0.299 0.449,1.533 1.272,2.281 1.999,2.281 0.32,0 0.469,-0.204 0.469,-0.652 0,-0.432 -0.149,-0.823 -0.336,-1.255 -1.01,-2.58 -1.01,-3.121 -1.01,-3.627 0,-0.316 0,-1.176 0.69,-1.775 0.544,-0.448 1.271,-0.598 1.928,-0.598 1.176,0 1.812,0.636 2.431,1.234 0.411,-1.197 1.662,-1.234 1.886,-1.234 0.636,0 1.122,0.374 1.479,0.989 0.411,0.731 0.673,1.816 0.673,1.87 0,0.245 -0.262,0.245 -0.32,0.245 -0.262,0 -0.278,-0.075 -0.411,-0.582 -0.224,-0.877 -0.578,-1.998 -1.363,-1.998 -0.486,0 -0.619,0.428 -0.619,0.914 0,0.32 0.15,0.993 0.283,1.479 0.128,0.503 0.315,1.271 0.411,1.683 l 0.428,1.662 c 0.112,0.469 0.32,1.292 0.32,1.383 0,0.374 -0.299,0.599 -0.619,0.599 -0.69,0 -0.823,-0.541 -0.973,-1.139 z" /></g><g
           transform="translate(6.3225,15.5516)"
           id="g556"><path
             id="path558"
             style="fill:#110f0d;fill-opacity:1;fill-rule:nonzero;stroke:none"
             d="m 0,0 c 0,0.499 0.024,0.528 0.394,0.897 1.055,1.081 2.43,1.243 3.012,1.243 1.771,0 3.25,-1.612 3.25,-4.94 0,-3.727 -1.848,-5.099 -3.566,-5.099 -0.372,0 -1.611,0 -2.8,1.426 C 0,-6.129 0,-6.104 0,-5.601 Z m 0,-7.662 c 1.135,-0.926 2.298,-1.188 3.377,-1.188 3.965,0 6.661,2.377 6.661,6.05 0,3.511 -2.406,5.995 -6.206,5.995 -1.984,0 -3.383,-0.818 -3.989,-1.296 V 3.195 L -4.837,2.983 V 1.741 c 1.638,0 1.824,0 1.824,-1.001 v -13.317 h -1.824 v -1.238 c 0.739,0.025 2.327,0.079 3.329,0.079 1.029,0 2.588,-0.054 3.327,-0.079 v 1.238 H 0 Z" /></g><g
           transform="translate(27.2475,9.6557)"
           id="g560"><path
             id="path562"
             style="fill:#110f0d;fill-opacity:1;fill-rule:nonzero;stroke:none"
             d="m 0,0 c 0,1.458 -0.883,1.479 -0.936,1.479 -0.487,0 -1.011,-0.507 -1.011,-0.993 0,-0.316 0.189,-0.465 0.317,-0.577 0.322,-0.262 0.694,-0.748 0.694,-1.496 0,-0.844 -1.234,-4.861 -3.46,-4.861 -1.513,0 -1.513,1.346 -1.513,1.662 0,0.86 0.335,1.907 1.027,3.648 0.149,0.39 0.26,0.673 0.26,0.988 0,0.973 -0.821,1.608 -1.773,1.608 -1.87,0 -2.713,-2.559 -2.713,-2.858 0,-0.245 0.261,-0.245 0.319,-0.245 0.261,0 0.28,0.095 0.338,0.299 0.447,1.533 1.25,2.281 1.997,2.281 0.319,0 0.471,-0.204 0.471,-0.652 0,-0.433 -0.152,-0.823 -0.338,-1.255 -0.806,-2.074 -1.01,-2.88 -1.01,-3.553 0,-1.849 1.46,-2.447 2.88,-2.447 C -1.308,-6.972 0,-1.533 0,0" /></g><g
           transform="translate(242.6534,166.9115)"
           id="g564"><path
             id="path566"
             style="fill:#ec008c;fill-opacity:1;fill-rule:nonzero;stroke:none"
             d="M 0,0 C 0,-0.739 -0.043,-0.965 -1.624,-0.965 H -2.116 V -1.602 H 9.727 l 0.864,5.296 H 10.076 C 9.564,0.533 9.093,-0.965 5.563,-0.965 H 2.831 c -0.965,0 -1.008,0.145 -1.008,0.82 V 5.337 H 3.674 C 5.662,5.337 5.89,4.679 5.89,2.935 H 6.402 V 8.376 H 5.89 C 5.89,6.61 5.662,5.974 3.674,5.974 H 1.823 v 4.927 c 0,0.678 0.043,0.82 1.008,0.82 h 2.647 c 3.142,0 3.695,-1.13 4.024,-3.981 h 0.512 L 9.44,12.357 H -2.116 v -0.636 h 0.492 C -0.043,11.721 0,11.495 0,10.756 Z" /></g><g
           transform="translate(259.8056,170.1341)"
           id="g568"><path
             id="path570"
             style="fill:#ec008c;fill-opacity:1;fill-rule:nonzero;stroke:none"
             d="m 0,0 c 0.612,0.781 1.395,1.786 1.889,2.318 0.634,0.74 1.475,1.05 2.44,1.069 V 4.023 C 3.796,3.981 3.18,3.962 2.647,3.962 2.029,3.962 0.942,4.004 0.674,4.023 V 3.387 C 1.108,3.345 1.271,3.08 1.271,2.751 1.271,2.422 1.064,2.157 0.961,2.031 L -0.31,0.433 -1.912,2.506 c -0.184,0.203 -0.184,0.245 -0.184,0.368 0,0.307 0.31,0.494 0.72,0.513 V 4.023 C -1.912,4.004 -3.265,3.962 -3.594,3.962 c -0.43,0 -1.395,0.019 -1.951,0.061 V 3.387 c 1.437,0 1.455,-0.019 2.422,-1.253 l 2.034,-2.647 -1.93,-2.442 c -0.986,-1.191 -2.197,-1.233 -2.629,-1.233 v -0.636 c 0.535,0.042 1.172,0.061 1.705,0.061 0.593,0 1.455,-0.042 1.951,-0.061 v 0.636 c -0.453,0.061 -0.595,0.329 -0.595,0.636 0,0.452 0.595,1.13 1.847,2.609 l 1.558,-2.053 c 0.166,-0.227 0.43,-0.556 0.43,-0.679 0,-0.184 -0.184,-0.494 -0.736,-0.513 v -0.636 c 0.614,0.019 1.763,0.061 2.216,0.061 0.556,0 1.355,-0.019 1.973,-0.061 v 0.636 c -1.111,0 -1.479,0.042 -1.95,0.636 z" /></g><g
           transform="translate(268.3962,173.0272)"
           id="g572"><path
             id="path574"
             style="fill:#ec008c;fill-opacity:1;fill-rule:nonzero;stroke:none"
             d="M 0,0 V 1.356 L -2.957,1.13 V 0.494 c 1.457,0 1.601,-0.123 1.601,-1.027 v -9.606 c 0,-0.923 -0.225,-0.923 -1.601,-0.923 v -0.637 c 0.698,0.02 1.767,0.062 2.3,0.062 0.554,0 1.601,-0.042 2.318,-0.062 v 0.637 c -1.374,0 -1.599,0 -1.599,0.923 v 3.449 0.184 c 0.101,-0.33 0.963,-1.437 2.525,-1.437 2.441,0 4.576,2.011 4.576,4.659 0,2.609 -1.988,4.64 -4.288,4.64 C 1.273,1.356 0.411,0.452 0,0 m 0.062,-5.376 v 4.578 c 0.595,1.047 1.599,1.641 2.647,1.641 1.498,0 2.753,-1.805 2.753,-4.127 0,-2.483 -1.438,-4.207 -2.959,-4.207 -0.821,0 -1.602,0.41 -2.154,1.253 -0.287,0.429 -0.287,0.452 -0.287,0.862" /></g><g
           transform="translate(283.0252,160.3826)"
           id="g576"><path
             id="path578"
             style="fill:#ec008c;fill-opacity:1;fill-rule:nonzero;stroke:none"
             d="m 0,0 c 0,0.061 0,0.103 -0.349,0.452 -2.565,2.586 -3.224,6.468 -3.224,9.606 0,3.575 0.783,7.146 3.306,9.713 C 0,20.016 0,20.058 0,20.12 c 0,0.142 -0.083,0.203 -0.205,0.203 -0.206,0 -2.054,-1.395 -3.265,-4.004 -1.045,-2.257 -1.293,-4.537 -1.293,-6.261 0,-1.598 0.225,-4.084 1.355,-6.403 1.23,-2.525 2.997,-3.858 3.203,-3.858 C -0.083,-0.203 0,-0.142 0,0" /></g><g
           transform="translate(288.6007,172.065)"
           id="g580"><path
             id="path582"
             style="fill:#ec008c;fill-opacity:1;fill-rule:nonzero;stroke:none"
             d="m 0,0 c 0,0.387 0.019,0.41 0.306,0.697 0.82,0.84 1.889,0.966 2.341,0.966 1.377,0 2.525,-1.253 2.525,-3.839 0,-2.897 -1.436,-3.962 -2.771,-3.962 -0.289,0 -1.252,0 -2.176,1.107 C 0,-4.763 0,-4.743 0,-4.353 Z m 0,-5.954 c 0.882,-0.72 1.785,-0.924 2.624,-0.924 3.082,0 5.177,1.847 5.177,4.702 0,2.728 -1.87,4.659 -4.823,4.659 -1.542,0 -2.629,-0.636 -3.1,-1.007 V 2.483 L -3.759,2.318 V 1.353 c 1.273,0 1.418,0 1.418,-0.778 V -9.774 h -1.418 v -0.962 c 0.574,0.019 1.808,0.061 2.587,0.061 0.8,0 2.011,-0.042 2.585,-0.061 v 0.962 H 0 Z" /></g><g
           transform="translate(303.4529,164.5641)"
           id="g584"><path
             id="path586"
             style="fill:#ec008c;fill-opacity:1;fill-rule:nonzero;stroke:none"
             d="m 0,0 c -0.07,-0.291 -0.202,-0.843 -0.231,-0.859 -0.275,-0.449 -0.856,-1.233 -1.757,-1.233 -1.004,0 -1.004,0.942 -1.004,1.204 0,0.859 0.407,1.889 0.814,2.951 0.116,0.291 0.202,0.507 0.202,0.74 0,0.755 -0.638,1.249 -1.378,1.249 -1.453,0 -2.108,-1.989 -2.108,-2.221 0,-0.191 0.203,-0.191 0.248,-0.191 0.203,0 0.217,0.075 0.263,0.233 0.347,1.191 0.987,1.773 1.552,1.773 0.248,0 0.365,-0.159 0.365,-0.507 0,-0.336 -0.117,-0.64 -0.262,-0.976 -0.785,-2.005 -0.785,-2.425 -0.785,-2.818 0,-0.246 0,-0.914 0.537,-1.379 0.424,-0.349 0.988,-0.465 1.498,-0.465 0.914,0 1.407,0.494 1.889,0.959 0.32,-0.93 1.292,-0.959 1.465,-0.959 0.494,0 0.872,0.29 1.151,0.768 0.318,0.569 0.523,1.411 0.523,1.453 0,0.191 -0.205,0.191 -0.25,0.191 -0.203,0 -0.215,-0.058 -0.318,-0.452 -0.176,-0.682 -0.451,-1.553 -1.06,-1.553 -0.379,0 -0.482,0.332 -0.482,0.71 0,0.249 0.118,0.772 0.221,1.15 0.099,0.39 0.244,0.988 0.318,1.307 l 0.333,1.292 c 0.087,0.365 0.25,1.004 0.25,1.075 0,0.291 -0.233,0.465 -0.481,0.465 -0.538,0 -0.641,-0.42 -0.757,-0.885 z" /></g><g
           transform="translate(312.2232,165.3294)"
           id="g588"><path
             id="path590"
             style="fill:#ec008c;fill-opacity:1;fill-rule:nonzero;stroke:none"
             d="m 0,0 c 0,1.356 -0.512,2.157 -1.314,2.157 -0.678,0 -1.087,-0.513 -1.087,-1.088 0,-0.556 0.409,-1.088 1.087,-1.088 0.246,0 0.514,0.08 0.717,0.268 0.062,0.038 0.085,0.061 0.103,0.061 0.021,0 0.041,-0.023 0.041,-0.31 0,-1.518 -0.719,-2.751 -1.397,-3.426 -0.225,-0.226 -0.225,-0.268 -0.225,-0.329 0,-0.146 0.104,-0.226 0.207,-0.226 C -1.643,-3.981 0,-2.399 0,0" /></g><g
           transform="translate(322.5363,173.0272)"
           id="g592"><path
             id="path594"
             style="fill:#ec008c;fill-opacity:1;fill-rule:nonzero;stroke:none"
             d="M 0,0 C 0.122,0.287 0.207,0.433 1.517,0.433 V 1.398 C 1.004,1.356 0.409,1.337 -0.103,1.337 c -0.515,0 -1.439,0.039 -1.868,0.061 V 0.433 c 0.388,0 0.985,-0.062 0.985,-0.226 0,-0.02 -0.022,-0.062 -0.103,-0.246 L -3.47,-5.173 -6.078,0.433 H -4.97 V 1.398 C -5.646,1.356 -7.495,1.337 -7.514,1.337 c -0.574,0 -1.498,0.039 -2.341,0.061 V 0.433 h 1.314 l 3.594,-7.718 c 0.246,-0.513 0.512,-0.513 0.777,-0.513 0.349,0 0.556,0.061 0.762,0.491 z" /></g><g
           transform="translate(328.6909,164.5641)"
           id="g596"><path
             id="path598"
             style="fill:#ec008c;fill-opacity:1;fill-rule:nonzero;stroke:none"
             d="m 0,0 c -0.07,-0.291 -0.203,-0.843 -0.231,-0.859 -0.275,-0.449 -0.856,-1.233 -1.757,-1.233 -1.004,0 -1.004,0.942 -1.004,1.204 0,0.859 0.407,1.889 0.814,2.951 0.116,0.291 0.202,0.507 0.202,0.74 0,0.755 -0.638,1.249 -1.378,1.249 -1.453,0 -2.108,-1.989 -2.108,-2.221 0,-0.191 0.203,-0.191 0.248,-0.191 0.203,0 0.217,0.075 0.263,0.233 0.347,1.191 0.987,1.773 1.551,1.773 0.248,0 0.366,-0.159 0.366,-0.507 0,-0.336 -0.118,-0.64 -0.262,-0.976 -0.785,-2.005 -0.785,-2.425 -0.785,-2.818 0,-0.246 0,-0.914 0.537,-1.379 0.424,-0.349 0.988,-0.465 1.498,-0.465 0.914,0 1.407,0.494 1.889,0.959 0.32,-0.93 1.291,-0.959 1.465,-0.959 0.494,0 0.872,0.29 1.151,0.768 0.318,0.569 0.523,1.411 0.523,1.453 0,0.191 -0.205,0.191 -0.25,0.191 -0.203,0 -0.215,-0.058 -0.318,-0.452 -0.176,-0.682 -0.451,-1.553 -1.06,-1.553 -0.379,0 -0.482,0.332 -0.482,0.71 0,0.249 0.118,0.772 0.221,1.15 0.099,0.39 0.244,0.988 0.318,1.307 l 0.333,1.292 c 0.087,0.365 0.25,1.004 0.25,1.075 0,0.291 -0.233,0.465 -0.481,0.465 -0.538,0 -0.641,-0.42 -0.757,-0.885 z" /></g><g
           transform="translate(337.4306,170.4408)"
           id="g600"><path
             id="path602"
             style="fill:#ec008c;fill-opacity:1;fill-rule:nonzero;stroke:none"
             d="m 0,0 c 0,1.602 -0.225,4.088 -1.352,6.406 -1.233,2.525 -2.996,3.859 -3.203,3.859 -0.124,0 -0.206,-0.081 -0.206,-0.203 0,-0.062 0,-0.104 0.39,-0.475 C -2.36,7.556 -1.188,4.291 -1.188,0 c 0,-3.51 -0.761,-7.123 -3.307,-9.709 -0.266,-0.246 -0.266,-0.288 -0.266,-0.349 0,-0.123 0.082,-0.204 0.206,-0.204 0.207,0 2.052,1.395 3.263,4.001 C -0.244,-4.001 0,-1.724 0,0" /></g><g
           transform="translate(244.5699,7.604)"
           id="g604"><path
             id="path606"
             style="fill:#ec008c;fill-opacity:1;fill-rule:nonzero;stroke:none"
             d="M 0,0 C 0,-0.739 -0.043,-0.965 -1.624,-0.965 H -2.116 V -1.602 H 9.727 l 0.864,5.296 H 10.076 C 9.564,0.533 9.093,-0.965 5.563,-0.965 H 2.831 c -0.965,0 -1.008,0.145 -1.008,0.82 V 5.337 H 3.674 C 5.662,5.337 5.89,4.679 5.89,2.935 H 6.402 V 8.376 H 5.89 C 5.89,6.61 5.662,5.974 3.674,5.974 H 1.823 v 4.927 c 0,0.678 0.043,0.82 1.008,0.82 h 2.647 c 3.142,0 3.695,-1.13 4.024,-3.981 h 0.512 L 9.44,12.357 H -2.116 v -0.636 h 0.492 C -0.043,11.721 0,11.495 0,10.756 Z" /></g><g
           transform="translate(261.7222,10.8265)"
           id="g608"><path
             id="path610"
             style="fill:#ec008c;fill-opacity:1;fill-rule:nonzero;stroke:none"
             d="m 0,0 c 0.612,0.781 1.395,1.786 1.889,2.318 0.634,0.74 1.475,1.05 2.44,1.069 V 4.023 C 3.796,3.981 3.18,3.962 2.647,3.962 2.029,3.962 0.942,4.004 0.674,4.023 V 3.387 C 1.108,3.345 1.271,3.08 1.271,2.751 1.271,2.422 1.064,2.157 0.961,2.031 L -0.31,0.433 -1.912,2.506 c -0.183,0.203 -0.183,0.245 -0.183,0.368 0,0.307 0.309,0.494 0.719,0.513 V 4.023 C -1.912,4.004 -3.265,3.962 -3.594,3.962 c -0.43,0 -1.395,0.019 -1.951,0.061 V 3.387 c 1.437,0 1.455,-0.019 2.422,-1.253 l 2.034,-2.647 -1.93,-2.441 c -0.986,-1.192 -2.197,-1.234 -2.629,-1.234 v -0.636 c 0.535,0.042 1.172,0.061 1.705,0.061 0.593,0 1.455,-0.042 1.951,-0.061 v 0.636 c -0.453,0.061 -0.595,0.329 -0.595,0.636 0,0.452 0.595,1.13 1.847,2.609 l 1.558,-2.053 c 0.166,-0.227 0.43,-0.556 0.43,-0.679 0,-0.184 -0.184,-0.494 -0.736,-0.513 v -0.636 c 0.614,0.019 1.763,0.061 2.216,0.061 0.556,0 1.355,-0.019 1.973,-0.061 v 0.636 c -1.111,0 -1.479,0.042 -1.95,0.636 z" /></g><g
           transform="translate(270.3128,13.7197)"
           id="g612"><path
             id="path614"
             style="fill:#ec008c;fill-opacity:1;fill-rule:nonzero;stroke:none"
             d="M 0,0 V 1.356 L -2.957,1.13 V 0.494 c 1.457,0 1.601,-0.123 1.601,-1.027 v -9.606 c 0,-0.923 -0.225,-0.923 -1.601,-0.923 v -0.637 c 0.698,0.02 1.767,0.062 2.3,0.062 0.554,0 1.601,-0.042 2.318,-0.062 v 0.637 c -1.374,0 -1.599,0 -1.599,0.923 v 3.449 0.184 c 0.101,-0.33 0.963,-1.437 2.525,-1.437 2.441,0 4.576,2.011 4.576,4.659 0,2.609 -1.988,4.64 -4.288,4.64 C 1.273,1.356 0.411,0.452 0,0 m 0.062,-5.376 v 4.578 c 0.595,1.047 1.599,1.641 2.647,1.641 1.498,0 2.753,-1.805 2.753,-4.127 0,-2.483 -1.438,-4.207 -2.959,-4.207 -0.821,0 -1.602,0.41 -2.154,1.253 -0.287,0.429 -0.287,0.452 -0.287,0.862" /></g><g
           transform="translate(284.9417,1.0751)"
           id="g616"><path
             id="path618"
             style="fill:#ec008c;fill-opacity:1;fill-rule:nonzero;stroke:none"
             d="m 0,0 c 0,0.061 0,0.103 -0.349,0.452 -2.565,2.586 -3.224,6.468 -3.224,9.606 0,3.575 0.783,7.146 3.306,9.713 C 0,20.016 0,20.058 0,20.12 c 0,0.142 -0.083,0.203 -0.205,0.203 -0.206,0 -2.054,-1.395 -3.265,-4.004 -1.045,-2.257 -1.293,-4.537 -1.293,-6.261 0,-1.598 0.225,-4.084 1.355,-6.403 1.23,-2.525 2.997,-3.858 3.203,-3.858 C -0.083,-0.203 0,-0.142 0,0" /></g><g
           transform="translate(289.7239,12.7575)"
           id="g620"><path
             id="path622"
             style="fill:#ec008c;fill-opacity:1;fill-rule:nonzero;stroke:none"
             d="m 0,0 c 0,0.387 0.019,0.41 0.306,0.697 0.82,0.84 1.889,0.966 2.341,0.966 1.377,0 2.526,-1.253 2.526,-3.839 0,-2.897 -1.437,-3.962 -2.772,-3.962 -0.289,0 -1.252,0 -2.176,1.107 C 0,-4.763 0,-4.743 0,-4.353 Z m 0,-5.954 c 0.882,-0.72 1.786,-0.924 2.625,-0.924 3.081,0 5.176,1.847 5.176,4.702 0,2.728 -1.87,4.659 -4.823,4.659 -1.542,0 -2.629,-0.636 -3.1,-1.007 V 2.483 L -3.759,2.318 V 1.353 c 1.273,0 1.418,0 1.418,-0.778 V -9.774 h -1.418 v -0.962 c 0.574,0.019 1.808,0.061 2.587,0.061 0.8,0 2.011,-0.042 2.586,-0.061 v 0.962 H 0 Z" /></g><g
           transform="translate(305.9855,8.1756)"
           id="g624"><path
             id="path626"
             style="fill:#ec008c;fill-opacity:1;fill-rule:nonzero;stroke:none"
             d="m 0,0 c 0,1.133 -0.686,1.15 -0.727,1.15 -0.379,0 -0.786,-0.394 -0.786,-0.772 0,-0.246 0.147,-0.362 0.246,-0.449 0.25,-0.203 0.54,-0.581 0.54,-1.162 0,-0.656 -0.959,-3.778 -2.689,-3.778 -1.176,0 -1.176,1.046 -1.176,1.291 0,0.669 0.261,1.482 0.798,2.835 0.116,0.304 0.202,0.523 0.202,0.769 0,0.755 -0.638,1.249 -1.378,1.249 -1.453,0 -2.108,-1.989 -2.108,-2.221 0,-0.191 0.203,-0.191 0.248,-0.191 0.203,0 0.217,0.075 0.263,0.233 0.347,1.191 0.971,1.773 1.551,1.773 0.248,0 0.366,-0.159 0.366,-0.507 0,-0.336 -0.118,-0.64 -0.262,-0.976 -0.626,-1.611 -0.785,-2.237 -0.785,-2.76 0,-1.437 1.134,-1.902 2.238,-1.902 C -1.017,-5.418 0,-1.191 0,0" /></g><g
           transform="translate(311.3132,6.0219)"
           id="g628"><path
             id="path630"
             style="fill:#ec008c;fill-opacity:1;fill-rule:nonzero;stroke:none"
             d="m 0,0 c 0,1.356 -0.513,2.157 -1.314,2.157 -0.678,0 -1.087,-0.513 -1.087,-1.088 0,-0.556 0.409,-1.088 1.087,-1.088 0.246,0 0.514,0.08 0.717,0.268 0.062,0.038 0.084,0.061 0.103,0.061 0.021,0 0.041,-0.023 0.041,-0.31 0,-1.518 -0.719,-2.751 -1.397,-3.426 -0.225,-0.226 -0.225,-0.268 -0.225,-0.329 0,-0.146 0.104,-0.226 0.207,-0.226 C -1.643,-3.981 0,-2.399 0,0" /></g><g
           transform="translate(322.8329,13.7197)"
           id="g632"><path
             id="path634"
             style="fill:#ec008c;fill-opacity:1;fill-rule:nonzero;stroke:none"
             d="M 0,0 C 0.122,0.287 0.207,0.433 1.517,0.433 V 1.398 C 1.004,1.356 0.409,1.337 -0.103,1.337 c -0.515,0 -1.439,0.039 -1.868,0.061 V 0.433 c 0.388,0 0.985,-0.062 0.985,-0.226 0,-0.02 -0.022,-0.062 -0.103,-0.246 L -3.47,-5.173 -6.078,0.433 H -4.97 V 1.398 C -5.646,1.356 -7.495,1.337 -7.514,1.337 c -0.574,0 -1.498,0.039 -2.341,0.061 V 0.433 h 1.314 l 3.594,-7.718 c 0.246,-0.513 0.512,-0.513 0.777,-0.513 0.349,0 0.556,0.061 0.762,0.491 z" /></g><g
           transform="translate(330.6035,8.1756)"
           id="g636"><path
             id="path638"
             style="fill:#ec008c;fill-opacity:1;fill-rule:nonzero;stroke:none"
             d="m 0,0 c 0,1.133 -0.686,1.15 -0.727,1.15 -0.379,0 -0.786,-0.394 -0.786,-0.772 0,-0.246 0.147,-0.362 0.246,-0.449 0.25,-0.203 0.54,-0.581 0.54,-1.162 0,-0.656 -0.959,-3.778 -2.689,-3.778 -1.176,0 -1.176,1.046 -1.176,1.291 0,0.669 0.261,1.482 0.798,2.835 0.116,0.304 0.202,0.523 0.202,0.769 0,0.755 -0.638,1.249 -1.378,1.249 -1.453,0 -2.108,-1.989 -2.108,-2.221 0,-0.191 0.203,-0.191 0.248,-0.191 0.203,0 0.217,0.075 0.263,0.233 0.347,1.191 0.971,1.773 1.552,1.773 0.247,0 0.365,-0.159 0.365,-0.507 0,-0.336 -0.118,-0.64 -0.262,-0.976 -0.626,-1.611 -0.785,-2.237 -0.785,-2.76 0,-1.437 1.134,-1.902 2.238,-1.902 C -1.017,-5.418 0,-1.191 0,0" /></g><g
           transform="translate(337.2807,11.1333)"
           id="g640"><path
             id="path642"
             style="fill:#ec008c;fill-opacity:1;fill-rule:nonzero;stroke:none"
             d="m 0,0 c 0,1.602 -0.225,4.088 -1.352,6.406 -1.233,2.525 -2.996,3.859 -3.203,3.859 -0.124,0 -0.206,-0.081 -0.206,-0.203 0,-0.062 0,-0.104 0.39,-0.475 C -2.36,7.556 -1.188,4.291 -1.188,0 c 0,-3.51 -0.761,-7.123 -3.307,-9.709 -0.266,-0.246 -0.266,-0.288 -0.266,-0.349 0,-0.123 0.082,-0.204 0.206,-0.204 0.207,0 2.052,1.395 3.263,4.001 C -0.244,-4.001 0,-1.724 0,0" /></g></g></g></g></svg>