<?xml version="1.0" encoding="UTF-8" standalone="no"?>
<svg
   xmlns:dc="http://purl.org/dc/elements/1.1/"
   xmlns:cc="http://creativecommons.org/ns#"
   xmlns:rdf="http://www.w3.org/1999/02/22-rdf-syntax-ns#"
   xmlns:svg="http://www.w3.org/2000/svg"
   xmlns="http://www.w3.org/2000/svg"
   viewBox="0 0 450.28534 284.68799"
   height="284.68799"
   width="450.28534"
   xml:space="preserve"
   id="svg2"
   version="1.1"><metadata
     id="metadata8"><rdf:RDF><cc:Work
         rdf:about=""><dc:format>image/svg+xml</dc:format><dc:type
           rdf:resource="http://purl.org/dc/dcmitype/StillImage" /></cc:Work></rdf:RDF></metadata><defs
     id="defs6"><clipPath
       id="clipPath18"
       clipPathUnits="userSpaceOnUse"><path
         id="path16"
         d="M 0,213.516 H 337.714 V 0 H 0 Z" /></clipPath><clipPath
       id="clipPath26"
       clipPathUnits="userSpaceOnUse"><path
         id="path24"
         d="M 1.05988,199.588 H 335.48 V 0.902008 H 1.05988 Z" /></clipPath><clipPath
       id="clipPath62"
       clipPathUnits="userSpaceOnUse"><path
         id="path60"
         d="M 0,213.516 H 337.714 V 0 H 0 Z" /></clipPath><clipPath
       id="clipPath70"
       clipPathUnits="userSpaceOnUse"><path
         id="path68"
         d="m 242.344,144.541 h 24.102 V 107.41 h -24.102 z" /></clipPath><clipPath
       id="clipPath86"
       clipPathUnits="userSpaceOnUse"><path
         id="path84"
         d="m 242.139,108.95 h 14.72 V 68.0733 h -14.72 z" /></clipPath><clipPath
       id="clipPath110"
       clipPathUnits="userSpaceOnUse"><path
         id="path108"
         d="M 0,213.516 H 337.714 V 0 H 0 Z" /></clipPath><clipPath
       id="clipPath142"
       clipPathUnits="userSpaceOnUse"><path
         id="path140"
         d="M 237.487,183.144 H 300.83 V 101.843 H 237.487 Z" /></clipPath><clipPath
       id="clipPath166"
       clipPathUnits="userSpaceOnUse"><path
         id="path164"
         d="M 35.0872,155.555 H 262.218 V 16.7086 H 35.0872 Z" /></clipPath><clipPath
       id="clipPath170"
       clipPathUnits="userSpaceOnUse"><path
         id="path168"
         d="M 35.0874,155.555 H 262.219 V 16.7085 H 35.0874 Z" /></clipPath><mask
       id="mask172"
       height="1"
       width="1"
       y="0"
       x="0"
       maskUnits="userSpaceOnUse"><g
         id="g198"><g
           id="g196"
           clip-path="url(#clipPath166)"><path
             id="path174"
             style="fill:#000000;fill-opacity:1;fill-rule:nonzero;stroke:none"
             d="M 35.087,155.555 H 262.218 V 16.708 H 35.087 Z" /><g
             id="g194"><g
               id="g176" /><g
               id="g192"><g
                 id="g190"
                 clip-path="url(#clipPath170)"><g
                   id="g180"
                   transform="translate(339.9561,262.3735)"><path
                     id="path178"
                     style="fill:#ffffff;fill-opacity:1;fill-rule:nonzero;stroke:none"
                     d="m 0,0 9.773,-267.822 -346.769,-12.654 -9.773,267.822 z" /></g><g
                   id="g184"
                   transform="translate(207.4067,233.4717)"><path
                     id="path182"
                     style="fill:#231f20;fill-opacity:1;fill-rule:nonzero;stroke:none"
                     d="M 0,0 101.055,-138.557 -51.052,-218.458 Z" /></g><g
                   id="g188"
                   transform="translate(207.4067,233.4717)"><path
                     id="path186"
                     style="fill:none;stroke:#ffffff;stroke-width:1;stroke-linecap:butt;stroke-linejoin:miter;stroke-miterlimit:10;stroke-dasharray:none;stroke-opacity:1"
                     d="M 0,0 101.055,-138.557 -51.052,-218.458 Z" /></g></g></g></g></g></g></mask><clipPath
       id="clipPath206"
       clipPathUnits="userSpaceOnUse"><path
         id="path204"
         d="M 35.0872,155.555 H 262.218 V 16.7086 H 35.0872 Z" /></clipPath><clipPath
       id="clipPath210"
       clipPathUnits="userSpaceOnUse"><path
         id="path208"
         d="M 35.0872,155.555 H 256.256 V 19.3614 H 35.0872 Z" /></clipPath><clipPath
       id="clipPath290"
       clipPathUnits="userSpaceOnUse"><path
         id="path288"
         d="M 0,213.516 H 337.714 V 0 H 0 Z" /></clipPath><clipPath
       id="clipPath366"
       clipPathUnits="userSpaceOnUse"><path
         id="path364"
         d="M 0,213.516 H 337.714 V 0 H 0 Z" /></clipPath></defs><g
     transform="matrix(1.3333333,0,0,-1.3333333,0,284.688)"
     id="g10"><g
       id="g12"><g
         clip-path="url(#clipPath18)"
         id="g14"><g
           id="g20"><g
             id="g22" /><g
             id="g34"><g
               style="opacity:0.5"
               id="g32"
               clip-path="url(#clipPath26)"><g
                 id="g30"
                 transform="translate(239.8513,1.0573)"><path
                   id="path28"
                   style="fill:#96c091;fill-opacity:1;fill-rule:nonzero;stroke:none"
                   d="m 0,0 c -18.857,1.101 -36.018,7.964 -49.899,18.792 l -0.002,10e-4 -10.407,8.32 c -47.205,40.214 -61.467,50.169 -134.704,62.245 -24.341,4.014 -45.24,30.004 -43.699,56.104 1.889,31.986 28.07,54.853 61.099,52.959 9.859,-0.565 34.515,-10.746 34.515,-10.746 30.899,-12.202 64.342,-16.438 97.299,-12.324 l 51.495,6.428 0.011,-0.001 c 1.662,-0.005 3.333,-0.057 5.014,-0.154 C 60.485,178.716 98.427,135.701 95.466,85.547 92.506,35.391 49.763,-2.908 0,0" /></g></g></g></g></g></g><g
       transform="translate(5.4748,213.516)"
       id="g36"><path
         id="path38"
         style="fill:#b6e1f7;fill-opacity:1;fill-rule:nonzero;stroke:none"
         d="M 0,0 39.005,-213.516 H 43.06 L 129.808,-8.014 5.807,0 Z" /></g><g
       transform="translate(3.95,213.516)"
       id="g40"><path
         id="path42"
         style="fill:#ffffff;fill-opacity:1;fill-rule:nonzero;stroke:none"
         d="m 0,0 39.005,-213.516 h 3.05 L 3.277,-1.241 129.13,-9.375 42.956,-213.516 h 3.257 L 133.536,-6.654 30.579,0 Z" /></g><g
       transform="translate(207.3965,208.9401)"
       id="g44"><path
         id="path46"
         style="fill:#a2caed;fill-opacity:1;fill-rule:nonzero;stroke:none"
         d="M 0,0 98.69,-113.578 -48.755,-191.03 Z" /></g><g
       transform="translate(206.6511,212.0851)"
       id="g48"><path
         id="path50"
         style="fill:#ffffff;fill-opacity:1;fill-rule:nonzero;stroke:none"
         d="m 0,0 -50.297,-197.071 152.108,79.901 z M 1.491,-6.29 97.06,-116.276 -45.723,-191.28 Z" /></g><g
       transform="translate(254.929,68.5995)"
       id="g52"><path
         id="path54"
         style="fill:#ffffff;fill-opacity:1;fill-rule:nonzero;stroke:#37454f;stroke-width:4;stroke-linecap:butt;stroke-linejoin:miter;stroke-miterlimit:10;stroke-dasharray:none;stroke-opacity:1"
         d="M 0,0 7.212,-26.447" /></g><g
       id="g56"><g
         clip-path="url(#clipPath62)"
         id="g58"><g
           id="g64"><g
             id="g66" /><g
             id="g78"><g
               style="opacity:0.24000501"
               id="g76"
               clip-path="url(#clipPath70)"><g
                 id="g74"
                 transform="translate(264.7217,143.5269)"><path
                   id="path72"
                   style="fill:#ffffff;fill-opacity:1;fill-rule:nonzero;stroke:#37454f;stroke-width:4;stroke-linecap:butt;stroke-linejoin:miter;stroke-miterlimit:10;stroke-dasharray:none;stroke-opacity:1"
                   d="M 0,0 -20.653,-35.103" /></g></g></g></g><g
           id="g80"><g
             id="g82" /><g
             id="g94"><g
               style="opacity:0.24000501"
               id="g92"
               clip-path="url(#clipPath86)"><g
                 id="g90"
                 transform="translate(244.0683,108.4241)"><path
                   id="path88"
                   style="fill:#ffffff;fill-opacity:1;fill-rule:nonzero;stroke:#37454f;stroke-width:4;stroke-linecap:butt;stroke-linejoin:miter;stroke-miterlimit:10;stroke-dasharray:none;stroke-opacity:1"
                   d="M 0,0 10.861,-39.825" /></g></g></g></g></g></g><g
       transform="translate(288.0201,182.8593)"
       id="g96"><path
         id="path98"
         style="fill:#ffffff;fill-opacity:1;fill-rule:nonzero;stroke:#37454f;stroke-width:4;stroke-linecap:butt;stroke-linejoin:miter;stroke-miterlimit:10;stroke-dasharray:none;stroke-opacity:1"
         d="M 0,0 -23.298,-39.332" /></g><g
       transform="translate(206.6511,212.0851)"
       id="g100"><path
         id="path102"
         style="fill:#ffffff;fill-opacity:1;fill-rule:nonzero;stroke:none"
         d="m 0,0 -50.297,-197.071 152.108,79.901 z M 1.491,-6.29 97.06,-116.276 -45.723,-191.28 Z" /></g><g
       id="g104"><g
         clip-path="url(#clipPath110)"
         id="g106"><g
           transform="translate(49.6622,153.9185)"
           id="g112"><path
             id="path114"
             style="fill:#ffffff;fill-opacity:1;fill-rule:nonzero;stroke:none"
             d="m 0,0 c -2.73,4.414 -8.524,5.78 -12.938,3.049 -4.415,-2.73 -5.78,-8.524 -3.05,-12.938 2.731,-4.414 8.525,-5.78 12.939,-3.049 C 1.365,-10.208 2.73,-4.414 0,0" /></g><g
           transform="translate(291.7391,171.1017)"
           id="g116"><path
             id="path118"
             style="fill:none;stroke:#ffffff;stroke-width:12;stroke-linecap:round;stroke-linejoin:miter;stroke-miterlimit:10;stroke-dasharray:none;stroke-opacity:1"
             d="m 0,0 3.978,-13.46 -8.29,-18.201 -0.596,-20.607 -42.763,-10.41" /></g><g
           transform="translate(287.3408,185.6051)"
           id="g120"><path
             id="path122"
             style="fill:#ffffff;fill-opacity:1;fill-rule:nonzero;stroke:none"
             d="M 0,0 15.667,-14.839 -5.018,-20.99 Z" /></g><g
           transform="translate(287.3408,185.6051)"
           id="g124"><path
             id="path126"
             style="fill:none;stroke:#ffffff;stroke-width:1.73099995;stroke-linecap:butt;stroke-linejoin:miter;stroke-miterlimit:10;stroke-dasharray:none;stroke-opacity:1"
             d="M 0,0 15.667,-14.839 -5.018,-20.99 Z" /></g><g
           transform="translate(243.2453,117.7922)"
           id="g128"><path
             id="path130"
             style="fill:#ffffff;fill-opacity:1;fill-rule:nonzero;stroke:none"
             d="m 0,0 c -6.489,-0.619 -10.394,-7.319 -7.734,-13.27 1.611,-3.603 5.45,-5.841 9.379,-5.466 6.489,0.618 10.395,7.319 7.734,13.27 C 7.768,-1.862 3.929,0.375 0,0" /></g><g
           transform="translate(243.2453,117.7922)"
           id="g132"><path
             id="path134"
             style="fill:none;stroke:#ffffff;stroke-width:2;stroke-linecap:butt;stroke-linejoin:miter;stroke-miterlimit:10;stroke-dasharray:none;stroke-opacity:1"
             d="m 0,0 c -6.489,-0.619 -10.394,-7.319 -7.734,-13.27 1.611,-3.603 5.45,-5.841 9.379,-5.466 6.489,0.618 10.395,7.319 7.734,13.27 C 7.768,-1.862 3.929,0.375 0,0 Z" /></g><g
           id="g136"><g
             id="g138" /><g
             id="g158"><g
               style="opacity:0.5"
               id="g156"
               clip-path="url(#clipPath142)"><g
                 id="g146"
                 transform="translate(291.7391,171.1017)"><path
                   id="path144"
                   style="fill:none;stroke:#40b93c;stroke-width:7;stroke-linecap:round;stroke-linejoin:miter;stroke-miterlimit:10;stroke-dasharray:none;stroke-opacity:1"
                   d="m 0,0 3.978,-13.46 -8.29,-18.201 -0.596,-20.607 -42.763,-10.41" /></g><g
                 id="g150"
                 transform="translate(284.0954,166.1801)"><path
                   id="path148"
                   style="fill:#40b93c;fill-opacity:1;fill-rule:nonzero;stroke:none"
                   d="M 0,0 4.084,16.964 16.735,4.946 Z" /></g><g
                 id="g154"
                 transform="translate(242.512,114.817)"><path
                   id="path152"
                   style="fill:#40b93c;fill-opacity:1;fill-rule:nonzero;stroke:none"
                   d="m 0,0 c -3.53,-0.859 -5.696,-4.419 -4.837,-7.949 0.86,-3.53 4.419,-5.696 7.95,-4.837 3.53,0.86 5.695,4.419 4.836,7.949 C 7.09,-1.306 3.53,0.859 0,0" /></g></g></g></g><g
           id="g160"><g
             id="g162" /><g
             mask="url(#mask172)"
             id="g200"><g
               id="g202" /><g
               id="g246"><g
                 id="g244"
                 clip-path="url(#clipPath206)"><g
                   id="g214"
                   transform="translate(245.0677,33.9056)"><path
                     id="path212"
                     style="fill:none;stroke:#ffffff;stroke-width:12;stroke-linecap:round;stroke-linejoin:miter;stroke-miterlimit:10;stroke-dasharray:none;stroke-opacity:1"
                     d="m 0,0 -21.179,-10.792 -37.358,10.365 -40.423,-9.309 -31.638,7.689 -15.222,27.373 -23.633,5.051 -33.946,84.691" /></g><g
                   id="g218"
                   transform="translate(235.547,42.8748)"><path
                     id="path216"
                     style="fill:#ffffff;fill-opacity:1;fill-rule:nonzero;stroke:none"
                     d="M 0,0 24.885,-1.442 11.195,-22.274 Z" /></g><g
                   id="g222"
                   transform="translate(235.547,42.8748)"><path
                     id="path220"
                     style="fill:none;stroke:#ffffff;stroke-width:2;stroke-linecap:butt;stroke-linejoin:miter;stroke-miterlimit:10;stroke-dasharray:none;stroke-opacity:1"
                     d="M 0,0 24.885,-1.442 11.195,-22.274 Z" /></g><g
                   id="g242"><g
                     id="g224" /><g
                     id="g240"><g
                       style="opacity:0.69999701"
                       id="g238"
                       clip-path="url(#clipPath210)"><g
                         id="g228"
                         transform="translate(245.0677,33.9056)"><path
                           id="path226"
                           style="fill:none;stroke:#40b93c;stroke-width:7;stroke-linecap:round;stroke-linejoin:miter;stroke-miterlimit:10;stroke-dasharray:none;stroke-opacity:1"
                           d="m 0,0 -21.179,-10.792 -36.977,10.961 -40.805,-9.905 -31.637,7.689 -15.222,27.373 -23.633,5.051 -33.946,84.691" /></g><g
                         id="g232"
                         transform="translate(238.8315,40.5206)"><path
                           id="path230"
                           style="fill:#40b93c;fill-opacity:1;fill-rule:nonzero;stroke:none"
                           d="M 0,0 17.425,-0.913 7.923,-15.548 Z" /></g><g
                         id="g236"
                         transform="translate(47.7757,151.4218)"><path
                           id="path234"
                           style="fill:#40b93c;fill-opacity:1;fill-rule:nonzero;stroke:none"
                           d="m 0,0 c -1.352,3.373 -5.183,5.011 -8.555,3.659 -3.373,-1.351 -5.011,-5.182 -3.66,-8.555 1.352,-3.372 5.183,-5.011 8.556,-3.659 C -0.287,-7.203 1.352,-3.372 0,0" /></g></g></g></g></g></g></g></g><g
           transform="translate(225.7244,103.3738)"
           id="g248"><path
             id="path250"
             style="fill:none;stroke:#ffffff;stroke-width:12;stroke-linecap:round;stroke-linejoin:miter;stroke-miterlimit:10;stroke-dasharray:none;stroke-opacity:1"
             d="M 0,0 -47.646,-11.482 -66.157,2.884 -89.503,-7.36 -105.512,9.602 -133.838,3.385 -184.056,45.6" /></g><g
           transform="translate(45.83,157.4018)"
           id="g252"><path
             id="path254"
             style="fill:#ffffff;fill-opacity:1;fill-rule:nonzero;stroke:none"
             d="m 0,0 c -4.654,2.298 -10.292,0.388 -12.59,-4.266 -2.298,-4.654 -0.387,-10.292 4.267,-12.59 4.654,-2.298 10.291,-0.387 12.589,4.266 C 6.564,-7.936 4.654,-2.298 0,0" /></g><g
           transform="translate(45.83,157.4018)"
           id="g256"><path
             id="path258"
             style="fill:none;stroke:#ffffff;stroke-width:2;stroke-linecap:butt;stroke-linejoin:miter;stroke-miterlimit:10;stroke-dasharray:none;stroke-opacity:1"
             d="m 0,0 c -4.654,2.298 -10.292,0.388 -12.59,-4.266 -2.298,-4.654 -0.387,-10.292 4.267,-12.59 4.654,-2.298 10.291,-0.387 12.589,4.266 C 6.564,-7.936 4.654,-2.298 0,0 Z" /></g><g
           transform="translate(218.1899,114.3695)"
           id="g260"><path
             id="path262"
             style="fill:#ffffff;fill-opacity:1;fill-rule:nonzero;stroke:none"
             d="M 0,0 23.963,-6.864 6.038,-24.187 Z" /></g><g
           transform="translate(218.1899,114.3695)"
           id="g264"><path
             id="path266"
             style="fill:none;stroke:#ffffff;stroke-width:2;stroke-linecap:butt;stroke-linejoin:miter;stroke-miterlimit:10;stroke-dasharray:none;stroke-opacity:1"
             d="M 0,0 23.963,-6.864 6.038,-24.187 Z" /></g><g
           transform="translate(225.7245,103.3739)"
           id="g268"><path
             id="path270"
             style="fill:none;stroke:#40b93c;stroke-width:7;stroke-linecap:round;stroke-linejoin:miter;stroke-miterlimit:10;stroke-dasharray:none;stroke-opacity:1"
             d="M 0,0 -47.646,-11.482 -66.157,2.884 -89.503,-7.36 -105.512,9.602 -133.838,3.385 -184.056,45.6" /></g><g
           transform="translate(221.1982,111.2581)"
           id="g272"><path
             id="path274"
             style="fill:#40b93c;fill-opacity:1;fill-rule:nonzero;stroke:none"
             d="M 0,0 16.734,-4.941 4.088,-16.965 Z" /></g><g
           transform="translate(45.9022,154.0103)"
           id="g276"><path
             id="path278"
             style="fill:#40b93c;fill-opacity:1;fill-rule:nonzero;stroke:none"
             d="m 0,0 c -2.781,2.338 -6.932,1.979 -9.27,-0.803 -2.338,-2.781 -1.979,-6.932 0.802,-9.27 2.782,-2.338 6.933,-1.978 9.271,0.803 C 3.141,-6.489 2.781,-2.338 0,0" /></g></g></g><g
       transform="translate(32.9296,141.6503)"
       id="g280"><path
         id="path282"
         style="fill:#ffffff;fill-opacity:1;fill-rule:nonzero;stroke:#ed1c24;stroke-width:4;stroke-linecap:butt;stroke-linejoin:miter;stroke-miterlimit:10;stroke-dasharray:none;stroke-opacity:1"
         d="M 0,0 32.123,-27.003" /></g><g
       id="g284"><g
         clip-path="url(#clipPath290)"
         id="g286"><g
           transform="translate(30.0264,138.1968)"
           id="g292"><path
             id="path294"
             style="fill:#ffffff;fill-opacity:1;fill-rule:nonzero;stroke:none"
             d="M 0,0 C -1.907,1.603 -2.154,4.45 -0.55,6.357 1.053,8.264 3.899,8.51 5.806,6.907 7.713,5.304 7.96,2.458 6.357,0.55 4.754,-1.357 1.907,-1.603 0,0" /></g><g
           transform="translate(35.4467,144.6446)"
           id="g296"><path
             id="path298"
             style="fill:#ed1c24;fill-opacity:1;fill-rule:nonzero;stroke:none"
             d="M 0,0 C 1.651,-1.388 1.865,-3.86 0.477,-5.511 -0.911,-7.163 -3.383,-7.377 -5.034,-5.989 -6.686,-4.6 -6.9,-2.129 -5.511,-0.477 -4.123,1.174 -1.651,1.388 0,0 1.651,-1.388 -1.651,1.388 0,0 m -5.806,-6.907 c 2.157,-1.814 5.388,-1.534 7.202,0.623 1.813,2.158 1.534,5.389 -0.624,7.203 -2.157,1.813 -5.388,1.533 -7.202,-0.624 -1.814,-2.157 -1.534,-5.389 0.624,-7.202 2.157,-1.814 -2.158,1.813 0,0" /></g><g
           transform="translate(59.8621,111.1939)"
           id="g300"><path
             id="path302"
             style="fill:#ed1c24;fill-opacity:1;fill-rule:nonzero;stroke:none"
             d="M 0,0 11.781,-2.088 7.7,9.16 Z" /></g><g
           transform="translate(21.1708,93.6897)"
           id="g304"><path
             id="path306"
             style="fill:#ffffff;fill-opacity:1;fill-rule:nonzero;stroke:#ed1c24;stroke-width:4;stroke-linecap:butt;stroke-linejoin:miter;stroke-miterlimit:10;stroke-dasharray:none;stroke-opacity:1"
             d="M 0,0 11.759,47.961" /></g><g
           transform="translate(27.3986,93.9654)"
           id="g308"><path
             id="path310"
             style="fill:#ed1c24;fill-opacity:1;fill-rule:nonzero;stroke:none"
             d="M 0,0 -8.278,-8.639 -11.622,2.849 Z" /></g><g
           transform="translate(37.3116,140.576)"
           id="g312"><path
             id="path314"
             style="fill:#ffffff;fill-opacity:1;fill-rule:nonzero;stroke:none"
             d="M 0,0 C 0.593,2.42 -0.888,4.863 -3.308,5.456 -5.727,6.05 -8.171,4.568 -8.764,2.149 -9.357,-0.271 -7.876,-2.714 -5.456,-3.308 -3.037,-3.901 -0.593,-2.42 0,0" /></g><g
           transform="translate(29.1304,142.5818)"
           id="g316"><path
             id="path318"
             style="fill:#ed1c24;fill-opacity:1;fill-rule:nonzero;stroke:none"
             d="m 0,0 c -0.514,-2.095 0.772,-4.217 2.868,-4.731 2.095,-0.513 4.217,0.773 4.73,2.868 C 8.112,0.232 6.826,2.354 4.731,2.868 2.635,3.381 0.514,2.095 0,0 -0.514,-2.095 0.514,2.095 0,0 M 8.764,-2.149 C 8.093,-4.886 5.319,-6.567 2.582,-5.896 c -2.737,0.671 -4.419,3.444 -3.747,6.182 0.671,2.737 3.444,4.418 6.181,3.747 2.738,-0.671 4.419,-3.444 3.748,-6.182 -0.671,-2.737 0.671,2.738 0,0" /></g><g
           transform="translate(243.7724,108.4133)"
           id="g320"><path
             id="path322"
             style="fill:#ffffff;fill-opacity:1;fill-rule:nonzero;stroke:#2c3792;stroke-width:4;stroke-linecap:butt;stroke-linejoin:miter;stroke-miterlimit:10;stroke-dasharray:none;stroke-opacity:1"
             d="M 0,0 9.253,35.114" /></g><g
           transform="translate(248.1351,107.2636)"
           id="g324"><path
             id="path326"
             style="fill:#ffffff;fill-opacity:1;fill-rule:nonzero;stroke:none"
             d="m 0,0 c -0.635,-2.409 -3.103,-3.848 -5.512,-3.213 -2.41,0.635 -3.848,3.103 -3.214,5.512 0.635,2.409 3.104,3.848 5.513,3.213 C -0.804,4.878 0.635,2.409 0,0" /></g><g
           transform="translate(239.9897,109.41)"
           id="g328"><path
             id="path330"
             style="fill:#2c3792;fill-opacity:1;fill-rule:nonzero;stroke:none"
             d="M 0,0 C 0.55,2.086 2.693,3.336 4.779,2.786 6.866,2.236 8.115,0.093 7.565,-1.993 7.015,-4.08 4.872,-5.329 2.786,-4.779 0.7,-4.23 -0.55,-2.086 0,0 0.55,2.086 -0.55,-2.086 0,0 M 8.726,-2.299 C 9.444,0.426 7.81,3.228 5.085,3.946 2.36,4.664 -0.442,3.031 -1.16,0.306 -1.879,-2.42 -0.245,-5.222 2.48,-5.94 c 2.725,-0.718 5.527,0.915 6.246,3.641 0.718,2.725 -0.719,-2.726 0,0" /></g><g
           transform="translate(258.3645,140.3094)"
           id="g332"><path
             id="path334"
             style="fill:#2c3792;fill-opacity:1;fill-rule:nonzero;stroke:none"
             d="M 0,0 -3.145,11.544 -11.571,3.049 Z" /></g><g
           transform="translate(245.1257,71.3262)"
           id="g336"><path
             id="path338"
             style="fill:#ffffff;fill-opacity:1;fill-rule:nonzero;stroke:none"
             d="M 0,0 -1.353,37.087" /></g><g
           transform="translate(245.1257,71.3262)"
           id="g340"><path
             id="path342"
             style="fill:none;stroke:#2c3792;stroke-width:4;stroke-linecap:butt;stroke-linejoin:miter;stroke-miterlimit:10;stroke-dasharray:none;stroke-opacity:1"
             d="M 0,0 -1.353,37.087" /></g><g
           transform="translate(251.0409,73.294)"
           id="g344"><path
             id="path346"
             style="fill:#2c3792;fill-opacity:1;fill-rule:nonzero;stroke:none"
             d="m 0,0 -5.601,-10.573 -6.357,10.137 z" /></g><g
           transform="translate(248.2811,108.5778)"
           id="g348"><path
             id="path350"
             style="fill:#ffffff;fill-opacity:1;fill-rule:nonzero;stroke:none"
             d="m 0,0 c -0.091,2.49 -2.184,4.435 -4.673,4.344 -2.49,-0.091 -4.435,-2.183 -4.344,-4.673 0.09,-2.49 2.183,-4.435 4.673,-4.344 C -1.854,-4.582 0.091,-2.49 0,0" /></g><g
           transform="translate(239.8632,108.2706)"
           id="g352"><path
             id="path354"
             style="fill:#2c3792;fill-opacity:1;fill-rule:nonzero;stroke:none"
             d="M 0,0 C 0.079,-2.156 1.896,-3.845 4.052,-3.766 6.208,-3.688 7.897,-1.871 7.818,0.285 7.74,2.441 5.922,4.13 3.766,4.052 1.61,3.973 -0.079,2.156 0,0 0.079,-2.156 -0.079,2.156 0,0 M 9.017,0.329 C 9.12,-2.487 6.912,-4.863 4.096,-4.966 1.279,-5.068 -1.096,-2.86 -1.199,-0.044 -1.302,2.773 0.906,5.148 3.723,5.251 6.539,5.354 8.915,3.146 9.017,0.329 c 0.103,-2.816 -0.102,2.817 0,0" /></g></g></g><g
       transform="translate(79.3041,106.7191)"
       id="g356"><path
         id="path358"
         style="fill:#ed1c24;fill-opacity:1;fill-rule:nonzero;stroke:none"
         d="M 0,0 -3.744,-3.797 -3.239,-4.302 0,-1.45 3.217,-4.302 3.718,-3.797 Z" /></g><g
       id="g360"><g
         clip-path="url(#clipPath366)"
         id="g362"><g
           transform="translate(84.9467,93.1398)"
           id="g368"><path
             id="path370"
             style="fill:#ed1c24;fill-opacity:1;fill-rule:nonzero;stroke:none"
             d="m 0,0 c 0.615,0 0.896,0 0.896,0.756 0,0.866 -0.171,2.905 -1.564,4.302 -1.037,1.006 -2.518,1.507 -4.443,1.507 -4.469,0 -6.904,-2.878 -6.904,-6.372 0,-3.739 2.795,-6.451 7.295,-6.451 4.412,0 5.616,2.962 5.616,3.437 0,0.501 -0.531,0.501 -0.672,0.501 -0.474,0 -0.532,-0.141 -0.699,-0.585 -0.584,-1.34 -2.179,-2.237 -3.994,-2.237 -3.938,0 -3.968,3.718 -3.968,5.142 z m -8.437,0.923 c 0.057,1.09 0.083,2.263 0.672,3.186 0.725,1.116 1.841,1.45 2.654,1.45 3.27,0 3.322,-3.661 3.353,-4.636 z" /></g><g
           transform="translate(91.0199,96.0622)"
           id="g372"><path
             id="path374"
             style="fill:#ed1c24;fill-opacity:1;fill-rule:nonzero;stroke:none"
             d="m 0,0 c 0,0.299 0,0.751 -0.475,0.751 -0.496,0 -0.496,-0.492 -0.496,-0.848 v -18.052 c 0,-0.356 0,-0.849 0.496,-0.849 0.475,0 0.475,0.453 0.475,0.752 z m 4.368,-0.097 c 0,0.356 0,0.848 -0.492,0.848 C 3.401,0.751 3.401,0.299 3.401,0 v -18.246 c 0,-0.299 0,-0.752 0.475,-0.752 0.492,0 0.492,0.493 0.492,0.849 z" /></g><g
           transform="translate(17.7177,80.4033)"
           id="g376"><path
             id="path378"
             style="fill:#ed1c24;fill-opacity:1;fill-rule:nonzero;stroke:none"
             d="M 0,0 -3.744,-3.797 -3.239,-4.302 0,-1.45 3.217,-4.302 3.718,-3.797 Z" /></g><g
           transform="translate(23.3604,66.8241)"
           id="g380"><path
             id="path382"
             style="fill:#ed1c24;fill-opacity:1;fill-rule:nonzero;stroke:none"
             d="m 0,0 c 0.615,0 0.896,0 0.896,0.756 0,0.866 -0.171,2.905 -1.564,4.302 -1.037,1.006 -2.518,1.507 -4.443,1.507 -4.469,0 -6.904,-2.878 -6.904,-6.372 0,-3.739 2.795,-6.451 7.295,-6.451 4.412,0 5.616,2.962 5.616,3.437 0,0.501 -0.531,0.501 -0.672,0.501 -0.475,0 -0.532,-0.141 -0.699,-0.585 -0.584,-1.34 -2.179,-2.237 -3.994,-2.237 -3.938,0 -3.968,3.718 -3.968,5.142 z m -8.437,0.923 c 0.057,1.09 0.083,2.263 0.672,3.186 0.725,1.116 1.841,1.45 2.654,1.45 3.27,0 3.322,-3.661 3.353,-4.636 z" /></g><g
           transform="translate(34.6717,69.7464)"
           id="g384"><path
             id="path386"
             style="fill:#ed1c24;fill-opacity:1;fill-rule:nonzero;stroke:none"
             d="M 0,0 C 0,0.294 0,0.769 -0.474,0.769 -0.967,0.769 -0.967,0.316 -0.967,0 V -11.984 H -7 c -0.295,0 -0.791,0 -0.791,-0.474 0,-0.493 0.457,-0.493 0.791,-0.493 H 6.029 c 0.317,0 0.791,0 0.791,0.475 0,0.492 -0.452,0.492 -0.791,0.492 l -6.029,0 z" /></g><g
           transform="translate(31.534,177.5932)"
           id="g388"><path
             id="path390"
             style="fill:#110f0d;fill-opacity:1;fill-rule:nonzero;stroke:none"
             d="m 0,0 c 0,0.527 0.026,0.558 0.418,0.949 1.116,1.143 2.57,1.314 3.186,1.314 1.872,0 3.436,-1.705 3.436,-5.225 0,-3.942 -1.955,-5.392 -3.77,-5.392 -0.396,0 -1.705,0 -2.962,1.507 C 0,-6.482 0,-6.456 0,-5.924 Z m 0,-8.104 c 1.2,-0.979 2.43,-1.256 3.573,-1.256 4.192,0 7.044,2.513 7.044,6.398 0,3.713 -2.544,6.341 -6.565,6.341 -2.096,0 -3.577,-0.865 -4.219,-1.371 V 3.379 L -5.115,3.155 V 1.841 c 1.731,0 1.929,0 1.929,-1.059 v -14.084 h -1.929 v -1.31 c 0.782,0.027 2.461,0.084 3.52,0.084 1.09,0 2.738,-0.057 3.52,-0.084 v 1.31 H 0 Z" /></g><g
           transform="translate(230.4468,131.6606)"
           id="g392"><path
             id="path394"
             style="fill:#276b31;fill-opacity:1;fill-rule:nonzero;stroke:none"
             d="m 0,0 c 0,0.428 0.021,0.453 0.339,0.77 0.906,0.928 2.086,1.067 2.585,1.067 1.52,0 2.789,-1.384 2.789,-4.241 0,-3.199 -1.587,-4.375 -3.06,-4.375 -0.321,0 -1.383,0 -2.403,1.223 C 0,-5.26 0,-5.239 0,-4.807 Z m 0,-6.576 c 0.974,-0.795 1.972,-1.02 2.9,-1.02 3.402,0 5.716,2.04 5.716,5.192 0,3.014 -2.065,5.146 -5.328,5.146 C 1.587,2.742 0.385,2.04 -0.135,1.63 V 2.742 L -4.151,2.561 V 1.494 c 1.405,0 1.566,0 1.566,-0.859 v -11.43 h -1.566 v -1.063 c 0.635,0.022 1.997,0.068 2.857,0.068 0.884,0 2.221,-0.046 2.856,-0.068 v 1.063 H 0 Z" /></g><g
           transform="translate(244.4908,139.9915)"
           id="g396"><path
             id="path398"
             style="fill:#276b31;fill-opacity:1;fill-rule:nonzero;stroke:none"
             d="m 0,0 c 0.128,0.271 0.143,0.399 0.143,0.514 0,0.495 -0.45,0.88 -0.945,0.88 -0.61,0 -0.803,-0.495 -0.885,-0.752 l -2.118,-6.951 c -0.015,-0.032 -0.079,-0.239 -0.079,-0.257 0,-0.192 0.496,-0.353 0.624,-0.353 0.114,0 0.129,0.032 0.243,0.275 z" /></g><g
           transform="translate(220.9673,131.6143)"
           id="g400"><path
             id="path402"
             style="fill:#276b31;fill-opacity:1;fill-rule:nonzero;stroke:none"
             d="m 0,0 c 0.339,0 0.77,0 0.77,0.453 0,0.453 -0.431,0.453 -0.749,0.453 h -13.58 c -0.317,0 -0.749,0 -0.749,-0.453 C -14.308,0 -13.876,0 -13.537,0 Z m 0.021,-4.397 c 0.318,0 0.749,0 0.749,0.453 0,0.453 -0.431,0.453 -0.77,0.453 h -13.537 c -0.339,0 -0.771,0 -0.771,-0.453 0,-0.453 0.432,-0.453 0.749,-0.453 z" /></g><g
           transform="translate(112.6682,125.9689)"
           id="g404"><path
             id="path406"
             style="fill:#276b31;fill-opacity:1;fill-rule:nonzero;stroke:none"
             d="M 0,0 C 0,-0.817 -0.046,-1.066 -1.794,-1.066 H -2.336 V -1.769 H 10.745 L 11.697,4.08 H 11.13 C 10.563,0.588 10.043,-1.066 6.145,-1.066 H 3.128 c -1.067,0 -1.113,0.16 -1.113,0.906 v 6.055 h 2.043 c 2.197,0 2.447,-0.728 2.447,-2.653 H 7.072 V 9.251 H 6.505 C 6.505,7.3 6.255,6.598 4.058,6.598 H 2.015 v 5.442 c 0,0.748 0.046,0.906 1.113,0.906 h 2.924 c 3.47,0 4.08,-1.249 4.443,-4.398 h 0.567 l -0.634,5.1 H -2.336 v -0.702 h 0.542 C -0.046,12.946 0,12.696 0,11.879 Z" /></g><g
           transform="translate(131.612,129.528)"
           id="g408"><path
             id="path410"
             style="fill:#276b31;fill-opacity:1;fill-rule:nonzero;stroke:none"
             d="m 0,0 c 0.677,0.863 1.541,1.972 2.086,2.561 0.703,0.816 1.63,1.159 2.696,1.18 V 4.444 C 4.194,4.397 3.513,4.376 2.924,4.376 2.243,4.376 1.041,4.422 0.745,4.444 V 3.741 C 1.223,3.695 1.405,3.402 1.405,3.038 1.405,2.675 1.177,2.382 1.063,2.243 L -0.342,0.478 -2.111,2.767 c -0.204,0.225 -0.204,0.271 -0.204,0.407 0,0.339 0.343,0.546 0.796,0.567 v 0.703 c -0.592,-0.022 -2.086,-0.068 -2.45,-0.068 -0.475,0 -1.541,0.021 -2.154,0.068 V 3.741 c 1.587,0 1.608,-0.021 2.674,-1.384 l 2.247,-2.924 -2.133,-2.696 C -4.422,-4.579 -5.76,-4.625 -6.237,-4.625 v -0.703 c 0.592,0.046 1.294,0.068 1.883,0.068 0.656,0 1.608,-0.047 2.154,-0.068 v 0.703 c -0.5,0.067 -0.657,0.363 -0.657,0.702 0,0.499 0.657,1.248 2.04,2.882 l 1.723,-2.268 c 0.182,-0.25 0.474,-0.614 0.474,-0.749 0,-0.204 -0.203,-0.546 -0.813,-0.567 v -0.703 c 0.678,0.021 1.947,0.068 2.446,0.068 0.614,0 1.498,-0.022 2.179,-0.068 v 0.703 c -1.226,0 -1.633,0.046 -2.154,0.702 z" /></g><g
           transform="translate(141.1018,132.7234)"
           id="g412"><path
             id="path414"
             style="fill:#276b31;fill-opacity:1;fill-rule:nonzero;stroke:none"
             d="M 0,0 V 1.498 L -3.267,1.248 V 0.546 c 1.609,0 1.769,-0.136 1.769,-1.134 v -10.61 c 0,-1.02 -0.249,-1.02 -1.769,-1.02 v -0.703 c 0.771,0.022 1.951,0.068 2.539,0.068 0.614,0 1.769,-0.046 2.561,-0.067 v 0.702 c -1.516,0 -1.765,0 -1.765,1.02 v 3.809 0.203 c 0.11,-0.364 1.062,-1.587 2.788,-1.587 2.697,0 5.054,2.222 5.054,5.146 0,2.882 -2.197,5.125 -4.736,5.125 C 1.405,1.498 0.453,0.499 0,0 m 0.068,-5.938 v 5.057 c 0.656,1.156 1.765,1.812 2.924,1.812 1.655,0 3.039,-1.994 3.039,-4.558 0,-2.742 -1.587,-4.647 -3.267,-4.647 -0.906,0 -1.769,0.453 -2.379,1.384 -0.317,0.474 -0.317,0.499 -0.317,0.952" /></g><g
           transform="translate(157.2579,118.758)"
           id="g416"><path
             id="path418"
             style="fill:#276b31;fill-opacity:1;fill-rule:nonzero;stroke:none"
             d="m 0,0 c 0,0.068 0,0.114 -0.386,0.499 -2.832,2.857 -3.559,7.143 -3.559,10.61 0,3.948 0.863,7.892 3.651,10.727 C 0,22.107 0,22.154 0,22.221 c 0,0.157 -0.091,0.225 -0.226,0.225 -0.228,0 -2.268,-1.541 -3.605,-4.422 -1.156,-2.493 -1.43,-5.011 -1.43,-6.915 0,-1.765 0.249,-4.511 1.498,-7.072 1.357,-2.789 3.309,-4.262 3.537,-4.262 C -0.091,-0.225 0,-0.157 0,0" /></g><g
           transform="translate(163.6441,131.6607)"
           id="g420"><path
             id="path422"
             style="fill:#276b31;fill-opacity:1;fill-rule:nonzero;stroke:none"
             d="m 0,0 c 0,0.428 0.021,0.453 0.338,0.77 0.906,0.928 2.086,1.067 2.586,1.067 1.52,0 2.789,-1.384 2.789,-4.241 0,-3.199 -1.586,-4.375 -3.061,-4.375 -0.319,0 -1.383,0 -2.403,1.223 C 0,-5.26 0,-5.239 0,-4.807 Z m 0,-6.576 c 0.975,-0.795 1.972,-1.02 2.899,-1.02 3.403,0 5.717,2.04 5.717,5.192 C 8.616,0.61 6.55,2.742 3.289,2.742 1.586,2.742 0.386,2.04 -0.135,1.63 V 2.742 L -4.152,2.561 V 1.494 c 1.406,0 1.566,0 1.566,-0.859 v -11.43 h -1.566 v -1.063 c 0.635,0.022 1.997,0.068 2.858,0.068 0.883,0 2.221,-0.046 2.855,-0.068 v 1.063 H 0 Z" /></g><g
           transform="translate(177.6375,124.2215)"
           id="g424"><path
             id="path426"
             style="fill:#276b31;fill-opacity:1;fill-rule:nonzero;stroke:none"
             d="m 0,0 c 0,1.498 -0.566,2.382 -1.452,2.382 -0.748,0 -1.2,-0.567 -1.2,-1.202 0,-0.613 0.452,-1.201 1.2,-1.201 0.272,0 0.569,0.089 0.792,0.296 0.069,0.042 0.094,0.067 0.114,0.067 0.023,0 0.046,-0.025 0.046,-0.342 0,-1.676 -0.794,-3.038 -1.543,-3.784 -0.249,-0.249 -0.249,-0.296 -0.249,-0.364 0,-0.16 0.115,-0.249 0.229,-0.249 C -1.815,-4.397 0,-2.65 0,0" /></g><g
           transform="translate(194.7782,132.7234)"
           id="g428"><path
             id="path430"
             style="fill:#276b31;fill-opacity:1;fill-rule:nonzero;stroke:none"
             d="M 0,0 C 0.135,0.317 0.228,0.478 1.675,0.478 V 1.544 C 1.109,1.498 0.452,1.476 -0.114,1.476 c -0.568,0 -1.589,0.043 -2.063,0.068 V 0.478 c 0.429,0 1.088,-0.068 1.088,-0.25 0,-0.021 -0.025,-0.068 -0.114,-0.271 l -2.629,-5.67 -2.881,6.191 h 1.224 v 1.066 c -0.747,-0.046 -2.789,-0.068 -2.81,-0.068 -0.634,0 -1.655,0.043 -2.586,0.068 V 0.478 h 1.452 l 3.969,-8.523 c 0.272,-0.567 0.566,-0.567 0.858,-0.567 0.386,0 0.614,0.067 0.842,0.542 z" /></g><g
           transform="translate(203.7777,129.8669)"
           id="g432"><path
             id="path434"
             style="fill:#276b31;fill-opacity:1;fill-rule:nonzero;stroke:none"
             d="m 0,0 c 0,1.769 -0.249,4.515 -1.493,7.075 -1.362,2.789 -3.309,4.262 -3.537,4.262 -0.137,0 -0.229,-0.089 -0.229,-0.225 0,-0.067 0,-0.114 0.432,-0.524 C -2.606,8.345 -1.312,4.74 -1.312,0 c 0,-3.876 -0.84,-7.867 -3.652,-10.724 -0.295,-0.271 -0.295,-0.317 -0.295,-0.385 0,-0.135 0.092,-0.225 0.229,-0.224 0.228,0 2.266,1.54 3.604,4.418 C -0.269,-4.419 0,-1.904 0,0" /></g><g
           transform="translate(136.3137,189.368)"
           id="g436"><path
             id="path438"
             style="fill:#276b31;fill-opacity:1;fill-rule:nonzero;stroke:none"
             d="m 0,0 c 0,-0.817 -0.048,-1.066 -1.794,-1.066 h -0.543 v -0.703 h 13.08 L 11.697,4.08 H 11.129 C 10.563,0.588 10.043,-1.066 6.144,-1.066 H 3.127 c -1.066,0 -1.114,0.16 -1.114,0.906 v 6.055 h 2.045 c 2.196,0 2.447,-0.728 2.447,-2.653 H 7.071 V 9.251 H 6.505 C 6.505,7.3 6.254,6.598 4.058,6.598 H 2.013 v 5.442 c 0,0.748 0.048,0.906 1.114,0.906 h 2.924 c 3.469,0 4.081,-1.249 4.443,-4.398 h 0.567 l -0.635,5.1 H -2.337 v -0.702 h 0.543 C -0.048,12.946 0,12.696 0,11.879 Z" /></g><g
           transform="translate(155.4858,192.9271)"
           id="g440"><path
             id="path442"
             style="fill:#276b31;fill-opacity:1;fill-rule:nonzero;stroke:none"
             d="m 0,0 c 0.676,0.863 1.541,1.972 2.086,2.561 0.701,0.816 1.63,1.159 2.696,1.18 V 4.444 C 4.193,4.397 3.513,4.376 2.924,4.376 2.241,4.376 1.041,4.422 0.744,4.444 V 3.741 C 1.223,3.695 1.404,3.402 1.404,3.038 1.404,2.675 1.175,2.382 1.061,2.243 L -0.342,0.478 -2.111,2.767 c -0.203,0.225 -0.203,0.271 -0.203,0.407 0,0.339 0.342,0.546 0.794,0.567 V 4.444 C -2.111,4.422 -3.606,4.376 -3.969,4.376 c -0.475,0 -1.541,0.021 -2.155,0.068 V 3.741 c 1.587,0 1.607,-0.021 2.675,-1.384 l 2.246,-2.924 -2.132,-2.696 c -1.088,-1.316 -2.426,-1.362 -2.903,-1.362 v -0.703 c 0.591,0.046 1.294,0.068 1.883,0.068 0.655,0 1.607,-0.047 2.155,-0.068 v 0.703 c -0.5,0.067 -0.658,0.363 -0.658,0.702 0,0.499 0.658,1.248 2.041,2.882 l 1.721,-2.268 c 0.182,-0.25 0.475,-0.614 0.475,-0.749 0,-0.204 -0.204,-0.546 -0.813,-0.567 v -0.703 c 0.678,0.021 1.947,0.068 2.447,0.068 0.614,0 1.497,-0.022 2.179,-0.068 v 0.703 c -1.227,0 -1.634,0.046 -2.154,0.702 z" /></g><g
           transform="translate(164.7455,196.1225)"
           id="g444"><path
             id="path446"
             style="fill:#276b31;fill-opacity:1;fill-rule:nonzero;stroke:none"
             d="M 0,0 V 1.498 L -3.266,1.248 V 0.546 c 1.609,0 1.769,-0.136 1.769,-1.134 v -10.61 c 0,-1.02 -0.249,-1.02 -1.769,-1.02 v -0.703 c 0.771,0.022 1.951,0.068 2.54,0.068 0.612,0 1.769,-0.046 2.561,-0.068 v 0.703 c -1.518,0 -1.767,0 -1.767,1.02 v 3.809 0.203 c 0.112,-0.364 1.064,-1.587 2.79,-1.587 2.695,0 5.053,2.222 5.053,5.146 0,2.882 -2.196,5.125 -4.736,5.125 C 1.406,1.498 0.454,0.499 0,0 m 0.068,-5.938 v 5.057 c 0.658,1.156 1.767,1.812 2.924,1.812 1.655,0 3.04,-1.994 3.04,-4.558 0,-2.742 -1.588,-4.647 -3.268,-4.647 -0.906,0 -1.769,0.453 -2.378,1.384 -0.318,0.474 -0.318,0.499 -0.318,0.952" /></g><g
           transform="translate(182.5345,179.8069)"
           id="g448"><path
             id="path450"
             style="fill:#276b31;fill-opacity:1;fill-rule:nonzero;stroke:none"
             d="m 0,0 c 0,0.093 -0.046,0.136 -0.091,0.203 -1.043,1.113 -2.586,2.95 -3.538,6.644 -0.523,2.065 -0.726,4.401 -0.726,6.509 0,5.962 1.431,10.135 4.15,13.081 C 0,26.64 0,26.686 0,26.732 c 0,0.225 -0.183,0.225 -0.274,0.225 -0.34,0 -1.563,-1.358 -1.858,-1.701 -2.312,-2.742 -3.789,-6.822 -3.789,-11.879 0,-3.22 0.569,-7.778 3.538,-11.608 0.228,-0.271 1.703,-1.994 2.109,-1.994 0.091,0 0.274,0 0.274,0.225" /></g><g
           transform="translate(188.6581,195.0597)"
           id="g452"><path
             id="path454"
             style="fill:#276b31;fill-opacity:1;fill-rule:nonzero;stroke:none"
             d="m 0,0 c 0,0.428 0.021,0.453 0.338,0.77 0.906,0.928 2.086,1.067 2.586,1.067 1.52,0 2.789,-1.384 2.789,-4.241 0,-3.199 -1.586,-4.375 -3.061,-4.375 -0.319,0 -1.383,0 -2.403,1.223 C 0,-5.26 0,-5.239 0,-4.807 Z m 0,-6.576 c 0.975,-0.795 1.972,-1.02 2.899,-1.02 3.403,0 5.717,2.04 5.717,5.192 C 8.616,0.61 6.55,2.742 3.289,2.742 1.586,2.742 0.386,2.04 -0.135,1.63 V 2.742 L -4.152,2.561 V 1.494 c 1.406,0 1.566,0 1.566,-0.859 v -11.43 h -1.566 v -1.063 c 0.635,0.022 1.997,0.068 2.858,0.068 0.883,0 2.221,-0.046 2.855,-0.068 v 1.063 H 0 Z" /></g><g
           transform="translate(202.9299,203.3906)"
           id="g456"><path
             id="path458"
             style="fill:#276b31;fill-opacity:1;fill-rule:nonzero;stroke:none"
             d="m 0,0 c 0.128,0.271 0.144,0.399 0.144,0.514 0,0.495 -0.45,0.88 -0.945,0.88 -0.612,0 -0.804,-0.495 -0.886,-0.752 l -2.118,-6.951 c -0.013,-0.032 -0.077,-0.239 -0.077,-0.257 0,-0.192 0.495,-0.353 0.623,-0.353 0.114,0 0.128,0.032 0.242,0.275 z" /></g><g
           transform="translate(209.2704,187.6206)"
           id="g460"><path
             id="path462"
             style="fill:#276b31;fill-opacity:1;fill-rule:nonzero;stroke:none"
             d="m 0,0 c 0,1.498 -0.566,2.382 -1.452,2.382 -0.748,0 -1.2,-0.567 -1.2,-1.202 0,-0.613 0.452,-1.201 1.2,-1.201 0.272,0 0.569,0.089 0.792,0.296 0.069,0.042 0.094,0.067 0.115,0.067 0.022,0 0.045,-0.025 0.045,-0.342 0,-1.676 -0.794,-3.038 -1.543,-3.784 -0.249,-0.249 -0.249,-0.296 -0.249,-0.364 0,-0.16 0.115,-0.249 0.229,-0.249 C -1.815,-4.397 0,-2.65 0,0" /></g><g
           transform="translate(223.0766,181.8147)"
           id="g464"><path
             id="path466"
             style="fill:#276b31;fill-opacity:1;fill-rule:nonzero;stroke:none"
             d="m 0,0 v 0.909 c -2.333,0 -2.333,1.109 -2.333,1.791 V 21.768 H 7.438 V 2.7 c 0,-0.682 0,-1.791 -2.335,-1.791 V 0 h 6.868 V 0.909 C 9.636,0.909 9.636,2.018 9.636,2.7 v 17.275 c 0,0.681 0,1.793 2.335,1.793 v 0.906 H -6.87 v -0.906 c 2.337,0 2.337,-1.112 2.337,-1.793 V 2.7 c 0,-0.682 0,-1.791 -2.337,-1.791 L -6.87,0 Z" /></g><g
           transform="translate(241.2353,196.7965)"
           id="g468"><path
             id="path470"
             style="fill:#276b31;fill-opacity:1;fill-rule:nonzero;stroke:none"
             d="M 0,0 H -1.077 V 2.807 C -0.673,2.536 0.11,2.118 1.235,2.118 c 2.759,0 4.441,1.555 4.441,3.674 0,1.943 -1.394,3.644 -4.122,3.644 -0.833,0 -1.812,-0.16 -2.741,-0.738 V 9.436 L -4.19,9.308 V 8.409 c 0.273,0 0.595,0 0.803,-0.032 0.274,-0.05 0.274,-0.224 0.274,-0.531 V 0 H -4.19 v -0.899 c 0.018,0 1.316,0.064 2.086,0.064 0.787,0 2.086,-0.064 2.104,-0.064 z m -1.077,7.35 c 0,0.303 0.018,0.321 0.242,0.528 0.771,0.674 1.716,0.738 2.054,0.738 1.362,0 2.23,-1.091 2.23,-2.824 0,-2.087 -1.203,-2.935 -2.422,-2.935 -1.219,0 -1.913,0.866 -2.104,1.137 z" /></g><g
           transform="translate(251.9489,211.2112)"
           id="g472"><path
             id="path474"
             style="fill:#276b31;fill-opacity:1;fill-rule:nonzero;stroke:none"
             d="m 0,0 c 0.009,0.011 0.114,0.228 0.114,0.403 0,0.414 -0.367,0.678 -0.714,0.678 -0.47,0 -0.598,-0.357 -0.655,-0.528 l -1.774,-4.986 c -0.045,-0.139 -0.045,-0.171 -0.045,-0.182 0,-0.185 0.484,-0.299 0.495,-0.299 0.103,0 0.125,0.057 0.196,0.196 z" /></g><g
           transform="translate(241.2354,178.5374)"
           id="g476"><path
             id="path478"
             style="fill:#276b31;fill-opacity:1;fill-rule:nonzero;stroke:none"
             d="M 0,0 H -1.077 V 2.807 C -0.673,2.536 0.11,2.118 1.235,2.118 c 2.759,0 4.441,1.555 4.441,3.674 0,1.943 -1.394,3.644 -4.122,3.644 -0.833,0 -1.812,-0.16 -2.741,-0.738 V 9.436 L -4.19,9.308 V 8.409 c 0.273,0 0.595,0 0.803,-0.032 0.274,-0.05 0.274,-0.225 0.274,-0.531 V 0 H -4.19 v -0.899 c 0.018,0 1.316,0.064 2.086,0.064 0.787,0.001 2.086,-0.064 2.104,-0.064 z m -1.077,7.35 c 0,0.303 0.018,0.321 0.242,0.528 0.771,0.674 1.716,0.738 2.054,0.738 1.362,0 2.23,-1.091 2.23,-2.824 0,-2.087 -1.203,-2.935 -2.422,-2.935 -1.219,0 -1.913,0.866 -2.104,1.137 z" /></g><g
           transform="translate(262.384,182.1571)"
           id="g480"><path
             id="path482"
             style="fill:#276b31;fill-opacity:1;fill-rule:nonzero;stroke:none"
             d="m 0,0 c 0,0.068 0,0.114 -0.386,0.499 -2.832,2.857 -3.56,7.143 -3.56,10.61 0,3.948 0.865,7.892 3.652,10.727 C 0,22.107 0,22.154 0,22.221 c 0,0.157 -0.091,0.225 -0.226,0.225 -0.228,0 -2.269,-1.541 -3.606,-4.422 -1.155,-2.493 -1.429,-5.011 -1.429,-6.915 0,-1.765 0.249,-4.511 1.497,-7.072 1.358,-2.789 3.31,-4.262 3.538,-4.262 C -0.091,-0.225 0,-0.157 0,0" /></g><g
           transform="translate(266.748,192.7453)"
           id="g484"><path
             id="path486"
             style="fill:#276b31;fill-opacity:1;fill-rule:nonzero;stroke:none"
             d="m 0,0 c 0.749,-0.317 1.408,-0.317 1.951,-0.317 0.589,0 1.835,0 1.835,0.702 0,0.546 -0.789,0.614 -1.654,0.614 -0.473,0 -1.269,-0.047 -2.107,-0.432 -0.52,0.271 -0.908,0.703 -0.908,1.316 0,1.384 2.225,2.2 4.263,2.2 0.361,0 1.178,0 2.086,-0.634 C 5.717,3.267 5.758,3.22 5.921,3.22 c 0.292,0 0.609,0.296 0.609,0.614 0,0.428 -1.381,1.291 -2.924,1.291 -2.606,0 -5.053,-1.52 -5.053,-3.242 0,-0.977 0.812,-1.541 0.906,-1.612 -1.337,-0.745 -2.066,-2.015 -2.066,-3.06 0,-1.473 1.295,-2.856 3.698,-2.856 2.992,0 4.261,1.997 4.261,2.336 0,0.135 -0.114,0.228 -0.249,0.228 -0.114,0 -0.182,-0.093 -0.228,-0.161 C 4.558,-3.762 4.015,-4.6 1.294,-4.6 c -1.383,0 -3.309,0.338 -3.309,1.947 0,0.77 0.634,1.972 2.015,2.653 M 0.749,0.296 C 1.269,0.478 1.748,0.499 2.132,0.499 2.7,0.499 2.789,0.478 3.2,0.364 2.858,0.203 2.814,0.182 1.951,0.182 c -0.499,0 -0.771,0 -1.202,0.114" /></g><g
           transform="translate(283.4734,190.3559)"
           id="g488"><path
             id="path490"
             style="fill:#276b31;fill-opacity:1;fill-rule:nonzero;stroke:none"
             d="M 0,0 C 0.114,0.21 0.128,0.225 0.468,0.257 0.66,0.275 1.059,0.275 1.171,0.275 V 1.173 C 0.673,1.141 0.34,1.109 -0.173,1.109 c -0.482,0 -1.11,0.014 -1.591,0.064 V 0.275 c 0.417,0 0.513,-0.032 0.705,-0.097 l -2.15,-4.222 -2.198,4.319 h 0.753 V 1.173 C -5.341,1.141 -6.048,1.109 -6.74,1.109 c -0.623,0 -1.251,0.014 -1.876,0.064 V 0.275 h 1.041 l 3.003,-5.874 c 0.208,-0.417 0.368,-0.449 0.849,-0.449 0.482,0 0.628,0.032 0.852,0.449 z" /></g><g
           transform="translate(292.5002,203.5618)"
           id="g492"><path
             id="path494"
             style="fill:#276b31;fill-opacity:1;fill-rule:nonzero;stroke:none"
             d="m 0,0 -3.038,-3.081 0.409,-0.41 2.629,2.314 2.611,-2.314 0.406,0.41 z" /></g><g
           transform="translate(297.0787,192.542)"
           id="g496"><path
             id="path498"
             style="fill:#276b31;fill-opacity:1;fill-rule:nonzero;stroke:none"
             d="m 0,0 c 0.5,0 0.728,0 0.728,0.613 0,0.703 -0.139,2.358 -1.269,3.492 -0.842,0.816 -2.045,1.223 -3.606,1.223 -3.627,0 -5.603,-2.336 -5.603,-5.171 0,-3.035 2.268,-5.235 5.92,-5.235 3.581,0 4.558,2.403 4.558,2.788 0,0.407 -0.431,0.407 -0.545,0.407 -0.386,0 -0.432,-0.114 -0.569,-0.474 -0.472,-1.088 -1.769,-1.816 -3.241,-1.816 -3.195,0 -3.22,3.018 -3.22,4.173 z m -6.847,0.749 c 0.045,0.884 0.068,1.837 0.545,2.585 0.589,0.906 1.495,1.177 2.155,1.177 2.652,0 2.695,-2.97 2.72,-3.762 z" /></g><g
           transform="translate(302.0064,194.9136)"
           id="g500"><path
             id="path502"
             style="fill:#276b31;fill-opacity:1;fill-rule:nonzero;stroke:none"
             d="m 0,0 c 0,0.243 0,0.61 -0.383,0.61 -0.404,0 -0.404,-0.4 -0.404,-0.688 v -14.651 c 0,-0.288 0,-0.688 0.404,-0.688 0.383,0 0.383,0.367 0.383,0.61 z m 3.547,-0.078 c 0,0.288 0,0.688 -0.4,0.688 C 2.762,0.61 2.762,0.243 2.762,0 v -14.807 c 0,-0.243 0,-0.61 0.385,-0.61 0.4,0 0.4,0.4 0.4,0.688 z" /></g><g
           transform="translate(315.7509,193.2659)"
           id="g504"><path
             id="path506"
             style="fill:#276b31;fill-opacity:1;fill-rule:nonzero;stroke:none"
             d="m 0,0 c 0,1.769 -0.249,4.515 -1.493,7.075 -1.362,2.789 -3.309,4.262 -3.537,4.262 -0.137,0 -0.229,-0.089 -0.229,-0.224 0,-0.068 0,-0.115 0.432,-0.525 C -2.606,8.345 -1.312,4.74 -1.312,0 c 0,-3.876 -0.84,-7.867 -3.652,-10.724 -0.295,-0.271 -0.295,-0.317 -0.295,-0.385 0,-0.135 0.092,-0.224 0.229,-0.224 0.228,0 2.266,1.54 3.604,4.418 C -0.269,-4.419 0,-1.904 0,0" /></g><g
           transform="translate(324.7892,193.1625)"
           id="g508"><path
             id="path510"
             style="fill:#276b31;fill-opacity:1;fill-rule:nonzero;stroke:none"
             d="m 0,0 c 0,3.22 -0.568,7.775 -3.538,11.608 -0.226,0.271 -1.702,1.994 -2.109,1.994 -0.114,0 -0.269,-0.043 -0.269,-0.225 0,-0.093 0.041,-0.161 0.135,-0.228 1.086,-1.177 2.561,-3.014 3.492,-6.619 0.52,-2.065 0.723,-4.401 0.723,-6.509 0,-2.289 -0.203,-4.6 -0.792,-6.825 -0.862,-3.174 -2.2,-4.986 -3.355,-6.256 -0.203,-0.203 -0.203,-0.249 -0.203,-0.296 0,-0.181 0.155,-0.224 0.269,-0.224 0.34,0 1.589,1.38 1.858,1.697 C -1.474,-9.137 0,-5.057 0,0" /></g><g
           transform="translate(62.0188,8.6499)"
           id="g512"><path
             id="path514"
             style="fill:#276b31;fill-opacity:1;fill-rule:nonzero;stroke:none"
             d="m 0,0 c 0,-0.817 -0.048,-1.066 -1.794,-1.066 h -0.543 v -0.703 h 13.08 L 11.697,4.08 H 11.129 C 10.563,0.588 10.043,-1.066 6.144,-1.066 H 3.127 c -1.066,0 -1.114,0.16 -1.114,0.906 v 6.055 h 2.045 c 2.196,0 2.447,-0.728 2.447,-2.653 H 7.071 V 9.251 H 6.505 C 6.505,7.3 6.254,6.598 4.058,6.598 H 2.013 v 5.442 c 0,0.748 0.048,0.906 1.114,0.906 h 2.924 c 3.469,0 4.081,-1.249 4.443,-4.398 h 0.566 l -0.634,5.1 H -2.337 v -0.702 h 0.543 C -0.048,12.946 0,12.696 0,11.879 Z" /></g><g
           transform="translate(80.9627,12.209)"
           id="g516"><path
             id="path518"
             style="fill:#276b31;fill-opacity:1;fill-rule:nonzero;stroke:none"
             d="m 0,0 c 0.676,0.863 1.541,1.972 2.086,2.561 0.701,0.816 1.63,1.159 2.696,1.18 V 4.444 C 4.193,4.397 3.513,4.376 2.924,4.376 2.241,4.376 1.041,4.422 0.744,4.444 V 3.741 C 1.223,3.695 1.404,3.402 1.404,3.038 1.404,2.675 1.175,2.382 1.061,2.243 L -0.342,0.478 -2.111,2.767 c -0.203,0.225 -0.203,0.271 -0.203,0.407 0,0.339 0.342,0.546 0.794,0.567 V 4.444 C -2.111,4.422 -3.606,4.376 -3.969,4.376 c -0.475,0 -1.541,0.021 -2.155,0.068 V 3.741 c 1.587,0 1.607,-0.021 2.675,-1.384 l 2.246,-2.924 -2.132,-2.696 c -1.088,-1.316 -2.426,-1.362 -2.903,-1.362 v -0.703 c 0.591,0.046 1.294,0.068 1.883,0.068 0.655,0 1.607,-0.047 2.155,-0.068 v 0.703 c -0.5,0.067 -0.658,0.363 -0.658,0.702 0,0.499 0.658,1.248 2.041,2.882 l 1.721,-2.268 c 0.182,-0.25 0.475,-0.614 0.475,-0.749 0,-0.204 -0.204,-0.546 -0.813,-0.567 v -0.703 c 0.678,0.021 1.947,0.068 2.447,0.068 0.614,0 1.497,-0.022 2.179,-0.068 v 0.703 c -1.228,0 -1.634,0.046 -2.154,0.702 z" /></g><g
           transform="translate(90.4506,15.4044)"
           id="g520"><path
             id="path522"
             style="fill:#276b31;fill-opacity:1;fill-rule:nonzero;stroke:none"
             d="M 0,0 V 1.498 L -3.266,1.248 V 0.546 c 1.609,0 1.769,-0.136 1.769,-1.134 v -10.61 c 0,-1.02 -0.249,-1.02 -1.769,-1.02 v -0.703 c 0.771,0.022 1.951,0.068 2.54,0.068 0.612,0 1.769,-0.046 2.561,-0.068 v 0.703 c -1.518,0 -1.767,0 -1.767,1.02 v 3.809 0.203 c 0.112,-0.364 1.064,-1.587 2.79,-1.587 2.695,0 5.053,2.222 5.053,5.146 0,2.882 -2.196,5.125 -4.736,5.125 C 1.406,1.498 0.454,0.499 0,0 m 0.068,-5.938 v 5.057 c 0.658,1.156 1.767,1.812 2.924,1.812 1.655,0 3.04,-1.994 3.04,-4.558 0,-2.742 -1.588,-4.647 -3.268,-4.647 -0.906,0 -1.769,0.453 -2.378,1.384 -0.318,0.474 -0.318,0.499 -0.318,0.952" /></g><g
           transform="translate(106.3794,1.439)"
           id="g524"><path
             id="path526"
             style="fill:#276b31;fill-opacity:1;fill-rule:nonzero;stroke:none"
             d="m 0,0 c 0,0.068 0,0.114 -0.386,0.499 -2.832,2.857 -3.56,7.143 -3.56,10.61 0,3.948 0.865,7.892 3.652,10.727 C 0,22.107 0,22.154 0,22.221 c 0,0.157 -0.091,0.225 -0.226,0.225 -0.228,0 -2.269,-1.541 -3.606,-4.422 -1.155,-2.493 -1.429,-5.011 -1.429,-6.915 0,-1.765 0.249,-4.511 1.497,-7.072 1.358,-2.789 3.31,-4.262 3.538,-4.262 C -0.091,-0.225 0,-0.157 0,0" /></g><g
           transform="translate(112.7655,14.3416)"
           id="g528"><path
             id="path530"
             style="fill:#276b31;fill-opacity:1;fill-rule:nonzero;stroke:none"
             d="m 0,0 c 0,0.428 0.021,0.453 0.338,0.77 0.906,0.928 2.086,1.067 2.586,1.067 1.52,0 2.789,-1.384 2.789,-4.241 0,-3.199 -1.586,-4.375 -3.061,-4.375 -0.319,0 -1.383,0 -2.403,1.223 C 0,-5.26 0,-5.239 0,-4.807 Z m 0,-6.576 c 0.975,-0.795 1.972,-1.02 2.899,-1.02 3.403,0 5.717,2.04 5.717,5.192 C 8.616,0.61 6.55,2.742 3.289,2.742 1.586,2.742 0.386,2.04 -0.135,1.63 V 2.742 L -4.152,2.561 V 1.494 c 1.406,0 1.566,0 1.566,-0.859 v -11.43 h -1.566 v -1.063 c 0.635,0.022 1.997,0.068 2.858,0.068 0.883,0 2.221,-0.046 2.855,-0.068 v 1.063 H 0 Z" /></g><g
           transform="translate(126.7589,6.9025)"
           id="g532"><path
             id="path534"
             style="fill:#276b31;fill-opacity:1;fill-rule:nonzero;stroke:none"
             d="m 0,0 c 0,1.498 -0.566,2.382 -1.452,2.382 -0.748,0 -1.2,-0.567 -1.2,-1.202 0,-0.613 0.452,-1.201 1.2,-1.201 0.272,0 0.569,0.089 0.792,0.296 0.069,0.042 0.094,0.067 0.114,0.067 0.023,0 0.046,-0.025 0.046,-0.342 0,-1.676 -0.794,-3.038 -1.543,-3.784 -0.249,-0.249 -0.249,-0.296 -0.249,-0.364 0,-0.16 0.115,-0.249 0.229,-0.249 C -1.815,-4.397 0,-2.65 0,0" /></g><g
           transform="translate(143.8997,15.4044)"
           id="g536"><path
             id="path538"
             style="fill:#276b31;fill-opacity:1;fill-rule:nonzero;stroke:none"
             d="M 0,0 C 0.135,0.317 0.228,0.478 1.675,0.478 V 1.544 C 1.109,1.498 0.452,1.476 -0.114,1.476 c -0.568,0 -1.589,0.043 -2.063,0.068 V 0.478 c 0.429,0 1.088,-0.068 1.088,-0.25 0,-0.021 -0.025,-0.068 -0.114,-0.271 l -2.629,-5.67 -2.881,6.191 h 1.224 v 1.066 c -0.747,-0.046 -2.789,-0.068 -2.81,-0.068 -0.634,0 -1.655,0.043 -2.586,0.068 V 0.478 h 1.452 l 3.969,-8.523 c 0.272,-0.567 0.566,-0.567 0.858,-0.567 0.386,0 0.614,0.067 0.842,0.542 z" /></g><g
           transform="translate(151.0425,11.6855)"
           id="g540"><path
             id="path542"
             style="fill:#276b31;fill-opacity:1;fill-rule:nonzero;stroke:none"
             d="m 0,0 h 4.32 c 0.217,0 0.513,0 0.513,0.309 0,0.312 -0.296,0.312 -0.513,0.312 H 0 v 4.336 c 0,0.217 0,0.509 -0.31,0.509 -0.309,0 -0.309,-0.292 -0.309,-0.509 V 0.621 h -4.337 c -0.217,0 -0.512,0 -0.512,-0.312 C -5.468,0 -5.173,0 -4.956,0 h 4.337 v -4.336 c 0,-0.217 0,-0.512 0.309,-0.512 0.31,0 0.31,0.295 0.31,0.512 z" /></g><g
           transform="translate(159.5865,12.0272)"
           id="g544"><path
             id="path546"
             style="fill:#276b31;fill-opacity:1;fill-rule:nonzero;stroke:none"
             d="m 0,0 c 0.749,-0.317 1.408,-0.317 1.951,-0.317 0.589,0 1.835,0 1.835,0.702 0,0.546 -0.789,0.614 -1.654,0.614 -0.473,0 -1.269,-0.047 -2.107,-0.432 -0.52,0.271 -0.908,0.703 -0.908,1.316 0,1.384 2.225,2.2 4.263,2.2 0.361,0 1.178,0 2.086,-0.634 C 5.717,3.267 5.758,3.22 5.921,3.22 c 0.292,0 0.609,0.296 0.609,0.614 0,0.428 -1.381,1.291 -2.924,1.291 -2.606,0 -5.053,-1.52 -5.053,-3.242 0,-0.977 0.812,-1.541 0.906,-1.612 -1.337,-0.745 -2.065,-2.015 -2.065,-3.06 0,-1.473 1.294,-2.856 3.697,-2.856 2.992,0 4.261,1.997 4.261,2.336 0,0.135 -0.114,0.228 -0.249,0.228 -0.114,0 -0.182,-0.093 -0.228,-0.161 C 4.558,-3.762 4.015,-4.6 1.294,-4.6 c -1.383,0 -3.309,0.338 -3.309,1.947 0,0.77 0.634,1.972 2.015,2.653 M 0.749,0.296 C 1.269,0.478 1.748,0.499 2.132,0.499 2.7,0.499 2.789,0.478 3.2,0.364 2.858,0.203 2.814,0.182 1.951,0.182 c -0.499,0 -0.771,0 -1.202,0.114" /></g><g
           transform="translate(176.3119,9.6378)"
           id="g548"><path
             id="path550"
             style="fill:#276b31;fill-opacity:1;fill-rule:nonzero;stroke:none"
             d="M 0,0 C 0.114,0.21 0.128,0.225 0.468,0.257 0.66,0.275 1.059,0.275 1.171,0.275 V 1.173 C 0.673,1.141 0.34,1.109 -0.173,1.109 c -0.482,0 -1.11,0.014 -1.591,0.064 V 0.275 c 0.417,0 0.513,-0.032 0.705,-0.097 l -2.15,-4.222 -2.198,4.319 h 0.753 V 1.173 C -5.341,1.141 -6.048,1.109 -6.74,1.109 c -0.623,0 -1.251,0.014 -1.876,0.064 V 0.275 h 1.041 l 3.003,-5.874 c 0.208,-0.417 0.368,-0.449 0.849,-0.449 0.482,0 0.628,0.032 0.852,0.449 z" /></g><g
           transform="translate(185.567,22.8437)"
           id="g552"><path
             id="path554"
             style="fill:#276b31;fill-opacity:1;fill-rule:nonzero;stroke:none"
             d="m 0,0 -3.038,-3.081 0.409,-0.41 2.629,2.314 2.611,-2.314 0.406,0.41 z" /></g><g
           transform="translate(190.1454,11.8239)"
           id="g556"><path
             id="path558"
             style="fill:#276b31;fill-opacity:1;fill-rule:nonzero;stroke:none"
             d="m 0,0 c 0.5,0 0.728,0 0.728,0.613 0,0.703 -0.139,2.358 -1.269,3.492 -0.842,0.816 -2.045,1.223 -3.606,1.223 -3.627,0 -5.603,-2.336 -5.603,-5.171 0,-3.035 2.268,-5.235 5.92,-5.235 3.581,0 4.558,2.403 4.558,2.788 0,0.407 -0.431,0.407 -0.545,0.407 -0.386,0 -0.432,-0.114 -0.569,-0.474 -0.472,-1.088 -1.769,-1.816 -3.241,-1.816 -3.195,0 -3.22,3.018 -3.22,4.173 z m -6.847,0.749 c 0.046,0.884 0.068,1.837 0.545,2.585 0.589,0.906 1.495,1.177 2.155,1.177 2.652,0 2.695,-2.97 2.721,-3.762 z" /></g><g
           transform="translate(199.3253,14.1955)"
           id="g560"><path
             id="path562"
             style="fill:#276b31;fill-opacity:1;fill-rule:nonzero;stroke:none"
             d="M 0,0 C 0,0.239 0,0.624 -0.386,0.624 -0.785,0.624 -0.785,0.257 -0.785,0 v -9.725 h -4.896 c -0.24,0 -0.641,0 -0.641,-0.385 0,-0.4 0.37,-0.4 0.641,-0.4 H 4.893 c 0.256,0 0.642,0 0.642,0.385 0,0.4 -0.368,0.4 -0.642,0.4 H 0 Z" /></g><g
           transform="translate(213.6107,12.5479)"
           id="g564"><path
             id="path566"
             style="fill:#276b31;fill-opacity:1;fill-rule:nonzero;stroke:none"
             d="m 0,0 c 0,1.769 -0.249,4.515 -1.493,7.075 -1.362,2.789 -3.309,4.262 -3.537,4.262 -0.137,0 -0.229,-0.089 -0.229,-0.224 0,-0.068 0,-0.115 0.432,-0.525 C -2.606,8.345 -1.312,4.74 -1.312,0 c 0,-3.876 -0.84,-7.867 -3.652,-10.724 -0.295,-0.271 -0.295,-0.317 -0.295,-0.385 0,-0.135 0.092,-0.224 0.229,-0.224 0.228,0 2.266,1.54 3.604,4.418 C -0.269,-4.419 0,-1.904 0,0" /></g><g
           transform="translate(274.7993,138.1071)"
           id="g568"><path
             id="path570"
             style="fill:#2c3792;fill-opacity:1;fill-rule:nonzero;stroke:none"
             d="M 0,0 H 2.261 V 1.314 C 1.288,1.23 -1.086,1.23 -2.177,1.23 c -1.479,0 -4.219,0 -5.563,0.084 V 0 h 3.943 v -13.689 c 0,-0.532 0,-3.463 -2.77,-3.463 -0.473,0 -1.392,0.084 -2.23,0.448 v 0.027 c 0,0 1.254,0.531 1.254,2.012 0,1.508 -1.198,2.149 -2.121,2.149 -1.032,0 -2.154,-0.698 -2.154,-2.149 0,-2.153 2.208,-3.493 5.391,-3.493 3.747,0 6.427,1.591 6.427,4.5 z" /></g><g
           transform="translate(290.2625,142.2159)"
           id="g572"><path
             id="path574"
             style="fill:#2c3792;fill-opacity:1;fill-rule:nonzero;stroke:none"
             d="M 0,0 C 0.141,0.259 0.158,0.277 0.577,0.316 0.813,0.338 1.305,0.338 1.443,0.338 V 1.446 C 0.83,1.406 0.419,1.367 -0.214,1.367 c -0.593,0 -1.367,0.017 -1.96,0.079 V 0.338 c 0.515,0 0.633,-0.039 0.869,-0.118 l -2.649,-5.203 -2.709,5.321 h 0.928 v 1.108 c -0.846,-0.04 -1.718,-0.079 -2.57,-0.079 -0.768,0 -1.542,0.017 -2.312,0.079 V 0.338 h 1.282 l 3.702,-7.237 c 0.255,-0.515 0.452,-0.554 1.046,-0.554 0.593,0 0.773,0.039 1.049,0.554 z" /></g><g
           transform="translate(296.8859,135.1978)"
           id="g576"><path
             id="path578"
             style="fill:#2c3792;fill-opacity:1;fill-rule:nonzero;stroke:none"
             d="m 0,0 c 0,-1.085 -0.197,-2.351 -1.544,-3.617 -0.079,-0.079 -0.135,-0.14 -0.135,-0.237 0,-0.141 0.157,-0.277 0.276,-0.277 0.278,0 1.957,1.582 1.957,3.933 0,1.226 -0.475,2.154 -1.384,2.154 -0.652,0 -1.125,-0.515 -1.125,-1.125 0,-0.633 0.45,-1.147 1.145,-1.147 C -0.335,-0.316 -0.017,0 0,0" /></g><g
           transform="translate(303.5374,148.9571)"
           id="g580"><path
             id="path582"
             style="fill:#2c3792;fill-opacity:1;fill-rule:nonzero;stroke:none"
             d="m 0,0 c 0,0.299 0,0.751 -0.472,0.751 -0.498,0 -0.498,-0.492 -0.498,-0.848 v -18.052 c 0,-0.356 0,-0.849 0.498,-0.849 0.472,0 0.472,0.453 0.472,0.752 z m 4.371,-0.097 c 0,0.356 0,0.848 -0.492,0.848 C 3.403,0.751 3.403,0.299 3.403,0 v -18.246 c 0,-0.299 0,-0.752 0.476,-0.752 0.492,0 0.492,0.493 0.492,0.849 z" /></g><g
           transform="translate(293.3253,117.299)"
           id="g584"><path
             id="path586"
             style="fill:#2c3792;fill-opacity:1;fill-rule:nonzero;stroke:none"
             d="M 0,0 H -0.672 C -1.187,-2.984 -1.64,-4.487 -5.296,-4.487 h -3.125 c -0.931,0 -0.947,0.158 -0.947,0.769 v 5.142 h 1.994 c 1.999,0 2.295,-0.593 2.295,-2.312 h 0.672 v 5.34 h -0.672 c 0,-1.723 -0.296,-2.316 -2.295,-2.316 h -1.994 v 4.61 c 0,0.61 0.016,0.769 0.947,0.769 h 2.968 c 3.242,0 3.813,-1.068 4.17,-3.837 H -0.61 L -1.204,8.227 H -13.283 V 7.515 h 0.475 c 1.519,0 1.558,-0.198 1.558,-0.888 V -3.599 c 0,-0.672 -0.039,-0.888 -1.558,-0.888 h -0.475 v -0.712 h 12.397 z" /></g><g
           transform="translate(300.8234,116.5299)"
           id="g588"><path
             id="path590"
             style="fill:#2c3792;fill-opacity:1;fill-rule:nonzero;stroke:none"
             d="m 0,0 c -0.017,0.018 -0.158,0.176 -0.158,0.198 0,0.057 1.305,1.463 1.485,1.639 0.69,0.773 1.384,1.525 2.945,1.542 V 4.091 C 3.718,4.052 3.147,4.012 2.61,4.012 2.017,4.012 1.249,4.034 0.655,4.091 V 3.379 C 0.987,3.322 1.049,3.103 1.049,2.927 c 0,-0.04 0,-0.339 -0.298,-0.673 L -0.633,0.69 -2.273,2.571 c -0.196,0.215 -0.219,0.316 -0.219,0.395 0,0.295 0.276,0.413 0.537,0.413 V 4.091 C -2.689,4.034 -3.442,4.012 -4.171,4.012 c -0.593,0 -1.344,0.022 -1.921,0.079 V 3.379 c 0.911,0 1.423,0 1.938,-0.593 l 2.475,-2.848 c 0.017,-0.017 0.157,-0.175 0.157,-0.197 0,-0.057 -1.485,-1.679 -1.682,-1.899 -0.731,-0.791 -1.403,-1.52 -2.983,-1.56 V -4.43 c 0.593,0.04 1.026,0.079 1.639,0.079 0.594,0 1.384,-0.022 1.977,-0.079 v 0.712 c -0.239,0.04 -0.396,0.176 -0.396,0.453 0,0.378 0.219,0.633 0.537,0.971 l 1.384,1.521 1.718,-1.956 C 1.049,-3.146 1.049,-3.186 1.049,-3.305 1.049,-3.7 0.593,-3.718 0.515,-3.718 V -4.43 c 0.18,0.018 1.603,0.079 2.236,0.079 0.632,0 1.265,-0.022 1.898,-0.079 v 0.712 c -1.328,0 -1.485,0.119 -1.938,0.633 z" /></g><g
           transform="translate(311.4321,108.9757)"
           id="g592"><path
             id="path594"
             style="fill:#2c3792;fill-opacity:1;fill-rule:nonzero;stroke:none"
             d="m 0,0 c -1.288,0 -1.485,0 -1.485,0.853 v 3.221 c 0.101,-0.101 1.027,-1.147 2.689,-1.147 2.61,0 4.846,1.955 4.846,4.469 0,2.43 -2.017,4.447 -4.531,4.447 -1.125,0 -2.27,-0.413 -3.086,-1.204 v 1.204 l -2.964,-0.215 v -0.712 c 1.384,0 1.485,-0.101 1.485,-0.932 V 0.853 C -3.046,0 -3.243,0 -4.531,0 v -0.712 c 0.039,0 1.423,0.079 2.253,0.079 0.734,0 2.098,-0.057 2.278,-0.079 z m -1.485,9.708 c 0.593,0.988 1.738,1.502 2.79,1.502 1.659,0 2.945,-1.74 2.945,-3.814 0,-2.254 -1.482,-3.916 -3.164,-3.916 -1.741,0 -2.512,1.521 -2.571,1.64 z" /></g><g
           transform="translate(273.17,88.4892)"
           id="g596"><path
             id="path598"
             style="fill:#2c3792;fill-opacity:1;fill-rule:nonzero;stroke:none"
             d="M 0,0 H 2.261 V 1.314 C 1.288,1.23 -1.086,1.23 -2.177,1.23 c -1.479,0 -4.219,0 -5.563,0.084 V 0 h 3.943 v -13.689 c 0,-0.532 0,-3.463 -2.77,-3.463 -0.473,0 -1.392,0.084 -2.23,0.448 v 0.027 c 0,0 1.254,0.531 1.254,2.012 0,1.508 -1.198,2.149 -2.121,2.149 -1.032,0 -2.154,-0.698 -2.154,-2.149 0,-2.153 2.208,-3.493 5.391,-3.493 3.747,0 6.427,1.591 6.427,4.5 z" /></g><g
           transform="translate(288.6331,91.473)"
           id="g600"><path
             id="path602"
             style="fill:#2c3792;fill-opacity:1;fill-rule:nonzero;stroke:none"
             d="M 0,0 C 0.141,0.259 0.158,0.277 0.577,0.316 0.813,0.338 1.305,0.338 1.443,0.338 V 1.446 C 0.83,1.406 0.419,1.367 -0.214,1.367 c -0.593,0 -1.367,0.017 -1.96,0.079 V 0.338 c 0.515,0 0.633,-0.039 0.869,-0.118 l -2.649,-5.203 -2.709,5.321 h 0.928 v 1.108 c -0.846,-0.04 -1.718,-0.079 -2.57,-0.079 -0.768,0 -1.542,0.017 -2.312,0.079 V 0.338 h 1.282 l 3.702,-7.237 c 0.255,-0.515 0.452,-0.554 1.046,-0.554 0.593,0 0.773,0.039 1.049,0.554 z" /></g><g
           transform="translate(295.2566,84.455)"
           id="g604"><path
             id="path606"
             style="fill:#2c3792;fill-opacity:1;fill-rule:nonzero;stroke:none"
             d="m 0,0 c 0,-1.085 -0.197,-2.351 -1.544,-3.617 -0.079,-0.079 -0.135,-0.14 -0.135,-0.237 0,-0.141 0.157,-0.277 0.275,-0.277 0.279,0 1.958,1.582 1.958,3.933 0,1.226 -0.475,2.154 -1.384,2.154 -0.652,0 -1.125,-0.515 -1.125,-1.125 0,-0.633 0.45,-1.147 1.145,-1.147 C -0.335,-0.316 -0.017,0 0,0" /></g><g
           transform="translate(307.1478,97.0893)"
           id="g608"><path
             id="path610"
             style="fill:#2c3792;fill-opacity:1;fill-rule:nonzero;stroke:none"
             d="M 0,0 C 0,0.294 0,0.769 -0.475,0.769 -0.968,0.769 -0.968,0.316 -0.968,0 V -11.984 H -7 c -0.296,0 -0.791,0 -0.791,-0.475 0,-0.492 0.456,-0.492 0.791,-0.492 H 6.03 c 0.315,0 0.79,0 0.79,0.475 0,0.492 -0.453,0.492 -0.79,0.492 l -6.03,0 z" /></g><g
           transform="translate(291.6959,67.6811)"
           id="g612"><path
             id="path614"
             style="fill:#2c3792;fill-opacity:1;fill-rule:nonzero;stroke:none"
             d="M 0,0 H -0.672 C -1.187,-2.984 -1.64,-4.487 -5.296,-4.487 h -3.125 c -0.931,0 -0.947,0.158 -0.947,0.769 v 5.142 h 1.994 c 1.999,0 2.295,-0.593 2.295,-2.312 h 0.672 v 5.34 h -0.672 c 0,-1.723 -0.296,-2.316 -2.295,-2.316 h -1.994 v 4.61 c 0,0.61 0.016,0.769 0.947,0.769 h 2.968 c 3.242,0 3.813,-1.068 4.17,-3.837 H -0.61 L -1.204,8.227 H -13.283 V 7.515 h 0.475 c 1.519,0 1.558,-0.198 1.558,-0.888 V -3.599 c 0,-0.672 -0.039,-0.888 -1.558,-0.888 h -0.475 v -0.712 h 12.397 z" /></g><g
           transform="translate(299.1941,66.912)"
           id="g616"><path
             id="path618"
             style="fill:#2c3792;fill-opacity:1;fill-rule:nonzero;stroke:none"
             d="m 0,0 c -0.017,0.018 -0.158,0.176 -0.158,0.198 0,0.057 1.305,1.463 1.485,1.639 0.69,0.773 1.384,1.525 2.945,1.542 V 4.091 C 3.718,4.052 3.147,4.012 2.61,4.012 2.017,4.012 1.249,4.034 0.655,4.091 V 3.379 C 0.987,3.322 1.049,3.103 1.049,2.927 c 0,-0.04 0,-0.339 -0.298,-0.673 L -0.633,0.69 -2.273,2.571 c -0.196,0.215 -0.219,0.316 -0.219,0.395 0,0.295 0.276,0.413 0.537,0.413 V 4.091 C -2.689,4.034 -3.442,4.012 -4.171,4.012 c -0.593,0 -1.344,0.022 -1.921,0.079 V 3.379 c 0.911,0 1.423,0 1.938,-0.593 l 2.475,-2.848 c 0.017,-0.017 0.157,-0.175 0.157,-0.197 0,-0.057 -1.485,-1.679 -1.681,-1.899 -0.732,-0.791 -1.404,-1.52 -2.984,-1.56 V -4.43 c 0.593,0.04 1.026,0.079 1.639,0.079 0.594,0 1.384,-0.022 1.977,-0.079 v 0.712 c -0.239,0.04 -0.396,0.176 -0.396,0.453 0,0.378 0.219,0.633 0.537,0.971 l 1.384,1.521 1.718,-1.956 C 1.049,-3.146 1.049,-3.186 1.049,-3.305 1.049,-3.7 0.593,-3.718 0.515,-3.718 V -4.43 c 0.18,0.018 1.603,0.079 2.236,0.079 0.632,0 1.265,-0.022 1.898,-0.079 v 0.712 c -1.328,0 -1.485,0.119 -1.938,0.633 z" /></g><g
           transform="translate(309.8028,59.3578)"
           id="g620"><path
             id="path622"
             style="fill:#2c3792;fill-opacity:1;fill-rule:nonzero;stroke:none"
             d="m 0,0 c -1.288,0 -1.485,0 -1.485,0.853 v 3.221 c 0.101,-0.101 1.026,-1.147 2.689,-1.147 2.61,0 4.846,1.955 4.846,4.469 0,2.43 -2.017,4.447 -4.531,4.447 -1.125,0 -2.27,-0.413 -3.086,-1.204 v 1.204 l -2.964,-0.215 v -0.712 c 1.384,0 1.485,-0.101 1.485,-0.932 V 0.853 C -3.046,0 -3.243,0 -4.531,0 v -0.712 c 0.039,0 1.423,0.079 2.253,0.079 0.734,0 2.098,-0.057 2.278,-0.079 z m -1.485,9.708 c 0.593,0.988 1.738,1.502 2.79,1.502 1.659,0 2.945,-1.74 2.945,-3.814 0,-2.254 -1.483,-3.916 -3.164,-3.916 -1.741,0 -2.512,1.521 -2.571,1.64 z" /></g></g></g></g></svg>